<?xml version="1.0" encoding="utf-8"?>
<!-- Generator: Adobe Illustrator 23.0.5, SVG Export Plug-In . SVG Version: 6.00 Build 0)  -->
<svg version="1.1" id="Слой_1" xmlns="http://www.w3.org/2000/svg" xmlns:xlink="http://www.w3.org/1999/xlink" x="0px" y="0px"
	 viewBox="0 0 248.4 400.8" style="enable-background:new 0 0 248.4 400.8;" xml:space="preserve">
<style type="text/css">
	.st0{display:none;}
	.st1{display:inline;fill:#F5F8FC;}
	.st2{fill:#759DCC;}
	.st3{fill:#CAB2F4;}
	.st4{fill:#764AFF;}
	.st5{display:inline;fill:#764AFF;}
</style>
<g id="BACKGROUND" class="st0">
	<rect x="-201.9" y="5" class="st1" width="500" height="500"/>
</g>
<g id="OBJECTS">
	<g>
		<g>
			<g>
				<path class="st2" d="M1.2,153.1H248v246.7H1.2V153.1 M0.8,152.7v247.5h247.5V152.7H0.8L0.8,152.7z"/>
				<path class="st2" d="M1.2,0.1H248v399.7H1.2V0.1 M0.8-0.3v400.5h247.5V-0.3H0.8L0.8-0.3z"/>
				<path class="st2" d="M1.2,0.1h152.2v152.2H1.2V0.1 M0.8-0.3v153h153v-153H0.8L0.8-0.3z"/>
				<path class="st2" d="M1.2,0.1h246.7v152.2H1.2V0.1 M0.8-0.3v153h247.5v-153H0.8L0.8-0.3z"/>
				<path class="st2" d="M154.1,0.1h93.8v93.8h-93.8V0.1 M153.8-0.3v94.5h94.5V-0.3H153.8L153.8-0.3z"/>
				<path class="st2" d="M154.1,0.1h93.8v152.2h-93.8V0.1 M153.8-0.3v153h94.5v-153H153.8L153.8-0.3z"/>
				<path class="st2" d="M190.3,94.6H248v57.7h-57.7V94.6 M189.9,94.3v58.4h58.4V94.3H189.9L189.9,94.3z"/>
				<path class="st2" d="M154.1,94.6h93.8v57.7h-93.8V94.6 M153.8,94.3v58.4h94.5V94.3H153.8L153.8,94.3z"/>
				<path class="st2" d="M154.1,116.9h35.3v35.3h-35.3V116.9 M153.8,116.6v36.1h36.1v-36.1H153.8L153.8,116.6z"/>
				<path class="st2" d="M154.1,94.6h35.3v57.7h-35.3V94.6 M153.8,94.3v58.4h36.1V94.3H153.8L153.8,94.3z"/>
				<path class="st2" d="M154.1,94.6h21.6v21.6h-21.6V94.6 M153.8,94.3v22.3h22.3V94.3H153.8L153.8,94.3z"/>
				<path class="st2" d="M154.1,94.6h35.3v21.6h-35.3V94.6 M153.8,94.3v22.3h36.1V94.3H153.8L153.8,94.3z"/>
				<path class="st2" d="M176.5,94.6h13v13h-13V94.6 M176.1,94.3v13.8h13.8V94.3H176.1L176.1,94.3z"/>
				<path class="st2" d="M176.5,94.6h13v21.6h-13V94.6 M176.1,94.3v22.3h13.8V94.3H176.1L176.1,94.3z"/>
				<path class="st2" d="M181.7,108.4h7.8v7.8h-7.8V108.4 M181.4,108.1v8.5h8.5v-8.5H181.4L181.4,108.1z"/>
				<path class="st2" d="M176.5,108.4h13v7.8h-13V108.4 M176.1,108.1v8.5h13.8v-8.5H176.1L176.1,108.1z"/>
				<path class="st2" d="M176.5,111.7h4.5v4.5h-4.5V111.7 M176.1,111.3v5.3h5.3v-5.3H176.1L176.1,111.3z"/>
				<path class="st2" d="M176.5,108.4h4.5v7.8h-4.5V108.4 M176.1,108.1v8.5h5.3v-8.5H176.1L176.1,108.1z"/>
			</g>
			<g>
				<path class="st3" d="M1.4,400.2c0,0.1,0,0.2-0.1,0.3c-0.2,0.2-0.5,0.3-0.8,0.2c-0.3-0.2-0.3-0.5-0.2-0.8l0,0
					c0.2-0.3,0.5-0.4,0.8-0.2C1.3,399.8,1.4,400,1.4,400.2z"/>
				<path class="st3" d="M246.9,2.9c0,0.1,0,0.2-0.1,0.3v0.1c-0.2,0.3-0.5,0.4-0.8,0.2c-0.3-0.2-0.4-0.5-0.2-0.8V2.7
					c0.2-0.3,0.5-0.4,0.8-0.2C246.8,2.6,246.9,2.8,246.9,2.9z M244.8,6.3c0,0.1,0,0.2-0.1,0.3c-0.2,0.3-0.5,0.4-0.8,0.2
					c-0.3-0.2-0.4-0.5-0.2-0.8V5.9c0.2-0.3,0.5-0.4,0.8-0.2C244.7,5.9,244.8,6.1,244.8,6.3z M242.8,9.6c0,0.1,0,0.2-0.1,0.3v0.1
					c-0.2,0.3-0.5,0.4-0.8,0.2c-0.3-0.2-0.4-0.5-0.2-0.8V9.3c0.2-0.3,0.5-0.4,0.8-0.2C242.7,9.2,242.8,9.4,242.8,9.6z M240.7,12.9
					c0,0.1,0,0.2-0.1,0.3c-0.2,0.3-0.5,0.4-0.8,0.2c-0.3-0.2-0.4-0.5-0.2-0.8v-0.1c0.2-0.3,0.5-0.4,0.8-0.2
					C240.6,12.6,240.7,12.7,240.7,12.9z M238.7,16.2c0,0.1,0,0.2-0.1,0.3v0.1c-0.2,0.3-0.5,0.4-0.8,0.2c-0.3-0.2-0.4-0.5-0.2-0.8
					v-0.1c0.2-0.3,0.5-0.4,0.8-0.2C238.6,15.9,238.7,15.9,238.7,16.2z M236.6,19.4c0,0.1,0,0.2-0.1,0.3c-0.2,0.3-0.5,0.4-0.8,0.2
					c-0.3-0.2-0.4-0.5-0.2-0.8v-0.1c0.2-0.3,0.5-0.4,0.8-0.2C236.5,19.2,236.6,19.4,236.6,19.4z M234.6,22.9c0,0.1,0,0.2-0.1,0.3
					c-0.2,0.3-0.5,0.4-0.8,0.2c-0.3-0.2-0.4-0.5-0.2-0.8v-0.1c0.2-0.3,0.5-0.4,0.8-0.2C234.5,22.4,234.6,22.7,234.6,22.9z
					 M232.5,26.2c0,0.1,0,0.2-0.1,0.3c-0.2,0.3-0.5,0.4-0.8,0.2c-0.3-0.2-0.4-0.5-0.2-0.8v-0.1c0.2-0.3,0.5-0.4,0.8-0.2
					C232.4,25.8,232.5,25.9,232.5,26.2z M230.5,29.4c0,0.1,0,0.2-0.1,0.3c-0.2,0.3-0.5,0.4-0.8,0.2c-0.3-0.2-0.4-0.5-0.2-0.8v-0.1
					c0.2-0.3,0.5-0.4,0.8-0.2C230.4,29.1,230.5,29.3,230.5,29.4z M228.4,32.8c0,0.1,0,0.2-0.1,0.3c-0.2,0.3-0.5,0.4-0.8,0.2
					c-0.3-0.2-0.4-0.5-0.2-0.8v-0.1c0.2-0.3,0.5-0.4,0.8-0.2C228.3,32.4,228.4,32.6,228.4,32.8z M226.4,36.1c0,0.1,0,0.2-0.1,0.3
					c-0.2,0.3-0.5,0.4-0.8,0.2c-0.3-0.2-0.4-0.5-0.2-0.8v-0.1c0.2-0.3,0.5-0.4,0.8-0.2C226.3,35.7,226.4,35.9,226.4,36.1z
					 M224.4,39.4c0,0.1,0,0.2-0.1,0.3v0.1c-0.2,0.3-0.5,0.4-0.8,0.2c-0.3-0.2-0.4-0.5-0.2-0.8v-0.1c0.2-0.3,0.5-0.4,0.8-0.2
					C224.3,38.9,224.4,39.2,224.4,39.4z M222.3,42.7c0,0.1,0,0.2-0.1,0.3c-0.2,0.3-0.5,0.4-0.8,0.2c-0.3-0.2-0.4-0.5-0.2-0.8v-0.1
					c0.2-0.3,0.5-0.4,0.8-0.2C222.2,42.3,222.3,42.4,222.3,42.7z M220.3,45.9c0,0.1,0,0.2-0.1,0.3v0.1c-0.2,0.3-0.5,0.4-0.8,0.2
					c-0.3-0.2-0.4-0.5-0.2-0.8v-0.1c0.2-0.3,0.5-0.4,0.8-0.2C220.2,45.6,220.3,45.8,220.3,45.9z M218.2,49.3c0,0.1,0,0.2-0.1,0.3
					c-0.2,0.3-0.5,0.4-0.8,0.2c-0.3-0.2-0.4-0.5-0.2-0.8v-0.1c0.2-0.3,0.5-0.4,0.8-0.2C218.1,48.9,218.2,49.1,218.2,49.3z
					 M216.2,52.6c0,0.1,0,0.2-0.1,0.3v0.1c-0.2,0.3-0.5,0.4-0.8,0.2c-0.3-0.2-0.4-0.5-0.2-0.8v-0.1c0.2-0.3,0.5-0.4,0.8-0.2
					C216.1,52.3,216.2,52.4,216.2,52.6z M214.1,55.9c0,0.1,0,0.2-0.1,0.3c-0.2,0.3-0.5,0.4-0.8,0.2c-0.3-0.2-0.4-0.5-0.2-0.8v-0.1
					c0.2-0.3,0.5-0.4,0.8-0.2C214,55.6,214.1,55.8,214.1,55.9z M212.1,59.3c0,0.1,0,0.2-0.1,0.3c-0.2,0.3-0.5,0.4-0.8,0.2
					c-0.3-0.2-0.4-0.5-0.2-0.8v-0.1c0.2-0.3,0.5-0.4,0.8-0.2C212,58.9,212.1,59.1,212.1,59.3z M210,62.6c0,0.1,0,0.2-0.1,0.3
					c-0.2,0.3-0.5,0.4-0.8,0.2c-0.3-0.2-0.4-0.5-0.2-0.8v-0.1c0.2-0.3,0.5-0.4,0.8-0.2C209.9,62.2,210,62.4,210,62.6z M208,65.9
					c0,0.1,0,0.2-0.1,0.3c-0.2,0.3-0.5,0.4-0.8,0.2c-0.3-0.2-0.4-0.5-0.2-0.8v-0.1c0.2-0.3,0.5-0.4,0.8-0.2
					C207.9,65.4,208,65.7,208,65.9z M205.9,69.2c0,0.1,0,0.2-0.1,0.3v0.1c-0.2,0.3-0.5,0.4-0.8,0.2c-0.3-0.2-0.4-0.5-0.2-0.8v-0.1
					c0.2-0.3,0.5-0.4,0.8-0.2C205.8,68.8,205.9,68.9,205.9,69.2z M203.9,72.4c0,0.1,0,0.2-0.1,0.3c-0.2,0.3-0.5,0.4-0.8,0.2
					c-0.3-0.2-0.4-0.5-0.2-0.8v-0.1c0.2-0.3,0.5-0.4,0.8-0.2C203.8,72.1,203.9,72.3,203.9,72.4z M201.8,75.8c0,0.1,0,0.2-0.1,0.3
					v0.1c-0.2,0.3-0.5,0.4-0.8,0.2c-0.3-0.2-0.4-0.5-0.2-0.8v-0.1c0.2-0.3,0.5-0.4,0.8-0.2C201.8,75.4,201.8,75.6,201.8,75.8z
					 M199.8,79.1c0,0.1,0,0.2-0.1,0.3c-0.2,0.3-0.5,0.4-0.8,0.2c-0.3-0.2-0.4-0.5-0.2-0.8v-0.1c0.2-0.3,0.5-0.4,0.8-0.2
					C199.7,78.7,199.8,78.9,199.8,79.1z M197.8,82.4c0,0.1,0,0.2-0.1,0.3v0.1c-0.2,0.3-0.5,0.4-0.8,0.2c-0.3-0.2-0.4-0.5-0.2-0.8
					v-0.1c0.2-0.3,0.5-0.4,0.8-0.2C197.7,82.1,197.8,82.2,197.8,82.4z M195.7,85.7c0,0.1,0,0.2-0.1,0.3c-0.2,0.3-0.5,0.4-0.8,0.2
					c-0.3-0.2-0.4-0.5-0.2-0.8v-0.1c0.2-0.3,0.5-0.4,0.8-0.2C195.6,85.4,195.7,85.6,195.7,85.7z M193.7,89.1c0,0.1,0,0.2-0.1,0.3
					c-0.2,0.3-0.5,0.4-0.8,0.2c-0.3-0.2-0.4-0.5-0.2-0.8v-0.1c0.2-0.3,0.5-0.4,0.8-0.2C193.6,88.7,193.7,88.9,193.7,89.1z
					 M191.6,92.4c0,0.1,0,0.2-0.1,0.3c-0.2,0.3-0.5,0.4-0.8,0.2c-0.3-0.2-0.4-0.5-0.2-0.8V92c0.2-0.3,0.5-0.4,0.8-0.2
					C191.5,91.9,191.6,92.2,191.6,92.4z M189.6,95.7c0,0.1,0,0.2-0.1,0.3c-0.2,0.3-0.5,0.4-0.8,0.2c-0.3-0.2-0.4-0.5-0.2-0.8v-0.1
					c0.2-0.3,0.5-0.4,0.8-0.2C189.5,95.3,189.6,95.4,189.6,95.7z M187.5,98.9c0,0.1,0,0.2-0.1,0.3c-0.2,0.3-0.5,0.4-0.8,0.2
					c-0.3-0.2-0.4-0.5-0.2-0.8v-0.1c0.2-0.3,0.5-0.4,0.8-0.2C187.4,98.6,187.5,98.8,187.5,98.9z M185.5,102.3c0,0.1,0,0.2-0.1,0.3
					c-0.2,0.3-0.5,0.4-0.8,0.2c-0.3-0.2-0.4-0.5-0.2-0.8v-0.1c0.2-0.3,0.5-0.4,0.8-0.2C185.4,101.9,185.5,102.1,185.5,102.3z
					 M183.4,105.6c0,0.1,0,0.2-0.1,0.3v0.1c-0.2,0.3-0.5,0.4-0.8,0.2c-0.3-0.2-0.4-0.5-0.2-0.8v-0.1c0.2-0.3,0.5-0.4,0.8-0.2
					C183.3,105.2,183.4,105.4,183.4,105.6z M181.4,108.9c0,0.1,0,0.2-0.1,0.3c-0.2,0.3-0.5,0.4-0.8,0.2c-0.3-0.2-0.4-0.5-0.2-0.8
					v-0.1c0.2-0.3,0.5-0.4,0.8-0.2C181.3,108.4,181.4,108.7,181.4,108.9z M179.3,112.2c0,0.1,0,0.2-0.1,0.3v0.1
					c-0.2,0.3-0.5,0.4-0.8,0.2c-0.3-0.2-0.4-0.5-0.2-0.8v-0.1c0.2-0.3,0.5-0.4,0.8-0.2C179.3,111.8,179.3,111.9,179.3,112.2z
					 M177.3,115.4c0,0.1,0,0.2-0.1,0.3c-0.2,0.3-0.5,0.4-0.8,0.2c-0.3-0.2-0.4-0.5-0.2-0.8v-0.1c0.2-0.3,0.5-0.4,0.8-0.2
					C177.2,115.2,177.3,115.3,177.3,115.4z M175.3,118.8c0,0.1,0,0.2-0.1,0.3v0.1c-0.2,0.3-0.5,0.4-0.8,0.2
					c-0.3-0.2-0.4-0.5-0.2-0.8v-0.1c0.2-0.3,0.5-0.4,0.8-0.2C175.2,118.4,175.3,118.6,175.3,118.8z M173.2,122.2
					c0,0.1,0,0.2-0.1,0.3c-0.2,0.3-0.5,0.4-0.8,0.2c-0.3-0.2-0.4-0.5-0.2-0.8v-0.1c0.2-0.3,0.5-0.4,0.8-0.2
					C173.1,121.8,173.2,121.9,173.2,122.2z M171.2,125.4c0,0.1,0,0.2-0.1,0.3c-0.2,0.3-0.5,0.4-0.8,0.2c-0.3-0.2-0.4-0.5-0.2-0.8
					v-0.1c0.2-0.3,0.5-0.4,0.8-0.2C171.1,125.1,171.2,125.3,171.2,125.4z M169.1,128.8c0,0.1,0,0.2-0.1,0.3
					c-0.2,0.3-0.5,0.4-0.8,0.2c-0.3-0.2-0.4-0.5-0.2-0.8v-0.1c0.2-0.3,0.5-0.4,0.8-0.2C169,128.4,169.1,128.6,169.1,128.8z
					 M167.1,132.1c0,0.1,0,0.2-0.1,0.3c-0.2,0.3-0.5,0.4-0.8,0.2c-0.3-0.2-0.4-0.5-0.2-0.8v-0.1c0.2-0.3,0.5-0.4,0.8-0.2
					C167,131.7,167.1,131.9,167.1,132.1z M165,135.4c0,0.1,0,0.2-0.1,0.3c-0.2,0.3-0.5,0.4-0.8,0.2c-0.3-0.2-0.4-0.5-0.2-0.8V135
					c0.2-0.3,0.5-0.4,0.8-0.2C164.9,134.9,165,135.2,165,135.4z M163,138.7c0,0.1,0,0.2-0.1,0.3c-0.2,0.3-0.5,0.4-0.8,0.2
					c-0.3-0.2-0.4-0.5-0.2-0.8v-0.1c0.2-0.3,0.5-0.4,0.8-0.2C162.9,138.3,163,138.4,163,138.7z M160.9,141.9c0,0.1,0,0.2-0.1,0.3
					v0.1c-0.2,0.3-0.5,0.4-0.8,0.2c-0.3-0.2-0.4-0.5-0.2-0.8v-0.1c0.2-0.3,0.5-0.4,0.8-0.2C160.8,141.6,160.9,141.8,160.9,141.9z
					 M158.9,145.3c0,0.1,0,0.2-0.1,0.3c-0.2,0.3-0.5,0.4-0.8,0.2s-0.4-0.5-0.2-0.8v-0.1c0.2-0.3,0.5-0.4,0.8-0.2
					C158.8,144.9,158.9,145.1,158.9,145.3z M156.8,148.6c0,0.1,0,0.2-0.1,0.3v0.1c-0.2,0.3-0.5,0.4-0.8,0.2s-0.4-0.5-0.2-0.8v-0.1
					c0.2-0.3,0.5-0.4,0.8-0.2C156.8,148.2,156.8,148.4,156.8,148.6z M154.8,151.9c0,0.1,0,0.2-0.1,0.3c-0.2,0.3-0.5,0.4-0.8,0.2
					s-0.4-0.5-0.2-0.8v-0.1c0.2-0.3,0.5-0.4,0.8-0.2C154.7,151.6,154.8,151.7,154.8,151.9z M152.8,155.2c0,0.1,0,0.2-0.1,0.3v0.1
					c-0.2,0.3-0.5,0.4-0.8,0.2s-0.4-0.5-0.2-0.8v-0.1c0.2-0.3,0.5-0.4,0.8-0.2C152.7,154.9,152.8,155.1,152.8,155.2z M150.7,158.6
					c0,0.1,0,0.2-0.1,0.3c-0.2,0.3-0.5,0.4-0.8,0.2s-0.4-0.5-0.2-0.8v-0.1c0.2-0.3,0.5-0.4,0.8-0.2
					C150.6,158.2,150.7,158.4,150.7,158.6z M148.7,161.9c0,0.1,0,0.2-0.1,0.3c-0.2,0.3-0.5,0.4-0.8,0.2s-0.4-0.5-0.2-0.8v-0.1
					c0.2-0.3,0.5-0.4,0.8-0.2C148.6,161.5,148.7,161.7,148.7,161.9z M146.6,165.2c0,0.1,0,0.2-0.1,0.3c-0.2,0.3-0.5,0.4-0.8,0.2
					s-0.4-0.5-0.2-0.8v-0.1c0.2-0.3,0.5-0.4,0.8-0.2C146.5,164.8,146.6,165,146.6,165.2z M144.6,168.5c0,0.1,0,0.2-0.1,0.3
					c-0.2,0.3-0.5,0.4-0.8,0.2s-0.4-0.5-0.2-0.8v-0.1c0.2-0.3,0.5-0.4,0.8-0.2C144.5,168.1,144.6,168.3,144.6,168.5z M142.5,171.8
					c0,0.1,0,0.2-0.1,0.3v0.1c-0.2,0.3-0.5,0.4-0.8,0.2s-0.4-0.5-0.2-0.8v-0.1c0.2-0.3,0.5-0.4,0.8-0.2
					C142.4,171.4,142.5,171.6,142.5,171.8z M140.5,175.1c0,0.1,0,0.2-0.1,0.3c-0.2,0.3-0.5,0.4-0.8,0.2s-0.4-0.5-0.2-0.8v-0.1
					c0.2-0.3,0.5-0.4,0.8-0.2C140.4,174.7,140.5,174.9,140.5,175.1z M138.4,178.4c0,0.1,0,0.2-0.1,0.3v0.1c-0.2,0.3-0.5,0.4-0.8,0.2
					s-0.4-0.5-0.2-0.8v-0.1c0.2-0.3,0.5-0.4,0.8-0.2C138.3,178,138.4,178.2,138.4,178.4z M136.4,181.7c0,0.1,0,0.2-0.1,0.3
					c-0.2,0.3-0.5,0.4-0.8,0.2s-0.4-0.5-0.2-0.8v-0.1c0.2-0.3,0.5-0.4,0.8-0.2C136.3,181.3,136.4,181.5,136.4,181.7z M134.3,185
					c0,0.1,0,0.2-0.1,0.3v0.1c-0.2,0.3-0.5,0.4-0.8,0.2s-0.4-0.5-0.2-0.8v-0.1c0.2-0.3,0.5-0.4,0.8-0.2S134.3,184.8,134.3,185z
					 M132.3,188.3c0,0.1,0,0.2-0.1,0.3c-0.2,0.3-0.5,0.4-0.8,0.2s-0.4-0.5-0.2-0.8v-0.1c0.2-0.3,0.5-0.4,0.8-0.2
					C132.2,188,132.3,188.2,132.3,188.3z M130.3,191.7c0,0.1,0,0.2-0.1,0.3c-0.2,0.3-0.5,0.4-0.8,0.2s-0.4-0.5-0.2-0.8v-0.1
					c0.2-0.3,0.5-0.4,0.8-0.2C130.2,191.3,130.3,191.5,130.3,191.7z M128.2,195c0,0.1,0,0.2-0.1,0.3c-0.2,0.3-0.5,0.4-0.8,0.2
					s-0.4-0.5-0.2-0.8v-0.1c0.2-0.3,0.5-0.4,0.8-0.2C128.1,194.6,128.2,194.8,128.2,195z M126.2,198.3c0,0.1,0,0.2-0.1,0.3
					c-0.2,0.3-0.5,0.4-0.8,0.2s-0.4-0.5-0.2-0.8v-0.1c0.2-0.3,0.5-0.4,0.8-0.2C126.1,197.9,126.2,198.1,126.2,198.3z M124.1,201.6
					c0,0.1,0,0.2-0.1,0.3v0.1c-0.2,0.3-0.5,0.4-0.8,0.2s-0.4-0.5-0.2-0.8v-0.1c0.2-0.3,0.5-0.4,0.8-0.2
					C124,201.2,124.1,201.4,124.1,201.6z M122.1,204.9c0,0.1,0,0.2-0.1,0.3c-0.2,0.3-0.5,0.4-0.8,0.2s-0.4-0.5-0.2-0.8v-0.1
					c0.2-0.3,0.5-0.4,0.8-0.2C122,204.5,122.1,204.7,122.1,204.9z M120,208.2c0,0.1,0,0.2-0.1,0.3v0.1c-0.2,0.3-0.5,0.4-0.8,0.2
					s-0.4-0.5-0.2-0.8v-0.1c0.2-0.3,0.5-0.4,0.8-0.2C119.9,207.8,120,208,120,208.2z M118,211.5c0,0.1,0,0.2-0.1,0.3
					c-0.2,0.3-0.5,0.4-0.8,0.2s-0.4-0.5-0.2-0.8v-0.1c0.2-0.3,0.5-0.4,0.8-0.2C117.9,211.1,118,211.3,118,211.5z M115.9,214.8
					c0,0.1,0,0.2-0.1,0.3v0.1c-0.2,0.3-0.5,0.4-0.8,0.2s-0.4-0.5-0.2-0.8v-0.1c0.2-0.3,0.5-0.4,0.8-0.2
					C115.8,214.4,115.9,214.6,115.9,214.8z M113.9,218.1c0,0.1,0,0.2-0.1,0.3c-0.2,0.3-0.5,0.4-0.8,0.2s-0.4-0.5-0.2-0.8v-0.1
					c0.2-0.3,0.5-0.4,0.8-0.2C113.8,217.8,113.9,217.9,113.9,218.1z M111.8,221.4c0,0.1,0,0.2-0.1,0.3c-0.2,0.3-0.5,0.4-0.8,0.2
					s-0.4-0.5-0.2-0.8v-0.1c0.2-0.3,0.5-0.4,0.8-0.2C111.8,221.1,111.8,221.3,111.8,221.4z M109.8,224.8c0,0.1,0,0.2-0.1,0.3
					c-0.2,0.3-0.5,0.4-0.8,0.2s-0.4-0.5-0.2-0.8v-0.1c0.2-0.3,0.5-0.4,0.8-0.2C109.7,224.4,109.8,224.6,109.8,224.8z M107.8,228.1
					c0,0.1,0,0.2-0.1,0.3c-0.2,0.3-0.5,0.4-0.8,0.2s-0.4-0.5-0.2-0.8v-0.1c0.2-0.3,0.5-0.4,0.8-0.2
					C107.7,227.7,107.8,227.9,107.8,228.1z M105.7,231.4c0,0.1,0,0.2-0.1,0.3v0.1c-0.2,0.3-0.5,0.4-0.8,0.2s-0.4-0.5-0.2-0.8v-0.1
					c0.2-0.3,0.5-0.4,0.8-0.2C105.6,231,105.7,231.2,105.7,231.4z M103.7,234.7c0,0.1,0,0.2-0.1,0.3c-0.2,0.3-0.5,0.4-0.8,0.2
					s-0.4-0.5-0.2-0.8v-0.1c0.2-0.3,0.5-0.4,0.8-0.2C103.6,234.3,103.7,234.5,103.7,234.7z M101.6,238c0,0.1,0,0.2-0.1,0.3v0.1
					c-0.2,0.3-0.5,0.4-0.8,0.2s-0.4-0.5-0.2-0.8v-0.1c0.2-0.3,0.5-0.4,0.8-0.2C101.5,237.6,101.6,237.8,101.6,238z M99.6,241.3
					c0,0.1,0,0.2-0.1,0.3c-0.2,0.3-0.5,0.4-0.8,0.2s-0.4-0.5-0.2-0.8v-0.1c0.2-0.3,0.5-0.4,0.8-0.2
					C99.5,240.9,99.6,241.1,99.6,241.3z M97.5,244.6c0,0.1,0,0.2-0.1,0.3c-0.2,0.3-0.5,0.4-0.8,0.2s-0.4-0.5-0.2-0.8v-0.1
					c0.2-0.3,0.5-0.4,0.8-0.2C97.4,244.2,97.5,244.4,97.5,244.6z M95.5,247.9c0,0.1,0,0.2-0.1,0.3c-0.2,0.3-0.5,0.4-0.8,0.2
					s-0.4-0.5-0.2-0.8v-0.1c0.2-0.3,0.5-0.4,0.8-0.2C95.4,247.5,95.5,247.7,95.5,247.9z M93.4,251.2c0,0.1,0,0.2-0.1,0.3
					c-0.2,0.3-0.5,0.4-0.8,0.2s-0.4-0.5-0.2-0.8v-0.1c0.2-0.3,0.5-0.4,0.8-0.2C93.3,250.9,93.4,251,93.4,251.2z M91.4,254.5
					c0,0.1,0,0.2-0.1,0.3v0.1c-0.2,0.3-0.5,0.4-0.8,0.2s-0.4-0.5-0.2-0.8v-0.1c0.2-0.3,0.5-0.4,0.8-0.2
					C91.3,254.2,91.4,254.3,91.4,254.5z M89.3,257.9c0,0.1,0,0.2-0.1,0.3c-0.2,0.3-0.5,0.4-0.8,0.2c-0.3-0.2-0.4-0.5-0.2-0.8v-0.1
					c0.2-0.3,0.5-0.4,0.8-0.2C89.3,257.5,89.3,257.7,89.3,257.9z M87.3,261.2c0,0.1,0,0.2-0.1,0.3v0.1c-0.2,0.3-0.5,0.4-0.8,0.2
					c-0.3-0.2-0.4-0.5-0.2-0.8v-0.1c0.2-0.3,0.5-0.4,0.8-0.2C87.2,260.8,87.3,261,87.3,261.2z M85.3,264.5c0,0.1,0,0.2-0.1,0.3
					c-0.2,0.3-0.5,0.4-0.8,0.2c-0.3-0.2-0.4-0.5-0.2-0.8v-0.1c0.2-0.3,0.5-0.4,0.8-0.2C85.2,264.1,85.3,264.3,85.3,264.5z
					 M83.2,267.8c0,0.1,0,0.2-0.1,0.3c-0.2,0.3-0.5,0.4-0.8,0.2c-0.3-0.2-0.4-0.5-0.2-0.8v-0.1c0.2-0.3,0.5-0.4,0.8-0.2
					C83.1,267.4,83.2,267.6,83.2,267.8z M81.2,271.1c0,0.1,0,0.2-0.1,0.3c-0.2,0.3-0.5,0.4-0.8,0.2c-0.3-0.2-0.4-0.5-0.2-0.8v-0.1
					c0.2-0.3,0.5-0.4,0.8-0.2C81.1,270.7,81.2,270.9,81.2,271.1z M79.1,274.4c0,0.1,0,0.2-0.1,0.3c-0.2,0.3-0.5,0.4-0.8,0.2
					c-0.3-0.2-0.4-0.5-0.2-0.8V274c0.2-0.3,0.5-0.4,0.8-0.2C79,274,79.1,274.2,79.1,274.4z M77.1,277.7c0,0.1,0,0.2-0.1,0.3
					c-0.2,0.3-0.5,0.4-0.8,0.2c-0.3-0.2-0.4-0.5-0.2-0.8v-0.1c0.2-0.3,0.5-0.4,0.8-0.2C77,277.3,77.1,277.5,77.1,277.7z M75,281
					c0,0.1,0,0.2-0.1,0.3c-0.2,0.3-0.5,0.4-0.8,0.2c-0.3-0.2-0.4-0.5-0.2-0.8v-0.1c0.2-0.3,0.5-0.4,0.8-0.2
					C74.9,280.6,75,280.8,75,281z M73,284.3c0,0.1,0,0.2-0.1,0.3v0.1c-0.2,0.3-0.5,0.4-0.8,0.2c-0.3-0.2-0.4-0.5-0.2-0.8V284
					c0.2-0.3,0.5-0.4,0.8-0.2C72.9,283.9,73,284.1,73,284.3z M70.9,287.6c0,0.1,0,0.2-0.1,0.3c-0.2,0.3-0.5,0.4-0.8,0.2
					s-0.4-0.5-0.2-0.8v-0.1c0.2-0.3,0.5-0.4,0.8-0.2C70.8,287.3,70.9,287.4,70.9,287.6z M68.9,290.9c0,0.1,0,0.2-0.1,0.3v0.1
					c-0.2,0.3-0.5,0.4-0.8,0.2s-0.4-0.5-0.2-0.8v-0.1c0.2-0.3,0.5-0.4,0.8-0.2C68.8,290.6,68.9,290.8,68.9,290.9z M66.8,294.3
					c0,0.1,0,0.2-0.1,0.3c-0.2,0.3-0.5,0.4-0.8,0.2c-0.3-0.2-0.4-0.5-0.2-0.8v-0.1c0.2-0.3,0.5-0.4,0.8-0.2
					C66.8,293.9,66.8,294.1,66.8,294.3z M64.8,297.6c0,0.1,0,0.2-0.1,0.3v0.1c-0.2,0.3-0.5,0.4-0.8,0.2c-0.3-0.2-0.4-0.5-0.2-0.8
					v-0.1c0.2-0.3,0.5-0.4,0.8-0.2C64.7,297.2,64.8,297.4,64.8,297.6z M62.8,300.9c0,0.1,0,0.2-0.1,0.3v0.1
					c-0.2,0.3-0.5,0.4-0.8,0.2s-0.4-0.5-0.2-0.8v-0.1c0.2-0.3,0.5-0.4,0.8-0.2C62.7,300.5,62.8,300.7,62.8,300.9z M60.7,304.2
					c0,0.1,0,0.2-0.1,0.3v0.1c-0.2,0.3-0.5,0.4-0.8,0.2c-0.3-0.2-0.4-0.5-0.2-0.8v-0.1c0.2-0.3,0.5-0.4,0.8-0.2
					C60.6,303.8,60.7,304,60.7,304.2z M58.7,307.5c0,0.1,0,0.2-0.1,0.3c-0.2,0.3-0.5,0.4-0.8,0.2c-0.3-0.2-0.4-0.5-0.2-0.8v-0.1
					c0.2-0.3,0.5-0.4,0.8-0.2C58.6,307.1,58.7,307.3,58.7,307.5z M56.6,310.8c0,0.1,0,0.2-0.1,0.3c-0.2,0.3-0.5,0.4-0.8,0.2
					c-0.3-0.2-0.4-0.5-0.2-0.8v-0.1c0.2-0.3,0.5-0.4,0.8-0.2C56.5,310.4,56.6,310.6,56.6,310.8z M54.6,314.1c0,0.1,0,0.2-0.1,0.3
					c-0.2,0.3-0.5,0.4-0.8,0.2s-0.4-0.5-0.2-0.8v-0.1c0.2-0.3,0.5-0.4,0.8-0.2C54.5,313.7,54.6,313.9,54.6,314.1z M52.5,317.4
					c0,0.1,0,0.2-0.1,0.3v0.1c-0.2,0.3-0.5,0.4-0.8,0.2s-0.4-0.5-0.2-0.8v-0.1c0.2-0.3,0.5-0.4,0.8-0.2
					C52.4,317,52.5,317.2,52.5,317.4z M50.5,320.7c0,0.1,0,0.2-0.1,0.3v0.1c-0.2,0.3-0.5,0.4-0.8,0.2c-0.3-0.2-0.4-0.5-0.2-0.8v-0.1
					c0.2-0.3,0.5-0.4,0.8-0.2C50.4,320.4,50.5,320.5,50.5,320.7z M48.4,324c0,0.1,0,0.2-0.1,0.3v0.1c-0.2,0.3-0.5,0.4-0.8,0.2
					s-0.4-0.5-0.2-0.8v-0.1c0.2-0.3,0.5-0.4,0.8-0.2C48.3,323.7,48.4,323.9,48.4,324z M46.4,327.4c0,0.1,0,0.2-0.1,0.3v0.1
					c-0.2,0.3-0.5,0.4-0.8,0.2s-0.4-0.5-0.2-0.8v-0.1c0.2-0.3,0.5-0.4,0.8-0.2C46.3,327,46.4,327.2,46.4,327.4z M44.3,330.7
					c0,0.1,0,0.2-0.1,0.3c-0.2,0.3-0.5,0.4-0.8,0.2c-0.3-0.2-0.4-0.5-0.2-0.8v-0.1c0.2-0.3,0.5-0.4,0.8-0.2
					C44.3,330.3,44.3,330.5,44.3,330.7z M42.3,334c0,0.1,0,0.2-0.1,0.3c-0.2,0.3-0.5,0.4-0.8,0.2c-0.3-0.2-0.4-0.5-0.2-0.8v-0.1
					c0.2-0.3,0.5-0.4,0.8-0.2C42.2,333.6,42.3,333.8,42.3,334z M40.3,337.3c0,0.1,0,0.2-0.1,0.3c-0.2,0.3-0.5,0.4-0.8,0.2
					c-0.3-0.2-0.4-0.5-0.2-0.8v-0.1c0.2-0.3,0.5-0.4,0.8-0.2C40.2,336.9,40.3,337.1,40.3,337.3z M38.2,340.6c0,0.1,0,0.2-0.1,0.3
					c-0.2,0.3-0.5,0.4-0.8,0.2c-0.3-0.2-0.4-0.5-0.2-0.8v-0.1c0.2-0.3,0.5-0.4,0.8-0.2C38.1,340.2,38.2,340.4,38.2,340.6z
					 M36.2,343.9c0,0.1,0,0.2-0.1,0.3v0.1c-0.2,0.3-0.5,0.4-0.8,0.2s-0.4-0.5-0.2-0.8v-0.1c0.2-0.3,0.5-0.4,0.8-0.2
					C36.1,343.5,36.2,343.7,36.2,343.9z M34.1,347.2c0,0.1,0,0.2-0.1,0.3v0.1c-0.2,0.3-0.5,0.4-0.8,0.2c-0.3-0.2-0.4-0.5-0.2-0.8
					v-0.1c0.2-0.3,0.5-0.4,0.8-0.2C34,346.8,34.1,347,34.1,347.2z M32.1,350.5c0,0.1,0,0.2-0.1,0.3v0.1c-0.2,0.3-0.6,0.3-0.8,0.2
					c-0.3-0.2-0.4-0.5-0.2-0.8v-0.1c0.2-0.3,0.5-0.4,0.8-0.2C32,350.1,32.1,350.3,32.1,350.5z M30,353.8c0,0.1,0,0.2-0.1,0.3v0.1
					c-0.2,0.3-0.5,0.4-0.8,0.2s-0.4-0.5-0.2-0.8v-0.1c0.2-0.3,0.5-0.4,0.8-0.2C29.9,353.5,30,353.6,30,353.8z M28,357.1
					c0,0.1,0,0.2-0.1,0.3c-0.2,0.3-0.5,0.4-0.8,0.2c-0.3-0.2-0.4-0.5-0.2-0.8v-0.1c0.2-0.3,0.5-0.4,0.8-0.2
					C27.9,356.8,28,357,28,357.1z M25.9,360.5c0,0.1,0,0.2-0.1,0.3c-0.2,0.3-0.5,0.4-0.8,0.2s-0.4-0.5-0.2-0.8v-0.1
					c0.2-0.3,0.5-0.4,0.8-0.2C25.8,360.1,25.9,360.3,25.9,360.5z M23.9,363.8c0,0.1,0,0.2-0.1,0.3c-0.2,0.3-0.5,0.4-0.8,0.2
					c-0.3-0.2-0.4-0.5-0.2-0.8v-0.1c0.2-0.3,0.5-0.4,0.8-0.2C23.8,363.4,23.9,363.6,23.9,363.8z M21.8,367.1c0,0.1,0,0.2-0.1,0.3
					c-0.2,0.3-0.5,0.4-0.8,0.2c-0.3-0.2-0.4-0.5-0.2-0.8v-0.1c0.2-0.3,0.5-0.4,0.8-0.2C21.8,366.7,21.8,366.9,21.8,367.1z
					 M19.8,370.4c0,0.1,0,0.2-0.1,0.3v0.1c-0.2,0.3-0.5,0.4-0.8,0.2s-0.4-0.5-0.2-0.8v-0.1c0.2-0.3,0.5-0.4,0.8-0.2
					C19.7,370,19.8,370.2,19.8,370.4z M17.8,373.7c0,0.1,0,0.2-0.1,0.3v0.1c-0.2,0.3-0.5,0.4-0.8,0.2c-0.3-0.2-0.4-0.5-0.2-0.8v-0.1
					c0.2-0.3,0.5-0.4,0.8-0.2C17.7,373.3,17.8,373.5,17.8,373.7z M15.7,377c0,0.1,0,0.2-0.1,0.3v0.1c-0.2,0.3-0.5,0.4-0.8,0.2
					c-0.3-0.2-0.4-0.5-0.2-0.8v-0.1c0.2-0.3,0.5-0.4,0.8-0.2C15.6,376.6,15.7,376.8,15.7,377z M13.7,380.3c0,0.1,0,0.2-0.1,0.3v0.1
					c-0.2,0.3-0.5,0.4-0.8,0.2c-0.3-0.2-0.4-0.5-0.2-0.8V380c0.2-0.3,0.5-0.4,0.8-0.2C13.6,379.9,13.7,380.1,13.7,380.3z
					 M11.6,383.6c0,0.1,0,0.2-0.1,0.3c-0.2,0.3-0.5,0.4-0.8,0.2c-0.3-0.2-0.4-0.5-0.2-0.8v-0.1c0.2-0.3,0.5-0.4,0.8-0.2
					C11.5,383.2,11.6,383.4,11.6,383.6z M9.6,386.9c0,0.1,0,0.2-0.1,0.3c-0.2,0.3-0.5,0.4-0.8,0.2c-0.3-0.2-0.4-0.5-0.2-0.8v-0.1
					c0.2-0.3,0.5-0.4,0.8-0.2C9.5,386.6,9.6,386.7,9.6,386.9z M7.5,390.2c0,0.1,0,0.2-0.1,0.3c-0.1,0.3-0.5,0.4-0.8,0.3
					c-0.3-0.2-0.4-0.5-0.2-0.8v-0.1c0.2-0.3,0.5-0.4,0.8-0.2C7.4,389.9,7.5,390,7.5,390.2z M5.5,393.5c0,0.1,0,0.2-0.1,0.3
					c-0.2,0.3-0.5,0.4-0.8,0.3c-0.3-0.2-0.4-0.5-0.2-0.8v-0.1c0.2-0.3,0.5-0.4,0.8-0.2C5.4,393.2,5.5,393.4,5.5,393.5z M3.4,396.9
					c0,0.1,0,0.2-0.1,0.3l0,0c-0.2,0.3-0.5,0.4-0.8,0.2c-0.2-0.2-0.3-0.5-0.2-0.8v-0.1c0.2-0.2,0.6-0.3,0.9-0.1
					C3.3,396.5,3.4,396.7,3.4,396.9z"/>
				<path class="st3" d="M248.9-0.3c0,0.1,0,0.2-0.1,0.3c-0.2,0.3-0.5,0.4-0.8,0.2c-0.3-0.2-0.4-0.5-0.2-0.8l0,0
					c0.2-0.3,0.5-0.4,0.8-0.2C248.8-0.7,248.9-0.6,248.9-0.3z"/>
			</g>
			<path class="st3" d="M245.9,150.8c0,0.1,0,0.2-0.1,0.3c-0.2,0.3-0.5,0.4-0.8,0.2s-0.4-0.5-0.2-0.8s0.5-0.4,0.8-0.2h0.1
				C245.8,150.4,245.9,150.6,245.9,150.8z M242.6,148.8c0,0.1,0,0.2-0.1,0.3c-0.2,0.3-0.5,0.4-0.8,0.2s-0.4-0.5-0.2-0.8
				s0.5-0.4,0.8-0.2h0.1C242.5,148.4,242.6,148.6,242.6,148.8z M239.3,146.7c0,0.1,0,0.2-0.1,0.3c-0.2,0.3-0.5,0.4-0.8,0.2
				s-0.4-0.5-0.2-0.8s0.5-0.4,0.8-0.2h0.1C239.2,146.4,239.3,146.6,239.3,146.7z M236,144.7c0,0.1,0,0.2-0.1,0.3
				c-0.2,0.3-0.5,0.4-0.8,0.2s-0.4-0.5-0.2-0.8s0.5-0.4,0.8-0.2h0.1C235.9,144.3,236,144.5,236,144.7z M232.6,142.7
				c0,0.1,0,0.2-0.1,0.3c-0.2,0.3-0.5,0.4-0.8,0.2c-0.3-0.2-0.4-0.5-0.2-0.8s0.5-0.4,0.8-0.2h0.1
				C232.6,142.3,232.6,142.4,232.6,142.7z M229.3,140.6c0,0.1,0,0.2-0.1,0.3c-0.2,0.3-0.5,0.4-0.8,0.2c-0.3-0.2-0.4-0.5-0.2-0.8
				s0.5-0.4,0.8-0.2h0.1C229.3,140.2,229.3,140.4,229.3,140.6z M226,138.6c0,0.1,0,0.2-0.1,0.3c-0.2,0.3-0.5,0.4-0.8,0.2
				c-0.3-0.2-0.4-0.5-0.2-0.8s0.5-0.4,0.8-0.2h0.1C225.9,138.2,226,138.4,226,138.6z M222.7,136.4c0,0.1,0,0.2-0.1,0.3
				c-0.2,0.3-0.5,0.4-0.8,0.2c-0.3-0.2-0.4-0.5-0.2-0.8s0.5-0.4,0.8-0.2h0.1C222.6,136.2,222.7,136.3,222.7,136.4z M219.4,134.4
				c0,0.1,0,0.2-0.1,0.3c-0.2,0.3-0.5,0.4-0.8,0.2c-0.3-0.2-0.4-0.5-0.2-0.8s0.5-0.4,0.8-0.2h0.1
				C219.3,134.1,219.4,134.3,219.4,134.4z M216.1,132.4c0,0.1,0,0.2-0.1,0.3c-0.2,0.3-0.5,0.4-0.8,0.2c-0.3-0.2-0.4-0.5-0.2-0.8
				s0.5-0.4,0.8-0.2h0.1C216,132.1,216.1,132.3,216.1,132.4z M212.8,130.4c0,0.1,0,0.2-0.1,0.3c-0.2,0.3-0.5,0.4-0.8,0.2
				c-0.3-0.2-0.4-0.5-0.2-0.8s0.5-0.4,0.8-0.2h0.1C212.7,129.9,212.8,130.2,212.8,130.4z M209.5,128.4c0,0.1,0,0.2-0.1,0.3
				c-0.2,0.3-0.5,0.4-0.8,0.2c-0.3-0.2-0.4-0.5-0.2-0.8s0.5-0.4,0.8-0.2h0.1C209.4,127.9,209.5,128.2,209.5,128.4z M206.2,126.3
				c0,0.1,0,0.2-0.1,0.3c-0.2,0.3-0.5,0.4-0.8,0.2c-0.3-0.2-0.4-0.5-0.2-0.8s0.5-0.4,0.8-0.2h0.1
				C206.1,125.9,206.2,126.1,206.2,126.3z M202.9,124.3c0,0.1,0,0.2-0.1,0.3c-0.2,0.3-0.5,0.4-0.8,0.2c-0.3-0.2-0.4-0.5-0.2-0.8
				s0.5-0.4,0.8-0.2h0.1C202.8,123.9,202.9,124.1,202.9,124.3z M199.6,122.2c0,0.1,0,0.2-0.1,0.3c-0.2,0.3-0.5,0.4-0.8,0.2
				c-0.3-0.2-0.4-0.5-0.2-0.8s0.5-0.4,0.8-0.2h0.1C199.5,121.9,199.6,122.1,199.6,122.2z M196.3,120.2c0,0.1,0,0.2-0.1,0.3
				c-0.2,0.3-0.5,0.4-0.8,0.2c-0.3-0.2-0.4-0.5-0.2-0.8s0.5-0.4,0.8-0.2h0.1C196.2,119.8,196.3,119.9,196.3,120.2z M193,118.2
				c0,0.1,0,0.2-0.1,0.3c-0.2,0.3-0.5,0.4-0.8,0.2c-0.3-0.2-0.4-0.5-0.2-0.8s0.5-0.4,0.8-0.2h0.1C192.9,117.8,193,117.9,193,118.2z
				 M189.7,116.1c0,0.1,0,0.2-0.1,0.3c-0.2,0.3-0.5,0.4-0.8,0.2c-0.3-0.2-0.4-0.5-0.2-0.8s0.5-0.4,0.8-0.2h0.1
				C189.6,115.7,189.7,115.9,189.7,116.1z M186.4,114.1c0,0.1,0,0.2-0.1,0.3c-0.2,0.3-0.5,0.4-0.8,0.2c-0.3-0.2-0.4-0.5-0.2-0.8
				s0.5-0.4,0.8-0.2h0.1C186.3,113.7,186.4,113.9,186.4,114.1z M183.1,111.9c0,0.1,0,0.2-0.1,0.3c-0.2,0.3-0.5,0.4-0.8,0.2
				c-0.3-0.2-0.4-0.5-0.2-0.8s0.5-0.4,0.8-0.2h0.1C183,111.7,183.1,111.8,183.1,111.9z M179.8,109.9c0,0.1,0,0.2-0.1,0.3
				c-0.2,0.3-0.5,0.4-0.8,0.2c-0.3-0.2-0.4-0.5-0.2-0.8s0.5-0.4,0.8-0.2h0.1C179.7,109.6,179.8,109.8,179.8,109.9z M176.5,107.9
				c0,0.1,0,0.2-0.1,0.3c-0.2,0.3-0.5,0.4-0.8,0.2c-0.3-0.2-0.4-0.5-0.2-0.8s0.5-0.4,0.8-0.2h0.1
				C176.4,107.6,176.5,107.8,176.5,107.9z M173.2,105.9c0,0.1,0,0.2-0.1,0.3c-0.2,0.3-0.5,0.4-0.8,0.2c-0.3-0.2-0.4-0.5-0.2-0.8
				s0.5-0.4,0.8-0.2h0.1C173.1,105.4,173.2,105.7,173.2,105.9z M169.9,103.9c0,0.1,0,0.2-0.1,0.3c-0.2,0.3-0.5,0.4-0.8,0.2
				c-0.3-0.2-0.4-0.5-0.2-0.8s0.5-0.4,0.8-0.2h0.1C169.8,103.4,169.9,103.7,169.9,103.9z M166.6,101.8c0,0.1,0,0.2-0.1,0.3
				c-0.2,0.3-0.5,0.4-0.8,0.2c-0.3-0.2-0.4-0.5-0.2-0.8s0.5-0.4,0.8-0.2h0.1C166.5,101.4,166.6,101.6,166.6,101.8z M163.3,99.8
				c0,0.1,0,0.2-0.1,0.3c-0.2,0.3-0.5,0.4-0.8,0.2c-0.3-0.2-0.4-0.5-0.2-0.8s0.5-0.4,0.8-0.2h0.1C163.2,99.4,163.3,99.6,163.3,99.8z
				 M160,97.8c0,0.1,0,0.2-0.1,0.3c-0.2,0.3-0.5,0.4-0.8,0.2c-0.3-0.2-0.4-0.5-0.2-0.8s0.5-0.4,0.8-0.2h0.1
				C159.9,97.4,160,97.6,160,97.8z M156.7,95.7c0,0.1,0,0.2-0.1,0.3c-0.2,0.3-0.5,0.4-0.8,0.2c-0.3-0.2-0.4-0.5-0.2-0.8
				s0.5-0.4,0.8-0.2h0.1C156.6,95.3,156.7,95.4,156.7,95.7z M153.4,93.7c0,0.1,0,0.2-0.1,0.3c-0.2,0.3-0.5,0.4-0.8,0.2
				c-0.3-0.2-0.4-0.5-0.2-0.8s0.5-0.4,0.8-0.2h0.1C153.3,93.3,153.4,93.4,153.4,93.7z M150.1,91.6c0,0.1,0,0.2-0.1,0.3
				c-0.2,0.3-0.5,0.4-0.8,0.2c-0.3-0.2-0.4-0.5-0.2-0.8s0.5-0.4,0.8-0.2h0.1C150,91.2,150.1,91.4,150.1,91.6z M146.8,89.6
				c0,0.1,0,0.2-0.1,0.3c-0.2,0.3-0.5,0.4-0.8,0.2c-0.3-0.2-0.4-0.5-0.2-0.8s0.5-0.4,0.8-0.2h0.1C146.7,89.2,146.8,89.4,146.8,89.6z
				 M143.5,87.4c0,0.1,0,0.2-0.1,0.3c-0.2,0.3-0.5,0.4-0.8,0.2h-0.1c-0.3-0.2-0.4-0.5-0.2-0.8s0.5-0.4,0.8-0.2h0.1
				C143.4,87.2,143.5,87.4,143.5,87.4z M140.2,85.4c0,0.1,0,0.2-0.1,0.3c-0.2,0.3-0.5,0.4-0.8,0.2c-0.3-0.2-0.4-0.5-0.2-0.8
				s0.5-0.4,0.8-0.2h0.1C140.1,85.1,140.2,85.3,140.2,85.4z M136.9,83.4c0,0.1,0,0.2-0.1,0.3c-0.2,0.3-0.5,0.4-0.8,0.2
				c-0.3-0.2-0.4-0.5-0.2-0.8s0.5-0.4,0.8-0.2h0.1C136.8,83.1,136.9,83.3,136.9,83.4z M133.6,81.4c0,0.1,0,0.2-0.1,0.3
				c-0.2,0.3-0.5,0.4-0.8,0.2c-0.3-0.2-0.4-0.5-0.2-0.8s0.5-0.4,0.8-0.2h0.1C133.5,80.9,133.6,81.2,133.6,81.4z M130.3,79.4
				c0,0.1,0,0.2-0.1,0.3c-0.2,0.3-0.5,0.4-0.8,0.2c-0.3-0.2-0.4-0.5-0.2-0.8s0.5-0.4,0.8-0.2h0.1C130.2,78.9,130.3,79.2,130.3,79.4z
				 M127,77.3c0,0.1,0,0.2-0.1,0.3c-0.2,0.3-0.5,0.4-0.8,0.2c-0.3-0.2-0.4-0.5-0.2-0.8c0.2-0.3,0.5-0.4,0.8-0.2h0.1
				C126.9,76.9,127,77.1,127,77.3z M123.7,75.3c0,0.1,0,0.2-0.1,0.3c-0.2,0.3-0.5,0.4-0.8,0.2c-0.3-0.2-0.4-0.5-0.2-0.8
				c0.2-0.3,0.5-0.4,0.8-0.2h0.1C123.6,74.9,123.7,75.1,123.7,75.3z M120.3,73.3c0,0.1,0,0.2-0.1,0.3c-0.2,0.3-0.5,0.4-0.8,0.2h-0.1
				c-0.3-0.2-0.4-0.5-0.2-0.8c0.2-0.3,0.5-0.4,0.8-0.2h0.1C120.3,72.9,120.3,73.1,120.3,73.3z M117,71.2c0,0.1,0,0.2-0.1,0.3
				c-0.2,0.3-0.5,0.4-0.8,0.2c-0.3-0.2-0.4-0.5-0.2-0.8c0.2-0.3,0.5-0.4,0.8-0.2h0.1C116.9,70.8,117,70.9,117,71.2z M113.7,69.2
				c0,0.1,0,0.2-0.1,0.3c-0.2,0.3-0.5,0.4-0.8,0.2c-0.3-0.2-0.4-0.5-0.2-0.8c0.2-0.3,0.5-0.4,0.8-0.2h0.1
				C113.6,68.8,113.7,68.9,113.7,69.2z M110.4,67.1c0,0.1,0,0.2-0.1,0.3c-0.2,0.3-0.5,0.4-0.8,0.2c-0.3-0.2-0.4-0.5-0.2-0.8
				c0.2-0.3,0.5-0.4,0.8-0.2h0.1C110.3,66.7,110.4,66.9,110.4,67.1z M107.1,65.1c0,0.1,0,0.2-0.1,0.3c-0.2,0.3-0.5,0.4-0.8,0.2
				c-0.3-0.2-0.4-0.5-0.2-0.8c0.2-0.3,0.5-0.4,0.8-0.2h0.1C107,64.7,107.1,64.9,107.1,65.1z M103.8,62.9c0,0.1,0,0.2-0.1,0.3
				c-0.2,0.3-0.5,0.4-0.8,0.2c-0.3-0.2-0.4-0.5-0.2-0.8c0.2-0.3,0.5-0.4,0.8-0.2h0.1C103.7,62.7,103.8,62.9,103.8,62.9z M100.5,60.9
				c0,0.1,0,0.2-0.1,0.3c-0.2,0.3-0.5,0.4-0.8,0.2c-0.3-0.2-0.4-0.5-0.2-0.8c0.2-0.3,0.5-0.4,0.8-0.2h0.1
				C100.4,60.6,100.5,60.8,100.5,60.9z M97.2,58.9c0,0.1,0,0.2-0.1,0.3c-0.2,0.3-0.5,0.4-0.8,0.2c-0.3-0.2-0.4-0.5-0.2-0.8
				c0.2-0.3,0.5-0.4,0.8-0.2H97C97.1,58.6,97.2,58.8,97.2,58.9z M93.9,56.9c0,0.1,0,0.2-0.1,0.3c-0.2,0.3-0.5,0.4-0.8,0.2
				c-0.3-0.2-0.4-0.5-0.2-0.8c0.2-0.3,0.5-0.4,0.8-0.2h0.1C93.8,56.4,93.9,56.7,93.9,56.9z M90.6,54.9c0,0.1,0,0.2-0.1,0.3
				c-0.2,0.3-0.5,0.4-0.8,0.2c-0.3-0.2-0.4-0.5-0.2-0.8c0.2-0.3,0.5-0.4,0.8-0.2h0.1C90.5,54.4,90.6,54.7,90.6,54.9z M87.3,52.8
				c0,0.1,0,0.2-0.1,0.3c-0.2,0.3-0.5,0.4-0.8,0.2h-0.1c-0.3-0.2-0.4-0.5-0.2-0.8c0.2-0.3,0.5-0.4,0.8-0.2H87
				C87.2,52.4,87.3,52.6,87.3,52.8z M84,50.8c0,0.1,0,0.2-0.1,0.3c-0.2,0.3-0.5,0.4-0.8,0.2c-0.3-0.2-0.4-0.5-0.2-0.8
				c0.2-0.3,0.5-0.4,0.8-0.2h0.1C83.9,50.4,84,50.6,84,50.8z M80.7,48.8c0,0.1,0,0.2-0.1,0.3c-0.2,0.3-0.5,0.4-0.8,0.2
				c-0.3-0.2-0.4-0.5-0.2-0.8c0.2-0.3,0.5-0.4,0.8-0.2h0.1C80.6,48.4,80.7,48.6,80.7,48.8z M77.4,46.7c0,0.1,0,0.2-0.1,0.3
				c-0.2,0.3-0.5,0.4-0.8,0.2c-0.3-0.2-0.4-0.5-0.2-0.8c0.2-0.3,0.5-0.4,0.8-0.2h0.1C77.3,46.3,77.4,46.4,77.4,46.7z M74.1,44.7
				c0,0.1,0,0.2-0.1,0.3c-0.2,0.3-0.5,0.4-0.8,0.2c-0.3-0.2-0.4-0.5-0.2-0.8c0.2-0.3,0.5-0.4,0.8-0.2h0.1
				C74,44.3,74.1,44.4,74.1,44.7z M70.8,42.6c0,0.1,0,0.2-0.1,0.3c-0.2,0.3-0.5,0.4-0.8,0.2c-0.3-0.2-0.4-0.5-0.2-0.8
				c0.2-0.3,0.5-0.4,0.8-0.2h0.1C70.7,42.3,70.8,42.4,70.8,42.6z M67.5,40.6c0,0.1,0,0.2-0.1,0.3c-0.2,0.3-0.5,0.4-0.8,0.2
				c-0.3-0.2-0.4-0.5-0.2-0.8c0.2-0.3,0.5-0.4,0.8-0.2h0.1C67.4,40.2,67.5,40.4,67.5,40.6z M64.2,38.6c0,0.1,0,0.2-0.1,0.3
				c-0.2,0.3-0.5,0.4-0.8,0.2h-0.1c-0.3-0.2-0.4-0.5-0.2-0.8s0.5-0.4,0.8-0.2h0.1C64.1,38.2,64.2,38.4,64.2,38.6z M60.9,36.4
				c0,0.1,0,0.2-0.1,0.3c-0.2,0.3-0.5,0.4-0.8,0.2c-0.3-0.2-0.4-0.5-0.2-0.8s0.5-0.4,0.8-0.2h0.1C60.8,36.1,60.9,36.3,60.9,36.4z
				 M57.6,34.4c0,0.1,0,0.2-0.1,0.3c-0.2,0.3-0.5,0.4-0.8,0.2c-0.3-0.2-0.4-0.5-0.2-0.8s0.5-0.4,0.8-0.2h0.1
				C57.5,34.1,57.6,34.3,57.6,34.4z M54.3,32.4c0,0.1,0,0.2-0.1,0.3c-0.2,0.3-0.5,0.4-0.8,0.2c-0.3-0.2-0.4-0.5-0.2-0.8
				s0.5-0.4,0.8-0.2h0.1C54.2,31.9,54.3,32.2,54.3,32.4z M51,30.4c0,0.1,0,0.2-0.1,0.3c-0.2,0.3-0.5,0.4-0.8,0.2
				c-0.3-0.2-0.4-0.5-0.2-0.8s0.5-0.4,0.8-0.2h0.1C50.9,29.9,51,30.2,51,30.4z M47.7,28.3c0,0.1,0,0.2-0.1,0.3
				c-0.2,0.3-0.5,0.4-0.8,0.2c-0.3-0.2-0.4-0.5-0.2-0.8s0.5-0.4,0.8-0.2h0.1C47.6,27.9,47.7,28.2,47.7,28.3z M44.4,26.3
				c0,0.1,0,0.2-0.1,0.3c-0.2,0.3-0.5,0.4-0.8,0.2c-0.3-0.2-0.4-0.5-0.2-0.8s0.5-0.4,0.8-0.2h0.1C44.3,25.9,44.4,26.1,44.4,26.3z
				 M41.1,24.3c0,0.1,0,0.2-0.1,0.3c-0.2,0.3-0.5,0.4-0.8,0.2h-0.1c-0.3-0.2-0.4-0.5-0.2-0.8s0.5-0.4,0.8-0.2h0.1
				C41,23.9,41.1,24.1,41.1,24.3z M37.8,22.2c0,0.1,0,0.2-0.1,0.3c-0.2,0.3-0.5,0.4-0.8,0.2c-0.3-0.2-0.4-0.5-0.2-0.8
				s0.5-0.4,0.8-0.2h0.1C37.7,21.8,37.8,21.9,37.8,22.2z M34.5,20.2c0,0.1,0,0.2-0.1,0.3c-0.2,0.3-0.5,0.4-0.8,0.2
				c-0.3-0.2-0.4-0.5-0.2-0.8s0.5-0.4,0.8-0.2h0.1C34.4,19.8,34.5,19.9,34.5,20.2z M31.2,18.1c0,0.1,0,0.2-0.1,0.3
				c-0.2,0.3-0.5,0.4-0.8,0.2c-0.3-0.2-0.4-0.5-0.2-0.8c0.2-0.3,0.5-0.4,0.8-0.2H31C31.1,17.8,31.2,17.9,31.2,18.1z M27.9,16.1
				c0,0.1,0,0.2-0.1,0.3c-0.2,0.3-0.5,0.4-0.8,0.2c-0.3-0.2-0.4-0.5-0.2-0.8c0.2-0.3,0.5-0.4,0.8-0.2h0.1
				C27.8,15.7,27.9,15.9,27.9,16.1z M24.6,14.1c0,0.1,0,0.2-0.1,0.3c-0.2,0.3-0.5,0.4-0.8,0.2c-0.3-0.2-0.4-0.5-0.2-0.8
				c0.2-0.3,0.5-0.4,0.8-0.2h0.1C24.5,13.7,24.6,13.9,24.6,14.1z M21.3,11.9c0,0.1,0,0.2-0.1,0.3c-0.2,0.3-0.5,0.4-0.8,0.2
				c-0.3-0.2-0.4-0.5-0.2-0.8c0.2-0.3,0.5-0.4,0.8-0.2h0.1C21.2,11.6,21.3,11.8,21.3,11.9z M18,9.9c0,0.1,0,0.2-0.1,0.3
				c-0.2,0.3-0.5,0.4-0.8,0.2H17c-0.3-0.2-0.4-0.5-0.2-0.8c0.2-0.3,0.5-0.4,0.8-0.2h0.1C17.9,9.6,18,9.8,18,9.9z M14.7,7.9
				c0,0.1,0,0.2-0.1,0.3c-0.2,0.3-0.5,0.4-0.8,0.2h-0.1c-0.3-0.2-0.4-0.5-0.2-0.8s0.5-0.4,0.8-0.2h0.1C14.6,7.6,14.7,7.7,14.7,7.9z
				 M11.3,5.9c0,0.1,0,0.2-0.1,0.3c-0.2,0.3-0.5,0.4-0.8,0.2c-0.3-0.2-0.4-0.5-0.2-0.8s0.5-0.4,0.8-0.2h0.1
				C11.3,5.4,11.3,5.7,11.3,5.9z M8,3.8C8,3.9,8,4,7.9,4.1C7.7,4.3,7.4,4.4,7.1,4.3C6.8,4.1,6.7,3.8,6.9,3.5
				c0.2-0.3,0.5-0.4,0.8-0.2h0.1C7.9,3.4,8,3.7,8,3.8z M4.7,1.8c0,0.1,0,0.2-0.1,0.3C4.4,2.3,4.1,2.4,3.8,2.3
				C3.5,2.1,3.4,1.8,3.6,1.5s0.5-0.4,0.8-0.2h0.1C4.6,1.4,4.7,1.6,4.7,1.8z M1.4-0.2c0,0.1,0,0.2-0.1,0.3C1.1,0.3,0.8,0.4,0.5,0.3
				C0.2,0.1,0.1-0.2,0.3-0.5s0.5-0.4,0.8-0.2h0.1C1.3-0.6,1.4-0.4,1.4-0.2z"/>
		</g>
		<g>
			<path class="st4" d="M249.1,400.2c0,0.4-0.3,0.8-0.8,0.8c-66.3,0-128.6-25.9-175.5-72.8C25.9,281.4,0,219,0,152.7
				C0,67.9,69-1.1,153.7-1.1c52.5,0,95.3,42.8,95.3,95.3l0,0l0,0c0,32.6-26.6,59.2-59.2,59.2H189c-20-0.4-36.1-16.8-36.1-36.9
				c0-12.7,10.4-23.1,23.1-23.1c8,0,14.6,6.5,14.6,14.6c0,5.1-4.2,9.3-9.3,9.3c-3.3,0-6-2.7-6-6c0-0.4,0.3-0.8,0.8-0.8
				c0.4,0,0.8,0.3,0.8,0.8c0,2.5,2,4.5,4.5,4.5c4.3,0,7.8-3.5,7.8-7.8c0-7.2-5.8-13-13-13c-11.9,0-21.6,9.7-21.6,21.6
				c0,9.4,3.7,18.3,10.4,25c6.7,6.7,15.6,10.4,25,10.4h0.5c31.6-0.3,57.2-26,57.2-57.7c0-51.7-42.1-93.8-93.8-93.8
				C69.8,0.4,1.6,68.8,1.6,152.7c0,136,110.7,246.7,246.7,246.7C248.7,399.4,249.1,399.8,249.1,400.2z"/>
		</g>
	</g>
	<g class="st0">
		<path class="st5" d="M-81.8,287c-3.8,0-5.8-1.8-5.8-5.3c0-1.6,0.4-2.8,1.2-3.8c0.8-0.9,2-1.4,3.5-1.4h0.1v2.7h-0.1
			c-0.7,0-1.2,0.2-1.6,0.6c-0.4,0.4-0.7,1-0.7,1.8c0,0.9,0.3,1.5,0.8,1.9s1.4,0.6,2.7,0.6h3.1c1.2,0,2-0.2,2.6-0.6
			c0.5-0.4,0.8-1.1,0.8-2c0-0.8-0.2-1.5-0.7-1.8c-0.4-0.4-1.1-0.6-2-0.6h-0.7v2.6h-2.3v-5.2h2.5c3.7,0,5.6,1.7,5.6,5.2
			s-1.9,5.3-5.8,5.3H-81.8z"/>
		<path class="st5" d="M-81.8,270.2c-3.8,0-5.8-1.8-5.8-5.3c0-1.6,0.5-2.9,1.4-3.8s2.4-1.4,4.4-1.4h3.3c2,0,3.5,0.5,4.4,1.4
			c0.9,1,1.4,2.3,1.4,3.9c0,3.5-1.9,5.2-5.8,5.2L-81.8,270.2L-81.8,270.2z M-78.5,262.4h-3.1c-1.2,0-2.1,0.2-2.7,0.6s-0.8,1-0.8,1.9
			s0.3,1.5,0.8,1.9s1.4,0.6,2.7,0.6h3.1c1.2,0,2-0.2,2.6-0.6c0.5-0.4,0.8-1,0.8-1.9c0-0.8-0.3-1.5-0.8-1.9
			C-76.5,262.6-77.3,262.4-78.5,262.4z"/>
		<path class="st5" d="M-87.3,250.7h12.1v-6.3h2.4v9.1h-14.5V250.7z"/>
		<path class="st5" d="M-87.3,233.3c0-1.6,0.4-2.9,1.3-3.8c0.9-0.9,2.4-1.4,4.4-1.4h3c2,0,3.5,0.5,4.4,1.4c0.9,1,1.4,2.2,1.4,3.9v5
			h-14.5C-87.3,238.4-87.3,233.3-87.3,233.3z M-76,231.4c-0.5-0.4-1.4-0.6-2.6-0.6h-2.8c-1.2,0-2.1,0.2-2.7,0.6
			c-0.6,0.4-0.8,1-0.8,1.9v2.3h9.7v-2.3C-75.2,232.5-75.5,231.8-76,231.4z"/>
		<path class="st5" d="M-81.3,219v-5.5h2.4v5.5h3.7v-6.4h2.4v9.2h-14.5v-9.2h2.4v6.4H-81.3z"/>
		<path class="st5" d="M-72.8,195.6v2.8l-9,5.3h9v2.8h-14.5v-2.8l9.1-5.3h-9.1v-2.8H-72.8z"/>
		<path class="st5" d="M-78.7,177.3h5.9v2.8h-14.5v-5.5c0-1.4,0.4-2.5,1.2-3.4c0.8-0.8,1.8-1.3,3.2-1.3c1,0,1.8,0.2,2.4,0.7
			c0.7,0.4,1.1,1.1,1.4,1.9l6.3-3.1v3.2l-5.9,2.8V177.3z M-81,174.7c0-0.6-0.2-1.1-0.5-1.5s-0.8-0.5-1.5-0.5c-0.6,0-1.1,0.2-1.4,0.5
			c-0.4,0.4-0.5,0.9-0.5,1.5v2.6h3.9V174.7z"/>
		<path class="st5" d="M-75.7,160.7l2.8,0.9v2.9l-14.5-5.1v-2.2l14.5-5.2v2.9l-2.8,0.9V160.7z M-83.5,158.2l5.6,1.7v-3.5
			L-83.5,158.2z"/>
		<path class="st5" d="M-84.9,142.3h12.1v2.8h-12.1v3.7h-2.4v-10.2h2.4V142.3z"/>
		<path class="st5" d="M-87.3,130.2h14.5v2.8h-14.5V130.2z"/>
		<path class="st5" d="M-81.8,123.6c-3.8,0-5.8-1.8-5.8-5.3c0-1.6,0.5-2.9,1.4-3.8s2.4-1.4,4.4-1.4h3.3c2,0,3.5,0.5,4.4,1.4
			c0.9,1,1.4,2.3,1.4,3.9c0,3.5-1.9,5.2-5.8,5.2L-81.8,123.6L-81.8,123.6z M-78.5,115.8h-3.1c-1.2,0-2.1,0.2-2.7,0.6s-0.8,1-0.8,1.9
			s0.3,1.5,0.8,1.9s1.4,0.6,2.7,0.6h3.1c1.2,0,2-0.2,2.6-0.6c0.5-0.4,0.8-1,0.8-1.9c0-0.8-0.3-1.5-0.8-1.9
			C-76.5,115.9-77.3,115.8-78.5,115.8z"/>
		<path class="st5" d="M-63.1,225.1l6.9-2.1l-6.9-2.1v-0.9l8.3,2.7v0.7l-8.3,2.7V225.1z"/>
		<path class="st5" d="M-59.4,215.6v-3.5h0.8v3.5h3v-4.1h0.8v5h-8.3v-5h0.8v4.1H-59.4z"/>
		<path class="st5" d="M-57.9,207.6H-60c-1.1,0-1.9-0.3-2.4-0.8s-0.8-1.2-0.8-2.1c0-0.6,0.1-1.1,0.3-1.5s0.5-0.8,0.9-1
			s0.8-0.3,1.3-0.3l0,0v0.9l0,0c-0.5,0-1,0.2-1.3,0.5s-0.5,0.8-0.5,1.4c0,0.7,0.2,1.2,0.6,1.5c0.4,0.3,1,0.5,1.8,0.5h2.2
			c1.5,0,2.3-0.7,2.3-2.1c0-0.6-0.2-1.1-0.5-1.4c-0.3-0.3-0.7-0.5-1.3-0.5l0,0v-0.9l0,0c0.8,0,1.4,0.3,1.8,0.8
			c0.5,0.5,0.7,1.2,0.7,2c0,0.9-0.3,1.6-0.8,2.1C-56,207.4-56.8,207.6-57.9,207.6z"/>
		<path class="st5" d="M-62.3,195.4h7.5v0.9h-7.5v2.4h-0.8V193h0.8V195.4z"/>
		<path class="st5" d="M-57.9,190.1H-60c-1.1,0-1.9-0.3-2.4-0.8s-0.8-1.2-0.8-2.1c0-0.9,0.3-1.6,0.8-2.1s1.3-0.8,2.4-0.8h2.1
			c1.1,0,1.9,0.3,2.4,0.8s0.8,1.2,0.8,2.1c0,0.9-0.3,1.6-0.8,2.1C-56,189.8-56.8,190.1-57.9,190.1z M-60,185.2c-1.6,0-2.4,0.7-2.4,2
			c0,0.7,0.2,1.2,0.6,1.5c0.4,0.3,1,0.5,1.8,0.5h2.2c0.8,0,1.4-0.2,1.8-0.5c0.4-0.3,0.6-0.8,0.6-1.5c0-1.3-0.8-2-2.3-2H-60z"/>
		<path class="st5" d="M-58.5,179.3h3.6v0.9h-8.3v-3.1c0-0.8,0.2-1.4,0.6-1.8c0.4-0.4,1-0.7,1.7-0.7c0.6,0,1.1,0.2,1.5,0.5
			s0.6,0.7,0.8,1.3l3.7-2v1l-3.6,1.9V179.3z M-59.2,177.2c0-0.5-0.1-1-0.4-1.2c-0.3-0.3-0.6-0.4-1.1-0.4s-0.9,0.1-1.2,0.4
			c-0.3,0.3-0.4,0.7-0.4,1.3v2.1h3.1C-59.2,179.4-59.2,177.2-59.2,177.2z"/>
	</g>
</g>
<g id="DESIGNED_BY_FREEPIK" class="st0">
</g>
</svg>
