<?xml version="1.0" encoding="utf-8"?>
<!-- Generator: Adobe Illustrator 23.0.5, SVG Export Plug-In . SVG Version: 6.00 Build 0)  -->
<svg version="1.1" xmlns="http://www.w3.org/2000/svg" xmlns:xlink="http://www.w3.org/1999/xlink" x="0px" y="0px"
	 viewBox="0 0 400.5 247.5" style="enable-background:new 0 0 400.5 247.5;" xml:space="preserve">
<style type="text/css">
	.st0{display:none;}
	.st1{display:inline;fill:#F5F8FC;}
	.st2{display:inline;}
	.st3{fill:#759DCC;}
	.st4{fill:#CAB2F4;}
	.st5{display:inline;fill:#CAB2F4;}
	.st6{fill:#764AFF;}
	.st7{display:inline;fill:#764AFF;}
</style>
<g id="BACKGROUND" class="st0">
	<rect x="-49.8" y="-148.3" class="st1" width="500" height="500"/>
</g>
<g id="OBJECTS">
	<g>
		<g class="st0">
			<g class="st2">
				<path class="st3" d="M247.1,0.4v246.8H0.4V0.4H247.1 M247.5,0H0v247.5h247.5V0L247.5,0z"/>
				<path class="st3" d="M400.1,0.4v246.8H0.4V0.4H400.1 M400.5,0H0v247.5h400.5V0L400.5,0z"/>
				<path class="st3" d="M400.1,0.4v152.2H247.9V0.4H400.1 M400.5,0h-153v153h153V0L400.5,0z"/>
				<path class="st3" d="M400.1,0.4v246.7H247.9V0.4H400.1 M400.5,0h-153v247.5h153V0L400.5,0z"/>
				<path class="st3" d="M400.1,153.3v93.8h-93.8v-93.8H400.1 M400.5,153h-94.5v94.5h94.5V153L400.5,153z"/>
				<path class="st3" d="M400.1,153.3v93.8H247.9v-93.8H400.1 M400.5,153h-153v94.5h153V153L400.5,153z"/>
				<path class="st3" d="M305.6,189.5v57.7h-57.7v-57.7H305.6 M305.9,189.1h-58.4v58.4h58.4V189.1L305.9,189.1z"/>
				<path class="st3" d="M305.6,153.3v93.8h-57.7v-93.8H305.6 M305.9,153h-58.4v94.5h58.4V153L305.9,153z"/>
				<path class="st3" d="M283.2,153.3v35.3h-35.3v-35.3H283.2 M283.6,153h-36.1v36.1h36.1V153L283.6,153z"/>
				<path class="st3" d="M305.6,153.3v35.3h-57.7v-35.3H305.6 M305.9,153h-58.4v36.1h58.4V153L305.9,153z"/>
				<path class="st3" d="M305.6,153.3v21.6H284v-21.6H305.6 M305.9,153h-22.3v22.3h22.3V153L305.9,153z"/>
				<path class="st3" d="M305.6,153.3v35.3H284v-35.3H305.6 M305.9,153h-22.3v36.1h22.3V153L305.9,153z"/>
				<path class="st3" d="M305.6,175.7v13h-13v-13H305.6 M305.9,175.3h-13.8v13.8h13.8V175.3L305.9,175.3z"/>
				<path class="st3" d="M305.6,175.7v13H284v-13H305.6 M305.9,175.3h-22.3v13.8h22.3V175.3L305.9,175.3z"/>
				<path class="st3" d="M291.8,180.9v7.8H284v-7.8H291.8 M292.1,180.6h-8.5v8.5h8.5V180.6L292.1,180.6z"/>
				<path class="st3" d="M291.8,175.7v13H284v-13H291.8 M292.1,175.3h-8.5v13.8h8.5V175.3L292.1,175.3z"/>
				<path class="st3" d="M288.5,175.7v4.5H284v-4.5H288.5 M288.9,175.3h-5.3v5.3h5.3V175.3L288.9,175.3z"/>
				<path class="st3" d="M291.8,175.7v4.5H284v-4.5H291.8 M292.1,175.3h-8.5v5.3h8.5V175.3L292.1,175.3z"/>
			</g>
			<g class="st2">
				<path class="st4" d="M0,0.6c-0.1,0-0.2,0-0.3-0.1C-0.5,0.3-0.6,0-0.5-0.3C-0.3-0.6,0-0.6,0.3-0.5l0,0c0.3,0.2,0.4,0.5,0.2,0.8
					C0.4,0.5,0.2,0.6,0,0.6z"/>
				<path class="st4" d="M397.2,246.1c-0.1,0-0.2,0-0.3-0.1l-0.1,0c-0.3-0.2-0.4-0.5-0.2-0.8c0.2-0.3,0.5-0.4,0.8-0.2l0.1,0
					c0.3,0.2,0.4,0.5,0.2,0.8C397.6,246,397.4,246.1,397.2,246.1z M393.9,244c-0.1,0-0.2,0-0.3-0.1c-0.3-0.2-0.4-0.5-0.2-0.8
					c0.2-0.3,0.5-0.4,0.8-0.2l0.1,0c0.3,0.2,0.4,0.5,0.2,0.8C394.3,243.9,394.1,244,393.9,244z M390.6,242c-0.1,0-0.2,0-0.3-0.1
					l-0.1,0c-0.3-0.2-0.4-0.5-0.2-0.8c0.2-0.3,0.5-0.4,0.8-0.2l0.1,0c0.3,0.2,0.4,0.5,0.2,0.8C391,241.9,390.8,242,390.6,242z
					 M387.3,239.9c-0.1,0-0.2,0-0.3-0.1c-0.3-0.2-0.4-0.5-0.2-0.8c0.2-0.3,0.5-0.4,0.8-0.2l0.1,0c0.3,0.2,0.4,0.5,0.2,0.8
					C387.6,239.8,387.5,239.9,387.3,239.9z M384,237.9c-0.1,0-0.2,0-0.3-0.1l-0.1,0c-0.3-0.2-0.4-0.5-0.2-0.8
					c0.2-0.3,0.5-0.4,0.8-0.2l0.1,0c0.3,0.2,0.4,0.5,0.2,0.8C384.3,237.8,384.2,237.9,384,237.9z M380.7,235.8c-0.1,0-0.2,0-0.3-0.1
					c-0.3-0.2-0.4-0.5-0.2-0.8c0.2-0.3,0.5-0.4,0.8-0.2l0.1,0c0.3,0.2,0.4,0.5,0.2,0.8C381,235.7,380.8,235.8,380.7,235.8z
					 M377.3,233.8c-0.1,0-0.2,0-0.3-0.1c-0.3-0.2-0.4-0.5-0.2-0.8c0.2-0.3,0.5-0.4,0.8-0.2l0.1,0c0.3,0.2,0.4,0.5,0.2,0.8
					C377.7,233.7,377.5,233.8,377.3,233.8z M374,231.7c-0.1,0-0.2,0-0.3-0.1c-0.3-0.2-0.4-0.5-0.2-0.8c0.2-0.3,0.5-0.4,0.8-0.2
					l0.1,0c0.3,0.2,0.4,0.5,0.2,0.8C374.4,231.6,374.2,231.7,374,231.7z M370.7,229.7c-0.1,0-0.2,0-0.3-0.1
					c-0.3-0.2-0.4-0.5-0.2-0.8c0.2-0.3,0.5-0.4,0.8-0.2l0.1,0c0.3,0.2,0.4,0.5,0.2,0.8C371.1,229.6,370.9,229.7,370.7,229.7z
					 M367.4,227.6c-0.1,0-0.2,0-0.3-0.1c-0.3-0.2-0.4-0.5-0.2-0.8c0.2-0.3,0.5-0.4,0.8-0.2l0.1,0c0.3,0.2,0.4,0.5,0.2,0.8
					C367.8,227.5,367.6,227.6,367.4,227.6z M364.1,225.6c-0.1,0-0.2,0-0.3-0.1c-0.3-0.2-0.4-0.5-0.2-0.8c0.2-0.3,0.5-0.4,0.8-0.2
					l0.1,0c0.3,0.2,0.4,0.5,0.2,0.8C364.5,225.5,364.3,225.6,364.1,225.6z M360.8,223.6c-0.1,0-0.2,0-0.3-0.1l-0.1,0
					c-0.3-0.2-0.4-0.5-0.2-0.8c0.2-0.3,0.5-0.4,0.8-0.2l0.1,0c0.3,0.2,0.4,0.5,0.2,0.8C361.2,223.5,361,223.6,360.8,223.6z
					 M357.5,221.5c-0.1,0-0.2,0-0.3-0.1c-0.3-0.2-0.4-0.5-0.2-0.8c0.2-0.3,0.5-0.4,0.8-0.2l0.1,0c0.3,0.2,0.4,0.5,0.2,0.8
					C357.9,221.4,357.7,221.5,357.5,221.5z M354.2,219.5c-0.1,0-0.2,0-0.3-0.1l-0.1,0c-0.3-0.2-0.4-0.5-0.2-0.8
					c0.2-0.3,0.5-0.4,0.8-0.2l0.1,0c0.3,0.2,0.4,0.5,0.2,0.8C354.6,219.4,354.4,219.5,354.2,219.5z M350.9,217.4
					c-0.1,0-0.2,0-0.3-0.1c-0.3-0.2-0.4-0.5-0.2-0.8c0.2-0.3,0.5-0.4,0.8-0.2l0.1,0c0.3,0.2,0.4,0.5,0.2,0.8
					C351.2,217.3,351.1,217.4,350.9,217.4z M347.6,215.4c-0.1,0-0.2,0-0.3-0.1l-0.1,0c-0.3-0.2-0.4-0.5-0.2-0.8
					c0.2-0.3,0.5-0.4,0.8-0.2l0.1,0c0.3,0.2,0.4,0.5,0.2,0.8C347.9,215.3,347.7,215.4,347.6,215.4z M344.2,213.3
					c-0.1,0-0.2,0-0.3-0.1c-0.3-0.2-0.4-0.5-0.2-0.8c0.2-0.3,0.5-0.4,0.8-0.2l0.1,0c0.3,0.2,0.4,0.5,0.2,0.8
					C344.6,213.2,344.4,213.3,344.2,213.3z M340.9,211.3c-0.1,0-0.2,0-0.3-0.1c-0.3-0.2-0.4-0.5-0.2-0.8c0.2-0.3,0.5-0.4,0.8-0.2
					l0.1,0c0.3,0.2,0.4,0.5,0.2,0.8C341.3,211.2,341.1,211.3,340.9,211.3z M337.6,209.2c-0.1,0-0.2,0-0.3-0.1
					c-0.3-0.2-0.4-0.5-0.2-0.8c0.2-0.3,0.5-0.4,0.8-0.2l0.1,0c0.3,0.2,0.4,0.5,0.2,0.8C338,209.1,337.8,209.2,337.6,209.2z
					 M334.3,207.2c-0.1,0-0.2,0-0.3-0.1c-0.3-0.2-0.4-0.5-0.2-0.8c0.2-0.3,0.5-0.4,0.8-0.2l0.1,0c0.3,0.2,0.4,0.5,0.2,0.8
					C334.7,207.1,334.5,207.2,334.3,207.2z M331,205.1c-0.1,0-0.2,0-0.3-0.1l-0.1,0c-0.3-0.2-0.4-0.5-0.2-0.8
					c0.2-0.3,0.5-0.4,0.8-0.2l0.1,0c0.3,0.2,0.4,0.5,0.2,0.8C331.4,205,331.2,205.1,331,205.1z M327.7,203.1c-0.1,0-0.2,0-0.3-0.1
					c-0.3-0.2-0.4-0.5-0.2-0.8c0.2-0.3,0.5-0.4,0.8-0.2l0.1,0c0.3,0.2,0.4,0.5,0.2,0.8C328.1,203,327.9,203.1,327.7,203.1z
					 M324.4,201c-0.1,0-0.2,0-0.3-0.1l-0.1,0c-0.3-0.2-0.4-0.5-0.2-0.8c0.2-0.3,0.5-0.4,0.8-0.2l0.1,0c0.3,0.2,0.4,0.5,0.2,0.8
					C324.8,201,324.6,201,324.4,201z M321.1,199c-0.1,0-0.2,0-0.3-0.1c-0.3-0.2-0.4-0.5-0.2-0.8c0.2-0.3,0.5-0.4,0.8-0.2l0.1,0
					c0.3,0.2,0.4,0.5,0.2,0.8C321.5,198.9,321.3,199,321.1,199z M317.8,197c-0.1,0-0.2,0-0.3-0.1l-0.1,0c-0.3-0.2-0.4-0.5-0.2-0.8
					c0.2-0.3,0.5-0.4,0.8-0.2l0.1,0c0.3,0.2,0.4,0.5,0.2,0.8C318.1,196.9,318,197,317.8,197z M314.5,194.9c-0.1,0-0.2,0-0.3-0.1
					c-0.3-0.2-0.4-0.5-0.2-0.8c0.2-0.3,0.5-0.4,0.8-0.2l0.1,0c0.3,0.2,0.4,0.5,0.2,0.8C314.8,194.8,314.6,194.9,314.5,194.9z
					 M311.1,192.9c-0.1,0-0.2,0-0.3-0.1c-0.3-0.2-0.4-0.5-0.2-0.8c0.2-0.3,0.5-0.4,0.8-0.2l0.1,0c0.3,0.2,0.4,0.5,0.2,0.8
					C311.5,192.8,311.3,192.9,311.1,192.9z M307.8,190.8c-0.1,0-0.2,0-0.3-0.1c-0.3-0.2-0.4-0.5-0.2-0.8c0.2-0.3,0.5-0.4,0.8-0.2
					l0.1,0c0.3,0.2,0.4,0.5,0.2,0.8C308.2,190.7,308,190.8,307.8,190.8z M304.5,188.8c-0.1,0-0.2,0-0.3-0.1
					c-0.3-0.2-0.4-0.5-0.2-0.8c0.2-0.3,0.5-0.4,0.8-0.2l0.1,0c0.3,0.2,0.4,0.5,0.2,0.8C304.9,188.7,304.7,188.8,304.5,188.8z
					 M301.2,186.7c-0.1,0-0.2,0-0.3-0.1c-0.3-0.2-0.4-0.5-0.2-0.8c0.2-0.3,0.5-0.4,0.8-0.2l0.1,0c0.3,0.2,0.4,0.5,0.2,0.8
					C301.6,186.6,301.4,186.7,301.2,186.7z M297.9,184.7c-0.1,0-0.2,0-0.3-0.1c-0.3-0.2-0.4-0.5-0.2-0.8c0.2-0.3,0.5-0.4,0.8-0.2
					l0.1,0c0.3,0.2,0.4,0.5,0.2,0.8C298.3,184.6,298.1,184.7,297.9,184.7z M294.6,182.6c-0.1,0-0.2,0-0.3-0.1l-0.1,0
					c-0.3-0.2-0.4-0.5-0.2-0.8c0.2-0.3,0.5-0.4,0.8-0.2l0.1,0c0.3,0.2,0.4,0.5,0.2,0.8C295,182.5,294.8,182.6,294.6,182.6z
					 M291.3,180.6c-0.1,0-0.2,0-0.3-0.1c-0.3-0.2-0.4-0.5-0.2-0.8c0.2-0.3,0.5-0.4,0.8-0.2l0.1,0c0.3,0.2,0.4,0.5,0.2,0.8
					C291.7,180.5,291.5,180.6,291.3,180.6z M288,178.5c-0.1,0-0.2,0-0.3-0.1l-0.1,0c-0.3-0.2-0.4-0.5-0.2-0.8
					c0.2-0.3,0.5-0.4,0.8-0.2l0.1,0c0.3,0.2,0.4,0.5,0.2,0.8C288.4,178.5,288.2,178.5,288,178.5z M284.7,176.5c-0.1,0-0.2,0-0.3-0.1
					c-0.3-0.2-0.4-0.5-0.2-0.8c0.2-0.3,0.5-0.4,0.8-0.2l0.1,0c0.3,0.2,0.4,0.5,0.2,0.8C285,176.4,284.9,176.5,284.7,176.5z
					 M281.4,174.5c-0.1,0-0.2,0-0.3-0.1l-0.1,0c-0.3-0.2-0.4-0.5-0.2-0.8c0.2-0.3,0.5-0.4,0.8-0.2l0.1,0c0.3,0.2,0.4,0.5,0.2,0.8
					C281.7,174.4,281.6,174.5,281.4,174.5z M278,172.4c-0.1,0-0.2,0-0.3-0.1c-0.3-0.2-0.4-0.5-0.2-0.8c0.2-0.3,0.5-0.4,0.8-0.2
					l0.1,0c0.3,0.2,0.4,0.5,0.2,0.8C278.4,172.3,278.2,172.4,278,172.4z M274.7,170.4c-0.1,0-0.2,0-0.3-0.1
					c-0.3-0.2-0.4-0.5-0.2-0.8c0.2-0.3,0.5-0.4,0.8-0.2l0.1,0c0.3,0.2,0.4,0.5,0.2,0.8C275.1,170.3,274.9,170.4,274.7,170.4z
					 M271.4,168.3c-0.1,0-0.2,0-0.3-0.1c-0.3-0.2-0.4-0.5-0.2-0.8c0.2-0.3,0.5-0.4,0.8-0.2l0.1,0c0.3,0.2,0.4,0.5,0.2,0.8
					C271.8,168.2,271.6,168.3,271.4,168.3z M268.1,166.3c-0.1,0-0.2,0-0.3-0.1c-0.3-0.2-0.4-0.5-0.2-0.8c0.2-0.3,0.5-0.4,0.8-0.2
					l0.1,0c0.3,0.2,0.4,0.5,0.2,0.8C268.5,166.2,268.3,166.3,268.1,166.3z M264.8,164.2c-0.1,0-0.2,0-0.3-0.1
					c-0.3-0.2-0.4-0.5-0.2-0.8c0.2-0.3,0.5-0.4,0.8-0.2l0.1,0c0.3,0.2,0.4,0.5,0.2,0.8C265.2,164.1,265,164.2,264.8,164.2z
					 M261.5,162.2c-0.1,0-0.2,0-0.3-0.1c-0.3-0.2-0.4-0.5-0.2-0.8c0.2-0.3,0.5-0.4,0.8-0.2l0.1,0c0.3,0.2,0.4,0.5,0.2,0.8
					C261.9,162.1,261.7,162.2,261.5,162.2z M258.2,160.1c-0.1,0-0.2,0-0.3-0.1l-0.1,0c-0.3-0.2-0.4-0.5-0.2-0.8
					c0.2-0.3,0.5-0.4,0.8-0.2l0.1,0c0.3,0.2,0.4,0.5,0.2,0.8C258.6,160,258.4,160.1,258.2,160.1z M254.9,158.1c-0.1,0-0.2,0-0.3-0.1
					c-0.3-0.2-0.4-0.5-0.2-0.8c0.2-0.3,0.5-0.4,0.8-0.2l0.1,0c0.3,0.2,0.4,0.5,0.2,0.8C255.3,158,255.1,158.1,254.9,158.1z
					 M251.6,156c-0.1,0-0.2,0-0.3-0.1l-0.1,0c-0.3-0.2-0.4-0.5-0.2-0.8c0.2-0.3,0.5-0.4,0.8-0.2l0.1,0c0.3,0.2,0.4,0.5,0.2,0.8
					C252,156,251.8,156,251.6,156z M248.3,154c-0.1,0-0.2,0-0.3-0.1c-0.3-0.2-0.4-0.5-0.2-0.8c0.2-0.3,0.5-0.4,0.8-0.2l0.1,0
					c0.3,0.2,0.4,0.5,0.2,0.8C248.6,153.9,248.5,154,248.3,154z M245,152c-0.1,0-0.2,0-0.3-0.1l-0.1,0c-0.3-0.2-0.4-0.5-0.2-0.8
					c0.2-0.3,0.5-0.4,0.8-0.2l0.1,0c0.3,0.2,0.4,0.5,0.2,0.8C245.3,151.9,245.1,152,245,152z M241.6,149.9c-0.1,0-0.2,0-0.3-0.1
					c-0.3-0.2-0.4-0.5-0.2-0.8c0.2-0.3,0.5-0.4,0.8-0.2l0.1,0c0.3,0.2,0.4,0.5,0.2,0.8C242,149.8,241.8,149.9,241.6,149.9z
					 M238.3,147.9c-0.1,0-0.2,0-0.3-0.1c-0.3-0.2-0.4-0.5-0.2-0.8c0.2-0.3,0.5-0.4,0.8-0.2l0.1,0c0.3,0.2,0.4,0.5,0.2,0.8
					C238.7,147.8,238.5,147.9,238.3,147.9z M235,145.8c-0.1,0-0.2,0-0.3-0.1c-0.3-0.2-0.4-0.5-0.2-0.8c0.2-0.3,0.5-0.4,0.8-0.2
					l0.1,0c0.3,0.2,0.4,0.5,0.2,0.8C235.4,145.7,235.2,145.8,235,145.8z M231.7,143.8c-0.1,0-0.2,0-0.3-0.1
					c-0.3-0.2-0.4-0.5-0.2-0.8c0.2-0.3,0.5-0.4,0.8-0.2l0.1,0c0.3,0.2,0.4,0.5,0.2,0.8C232.1,143.7,231.9,143.8,231.7,143.8z
					 M228.4,141.7c-0.1,0-0.2,0-0.3-0.1l-0.1,0c-0.3-0.2-0.4-0.5-0.2-0.8c0.2-0.3,0.5-0.4,0.8-0.2l0.1,0c0.3,0.2,0.4,0.5,0.2,0.8
					C228.8,141.6,228.6,141.7,228.4,141.7z M225.1,139.7c-0.1,0-0.2,0-0.3-0.1c-0.3-0.2-0.4-0.5-0.2-0.8c0.2-0.3,0.5-0.4,0.8-0.2
					l0.1,0c0.3,0.2,0.4,0.5,0.2,0.8C225.5,139.6,225.3,139.7,225.1,139.7z M221.8,137.6c-0.1,0-0.2,0-0.3-0.1l-0.1,0
					c-0.3-0.2-0.4-0.5-0.2-0.8c0.2-0.3,0.5-0.4,0.8-0.2l0.1,0c0.3,0.2,0.4,0.5,0.2,0.8C222.2,137.5,222,137.6,221.8,137.6z
					 M218.5,135.6c-0.1,0-0.2,0-0.3-0.1c-0.3-0.2-0.4-0.5-0.2-0.8c0.2-0.3,0.5-0.4,0.8-0.2l0.1,0c0.3,0.2,0.4,0.5,0.2,0.8
					C218.9,135.5,218.7,135.6,218.5,135.6z M215.2,133.5c-0.1,0-0.2,0-0.3-0.1l-0.1,0c-0.3-0.2-0.4-0.5-0.2-0.8
					c0.2-0.3,0.5-0.4,0.8-0.2l0.1,0c0.3,0.2,0.4,0.5,0.2,0.8C215.5,133.5,215.4,133.5,215.2,133.5z M211.9,131.5
					c-0.1,0-0.2,0-0.3-0.1c-0.3-0.2-0.4-0.5-0.2-0.8c0.2-0.3,0.5-0.4,0.8-0.2l0.1,0c0.3,0.2,0.4,0.5,0.2,0.8
					C212.2,131.4,212,131.5,211.9,131.5z M208.5,129.5c-0.1,0-0.2,0-0.3-0.1c-0.3-0.2-0.4-0.5-0.2-0.8c0.2-0.3,0.5-0.4,0.8-0.2
					l0.1,0c0.3,0.2,0.4,0.5,0.2,0.8C208.9,129.4,208.7,129.5,208.5,129.5z M205.2,127.4c-0.1,0-0.2,0-0.3-0.1
					c-0.3-0.2-0.4-0.5-0.2-0.8c0.2-0.3,0.5-0.4,0.8-0.2l0.1,0c0.3,0.2,0.4,0.5,0.2,0.8C205.6,127.3,205.4,127.4,205.2,127.4z
					 M201.9,125.4c-0.1,0-0.2,0-0.3-0.1c-0.3-0.2-0.4-0.5-0.2-0.8c0.2-0.3,0.5-0.4,0.8-0.2l0.1,0c0.3,0.2,0.4,0.5,0.2,0.8
					C202.3,125.3,202.1,125.4,201.9,125.4z M198.6,123.3c-0.1,0-0.2,0-0.3-0.1l-0.1,0c-0.3-0.2-0.4-0.5-0.2-0.8
					c0.2-0.3,0.5-0.4,0.8-0.2l0.1,0c0.3,0.2,0.4,0.5,0.2,0.8C199,123.2,198.8,123.3,198.6,123.3z M195.3,121.3c-0.1,0-0.2,0-0.3-0.1
					c-0.3-0.2-0.4-0.5-0.2-0.8c0.2-0.3,0.5-0.4,0.8-0.2l0.1,0c0.3,0.2,0.4,0.5,0.2,0.8C195.7,121.2,195.5,121.3,195.3,121.3z
					 M192,119.2c-0.1,0-0.2,0-0.3-0.1l-0.1,0c-0.3-0.2-0.4-0.5-0.2-0.8c0.2-0.3,0.5-0.4,0.8-0.2l0.1,0c0.3,0.2,0.4,0.5,0.2,0.8
					C192.4,119.1,192.2,119.2,192,119.2z M188.7,117.2c-0.1,0-0.2,0-0.3-0.1c-0.3-0.2-0.4-0.5-0.2-0.8c0.2-0.3,0.5-0.4,0.8-0.2
					l0.1,0c0.3,0.2,0.4,0.5,0.2,0.8C189.1,117.1,188.9,117.2,188.7,117.2z M185.4,115.1c-0.1,0-0.2,0-0.3-0.1l-0.1,0
					c-0.3-0.2-0.4-0.5-0.2-0.8c0.2-0.3,0.5-0.4,0.8-0.2l0.1,0c0.3,0.2,0.4,0.5,0.2,0.8C185.8,115,185.6,115.1,185.4,115.1z
					 M182.1,113.1c-0.1,0-0.2,0-0.3-0.1c-0.3-0.2-0.4-0.5-0.2-0.8c0.2-0.3,0.5-0.4,0.8-0.2l0.1,0c0.3,0.2,0.4,0.5,0.2,0.8
					C182.4,113,182.3,113.1,182.1,113.1z M178.8,111c-0.1,0-0.2,0-0.3-0.1c-0.3-0.2-0.4-0.5-0.2-0.8c0.2-0.3,0.5-0.4,0.8-0.2l0.1,0
					c0.3,0.2,0.4,0.5,0.2,0.8C179.1,111,178.9,111,178.8,111z M175.4,109c-0.1,0-0.2,0-0.3-0.1c-0.3-0.2-0.4-0.5-0.2-0.8
					c0.2-0.3,0.5-0.4,0.8-0.2l0.1,0c0.3,0.2,0.4,0.5,0.2,0.8C175.8,108.9,175.6,109,175.4,109z M172.1,107c-0.1,0-0.2,0-0.3-0.1
					c-0.3-0.2-0.4-0.5-0.2-0.8c0.2-0.3,0.5-0.4,0.8-0.2l0.1,0c0.3,0.2,0.4,0.5,0.2,0.8C172.5,106.9,172.3,107,172.1,107z
					 M168.8,104.9c-0.1,0-0.2,0-0.3-0.1l-0.1,0c-0.3-0.2-0.4-0.5-0.2-0.8c0.2-0.3,0.5-0.4,0.8-0.2l0.1,0c0.3,0.2,0.4,0.5,0.2,0.8
					C169.2,104.8,169,104.9,168.8,104.9z M165.5,102.9c-0.1,0-0.2,0-0.3-0.1c-0.3-0.2-0.4-0.5-0.2-0.8c0.2-0.3,0.5-0.4,0.8-0.2
					l0.1,0c0.3,0.2,0.4,0.5,0.2,0.8C165.9,102.8,165.7,102.9,165.5,102.9z M162.2,100.8c-0.1,0-0.2,0-0.3-0.1l-0.1,0
					c-0.3-0.2-0.4-0.5-0.2-0.8c0.2-0.3,0.5-0.4,0.8-0.2l0.1,0c0.3,0.2,0.4,0.5,0.2,0.8C162.6,100.7,162.4,100.8,162.2,100.8z
					 M158.9,98.8c-0.1,0-0.2,0-0.3-0.1c-0.3-0.2-0.4-0.5-0.2-0.8c0.2-0.3,0.5-0.4,0.8-0.2l0.1,0c0.3,0.2,0.4,0.5,0.2,0.8
					C159.3,98.7,159.1,98.8,158.9,98.8z M155.6,96.7c-0.1,0-0.2,0-0.3-0.1c-0.3-0.2-0.4-0.5-0.2-0.8c0.2-0.3,0.5-0.4,0.8-0.2l0.1,0
					c0.3,0.2,0.4,0.5,0.2,0.8C156,96.6,155.8,96.7,155.6,96.7z M152.3,94.7c-0.1,0-0.2,0-0.3-0.1c-0.3-0.2-0.4-0.5-0.2-0.8
					c0.2-0.3,0.5-0.4,0.8-0.2l0.1,0c0.3,0.2,0.4,0.5,0.2,0.8C152.7,94.6,152.5,94.7,152.3,94.7z M149,92.6c-0.1,0-0.2,0-0.3-0.1
					c-0.3-0.2-0.4-0.5-0.2-0.8c0.2-0.3,0.5-0.4,0.8-0.2l0.1,0c0.3,0.2,0.4,0.5,0.2,0.8C149.3,92.5,149.2,92.6,149,92.6z M145.7,90.6
					c-0.1,0-0.2,0-0.3-0.1l-0.1,0c-0.3-0.2-0.4-0.5-0.2-0.8c0.2-0.3,0.5-0.4,0.8-0.2l0.1,0c0.3,0.2,0.4,0.5,0.2,0.8
					C146,90.5,145.9,90.6,145.7,90.6z M142.3,88.5c-0.1,0-0.2,0-0.3-0.1c-0.3-0.2-0.4-0.5-0.2-0.8c0.2-0.3,0.5-0.4,0.8-0.2l0.1,0
					c0.3,0.2,0.4,0.5,0.2,0.8C142.7,88.5,142.5,88.5,142.3,88.5z M139,86.5c-0.1,0-0.2,0-0.3-0.1l-0.1,0c-0.3-0.2-0.4-0.5-0.2-0.8
					c0.2-0.3,0.5-0.4,0.8-0.2l0.1,0c0.3,0.2,0.4,0.5,0.2,0.8C139.4,86.4,139.2,86.5,139,86.5z M135.7,84.5c-0.1,0-0.2,0-0.3-0.1
					c-0.3-0.2-0.4-0.5-0.2-0.8c0.2-0.3,0.5-0.4,0.8-0.2l0.1,0c0.3,0.2,0.4,0.5,0.2,0.8C136.1,84.4,135.9,84.5,135.7,84.5z
					 M132.4,82.4c-0.1,0-0.2,0-0.3-0.1c-0.3-0.2-0.4-0.5-0.2-0.8c0.2-0.3,0.5-0.4,0.8-0.2l0.1,0c0.3,0.2,0.4,0.5,0.2,0.8
					C132.8,82.3,132.6,82.4,132.4,82.4z M129.1,80.4c-0.1,0-0.2,0-0.3-0.1c-0.3-0.2-0.4-0.5-0.2-0.8c0.2-0.3,0.5-0.4,0.8-0.2l0.1,0
					c0.3,0.2,0.4,0.5,0.2,0.8C129.5,80.3,129.3,80.4,129.1,80.4z M125.8,78.3c-0.1,0-0.2,0-0.3-0.1c-0.3-0.2-0.4-0.5-0.2-0.8
					c0.2-0.3,0.5-0.4,0.8-0.2l0.1,0c0.3,0.2,0.4,0.5,0.2,0.8C126.2,78.2,126,78.3,125.8,78.3z M122.5,76.3c-0.1,0-0.2,0-0.3-0.1
					c-0.3-0.2-0.4-0.5-0.2-0.8c0.2-0.3,0.5-0.4,0.8-0.2l0.1,0c0.3,0.2,0.4,0.5,0.2,0.8C122.9,76.2,122.7,76.3,122.5,76.3z
					 M119.2,74.2c-0.1,0-0.2,0-0.3-0.1c-0.3-0.2-0.4-0.5-0.2-0.8c0.2-0.3,0.5-0.4,0.8-0.2l0.1,0c0.3,0.2,0.4,0.5,0.2,0.8
					C119.6,74.1,119.4,74.2,119.2,74.2z M115.9,72.2c-0.1,0-0.2,0-0.3-0.1l-0.1,0c-0.3-0.2-0.4-0.5-0.2-0.8c0.2-0.3,0.5-0.4,0.8-0.2
					l0.1,0c0.3,0.2,0.4,0.5,0.2,0.8C116.3,72.1,116.1,72.2,115.9,72.2z M112.6,70.1c-0.1,0-0.2,0-0.3-0.1c-0.3-0.2-0.4-0.5-0.2-0.8
					c0.2-0.3,0.5-0.4,0.8-0.2l0.1,0c0.3,0.2,0.4,0.5,0.2,0.8C112.9,70,112.8,70.1,112.6,70.1z M109.3,68.1c-0.1,0-0.2,0-0.3-0.1
					l-0.1,0c-0.3-0.2-0.4-0.5-0.2-0.8c0.2-0.3,0.5-0.4,0.8-0.2l0.1,0c0.3,0.2,0.4,0.5,0.2,0.8C109.6,68,109.4,68.1,109.3,68.1z
					 M105.9,66c-0.1,0-0.2,0-0.3-0.1c-0.3-0.2-0.4-0.5-0.2-0.8c0.2-0.3,0.5-0.4,0.8-0.2l0.1,0c0.3,0.2,0.4,0.5,0.2,0.8
					C106.3,66,106.1,66,105.9,66z M102.6,64c-0.1,0-0.2,0-0.3-0.1l-0.1,0c-0.3-0.2-0.4-0.5-0.2-0.8c0.2-0.3,0.5-0.4,0.8-0.2l0.1,0
					c0.3,0.2,0.4,0.5,0.2,0.8C103,63.9,102.8,64,102.6,64z M99.3,62c-0.1,0-0.2,0-0.3-0.1l-0.1,0c-0.3-0.2-0.4-0.5-0.2-0.8
					c0.2-0.3,0.5-0.4,0.8-0.2l0.1,0c0.3,0.2,0.4,0.5,0.2,0.8C99.7,61.9,99.5,62,99.3,62z M96,59.9c-0.1,0-0.2,0-0.3-0.1l-0.1,0
					c-0.3-0.2-0.4-0.5-0.2-0.8c0.2-0.3,0.5-0.4,0.8-0.2l0.1,0c0.3,0.2,0.4,0.5,0.2,0.8C96.4,59.8,96.2,59.9,96,59.9z M92.7,57.9
					c-0.1,0-0.2,0-0.3-0.1c-0.3-0.2-0.4-0.5-0.2-0.8c0.2-0.3,0.5-0.4,0.8-0.2l0.1,0c0.3,0.2,0.4,0.5,0.2,0.8
					C93.1,57.8,92.9,57.9,92.7,57.9z M89.4,55.8c-0.1,0-0.2,0-0.3-0.1c-0.3-0.2-0.4-0.5-0.2-0.8c0.2-0.3,0.5-0.4,0.8-0.2l0.1,0
					c0.3,0.2,0.4,0.5,0.2,0.8C89.8,55.7,89.6,55.8,89.4,55.8z M86.1,53.8c-0.1,0-0.2,0-0.3-0.1c-0.3-0.2-0.4-0.5-0.2-0.8
					c0.2-0.3,0.5-0.4,0.8-0.2l0.1,0c0.3,0.2,0.4,0.5,0.2,0.8C86.5,53.7,86.3,53.8,86.1,53.8z M82.8,51.7c-0.1,0-0.2,0-0.3-0.1
					l-0.1,0c-0.3-0.2-0.4-0.5-0.2-0.8c0.2-0.3,0.5-0.4,0.8-0.2l0.1,0c0.3,0.2,0.4,0.5,0.2,0.8C83.2,51.6,83,51.7,82.8,51.7z
					 M79.5,49.7c-0.1,0-0.2,0-0.3-0.1l-0.1,0c-0.3-0.2-0.4-0.5-0.2-0.8c0.2-0.3,0.5-0.4,0.8-0.2l0.1,0c0.3,0.2,0.4,0.5,0.2,0.8
					C79.8,49.6,79.7,49.7,79.5,49.7z M76.2,47.6c-0.1,0-0.2,0-0.3-0.1l-0.1,0c-0.3-0.2-0.4-0.5-0.2-0.8c0.2-0.3,0.5-0.4,0.8-0.2
					l0.1,0c0.3,0.2,0.4,0.5,0.2,0.8C76.5,47.5,76.3,47.6,76.2,47.6z M72.8,45.6c-0.1,0-0.2,0-0.3-0.1l-0.1,0
					c-0.3-0.2-0.4-0.5-0.2-0.8c0.2-0.3,0.5-0.4,0.8-0.2l0.1,0c0.3,0.2,0.4,0.5,0.2,0.8C73.2,45.5,73,45.6,72.8,45.6z M69.5,43.5
					c-0.1,0-0.2,0-0.3-0.1c-0.3-0.2-0.4-0.5-0.2-0.8c0.2-0.3,0.5-0.4,0.8-0.2l0.1,0c0.3,0.2,0.4,0.5,0.2,0.8
					C69.9,43.5,69.7,43.5,69.5,43.5z M66.2,41.5c-0.1,0-0.2,0-0.3-0.1c-0.3-0.2-0.4-0.5-0.2-0.8c0.2-0.3,0.5-0.4,0.8-0.2l0.1,0
					c0.3,0.2,0.4,0.5,0.2,0.8C66.6,41.4,66.4,41.5,66.2,41.5z M62.9,39.5c-0.1,0-0.2,0-0.3-0.1c-0.3-0.2-0.4-0.5-0.2-0.8
					c0.2-0.3,0.5-0.4,0.8-0.2l0.1,0c0.3,0.2,0.4,0.5,0.2,0.8C63.3,39.4,63.1,39.5,62.9,39.5z M59.6,37.4c-0.1,0-0.2,0-0.3-0.1
					c-0.3-0.2-0.4-0.5-0.2-0.8c0.2-0.3,0.5-0.4,0.8-0.2l0.1,0c0.3,0.2,0.4,0.5,0.2,0.8C60,37.3,59.8,37.4,59.6,37.4z M56.3,35.4
					c-0.1,0-0.2,0-0.3-0.1l-0.1,0c-0.3-0.2-0.4-0.5-0.2-0.8c0.2-0.3,0.5-0.4,0.8-0.2l0.1,0c0.3,0.2,0.4,0.5,0.2,0.8
					C56.7,35.3,56.5,35.4,56.3,35.4z M53,33.3c-0.1,0-0.2,0-0.3-0.1l-0.1,0c-0.3-0.2-0.4-0.5-0.2-0.8c0.2-0.3,0.5-0.4,0.8-0.2l0.1,0
					c0.3,0.2,0.4,0.5,0.2,0.8C53.4,33.2,53.2,33.3,53,33.3z M49.7,31.3c-0.1,0-0.2,0-0.3-0.1l-0.1,0C49,31,49,30.6,49.1,30.4
					c0.2-0.3,0.5-0.4,0.8-0.2l0.1,0c0.3,0.2,0.4,0.5,0.2,0.8C50.1,31.2,49.9,31.3,49.7,31.3z M46.4,29.2c-0.1,0-0.2,0-0.3-0.1
					l-0.1,0c-0.3-0.2-0.4-0.5-0.2-0.8c0.2-0.3,0.5-0.4,0.8-0.2l0.1,0c0.3,0.2,0.4,0.5,0.2,0.8C46.7,29.1,46.6,29.2,46.4,29.2z
					 M43.1,27.2c-0.1,0-0.2,0-0.3-0.1c-0.3-0.2-0.4-0.5-0.2-0.8c0.2-0.3,0.5-0.4,0.8-0.2l0.1,0c0.3,0.2,0.4,0.5,0.2,0.8
					C43.4,27.1,43.2,27.2,43.1,27.2z M39.7,25.1c-0.1,0-0.2,0-0.3-0.1c-0.3-0.2-0.4-0.5-0.2-0.8c0.2-0.3,0.5-0.4,0.8-0.2l0.1,0
					c0.3,0.2,0.4,0.5,0.2,0.8C40.1,25,39.9,25.1,39.7,25.1z M36.4,23.1c-0.1,0-0.2,0-0.3-0.1c-0.3-0.2-0.4-0.5-0.2-0.8
					c0.2-0.3,0.5-0.4,0.8-0.2l0.1,0c0.3,0.2,0.4,0.5,0.2,0.8C36.8,23,36.6,23.1,36.4,23.1z M33.1,21c-0.1,0-0.2,0-0.3-0.1
					c-0.3-0.2-0.4-0.5-0.2-0.8c0.2-0.3,0.5-0.4,0.8-0.2l0.1,0c0.3,0.2,0.4,0.5,0.2,0.8C33.5,21,33.3,21,33.1,21z M29.8,19
					c-0.1,0-0.2,0-0.3-0.1l-0.1,0c-0.3-0.2-0.4-0.5-0.2-0.8c0.2-0.3,0.5-0.4,0.8-0.2l0.1,0c0.3,0.2,0.4,0.5,0.2,0.8
					C30.2,18.9,30,19,29.8,19z M26.5,17c-0.1,0-0.2,0-0.3-0.1l-0.1,0c-0.3-0.2-0.4-0.5-0.2-0.8c0.2-0.3,0.5-0.4,0.8-0.2l0.1,0
					c0.3,0.2,0.4,0.5,0.2,0.8C26.9,16.9,26.7,17,26.5,17z M23.2,14.9c-0.1,0-0.2,0-0.3-0.1l-0.1,0c-0.3-0.2-0.4-0.5-0.2-0.8
					c0.2-0.3,0.5-0.4,0.8-0.2l0.1,0c0.3,0.2,0.4,0.5,0.2,0.8C23.6,14.8,23.4,14.9,23.2,14.9z M19.9,12.9c-0.1,0-0.2,0-0.3-0.1
					l-0.1,0c-0.3-0.2-0.4-0.5-0.2-0.8c0.2-0.3,0.5-0.4,0.8-0.2l0.1,0c0.3,0.2,0.4,0.5,0.2,0.8C20.3,12.8,20.1,12.9,19.9,12.9z
					 M16.6,10.8c-0.1,0-0.2,0-0.3-0.1c-0.3-0.2-0.4-0.5-0.2-0.8c0.2-0.3,0.5-0.4,0.8-0.2l0.1,0c0.3,0.2,0.4,0.5,0.2,0.8
					C17,10.7,16.8,10.8,16.6,10.8z M13.3,8.8c-0.1,0-0.2,0-0.3-0.1c-0.3-0.2-0.4-0.5-0.2-0.8c0.2-0.3,0.5-0.4,0.8-0.2l0.1,0
					c0.3,0.2,0.4,0.5,0.2,0.8C13.6,8.7,13.5,8.8,13.3,8.8z M10,6.7c-0.1,0-0.2,0-0.3-0.1C9.4,6.5,9.3,6.1,9.4,5.8
					c0.2-0.3,0.5-0.4,0.8-0.2l0.1,0c0.3,0.2,0.4,0.5,0.2,0.8C10.3,6.6,10.2,6.7,10,6.7z M6.7,4.7c-0.1,0-0.2,0-0.3-0.1
					C6.1,4.4,6,4.1,6.1,3.8c0.2-0.3,0.5-0.4,0.8-0.2l0.1,0c0.3,0.2,0.4,0.5,0.2,0.8C7,4.6,6.8,4.7,6.7,4.7z M3.3,2.6
					c-0.1,0-0.2,0-0.3-0.1L3,2.5C2.7,2.3,2.6,2,2.8,1.7C3,1.5,3.3,1.4,3.6,1.5l0.1,0C3.9,1.7,4,2.1,3.8,2.4C3.7,2.5,3.5,2.6,3.3,2.6
					z"/>
				<path class="st4" d="M400.5,248.1c-0.1,0-0.2,0-0.3-0.1c-0.3-0.2-0.4-0.5-0.2-0.8c0.2-0.3,0.5-0.4,0.8-0.2l0,0
					c0.3,0.2,0.4,0.5,0.2,0.8C400.9,248,400.7,248.1,400.5,248.1z"/>
			</g>
			<path class="st5" d="M249.4,245.1c-0.1,0-0.2,0-0.3-0.1c-0.3-0.2-0.4-0.5-0.2-0.8c0.2-0.3,0.5-0.4,0.8-0.2
				c0.3,0.2,0.4,0.5,0.2,0.8l0,0.1C249.8,245,249.6,245.1,249.4,245.1z M251.4,241.8c-0.1,0-0.2,0-0.3-0.1c-0.3-0.2-0.4-0.5-0.2-0.8
				c0.2-0.3,0.5-0.4,0.8-0.2c0.3,0.2,0.4,0.5,0.2,0.8l0,0.1C251.8,241.7,251.6,241.8,251.4,241.8z M253.5,238.5
				c-0.1,0-0.2,0-0.3-0.1c-0.3-0.2-0.4-0.5-0.2-0.8c0.2-0.3,0.5-0.4,0.8-0.2c0.3,0.2,0.4,0.5,0.2,0.8l0,0.1
				C253.8,238.4,253.6,238.5,253.5,238.5z M255.5,235.2c-0.1,0-0.2,0-0.3-0.1c-0.3-0.2-0.4-0.5-0.2-0.8c0.2-0.3,0.5-0.4,0.8-0.2
				c0.3,0.2,0.4,0.5,0.2,0.8l0,0.1C255.9,235.1,255.7,235.2,255.5,235.2z M257.5,231.8c-0.1,0-0.2,0-0.3-0.1
				c-0.3-0.2-0.4-0.5-0.2-0.8c0.2-0.3,0.5-0.4,0.8-0.2c0.3,0.2,0.4,0.5,0.2,0.8l0,0.1C257.9,231.8,257.7,231.8,257.5,231.8z
				 M259.6,228.5c-0.1,0-0.2,0-0.3-0.1c-0.3-0.2-0.4-0.5-0.2-0.8c0.2-0.3,0.5-0.4,0.8-0.2c0.3,0.2,0.4,0.5,0.2,0.8l0,0.1
				C260,228.5,259.8,228.5,259.6,228.5z M261.6,225.2c-0.1,0-0.2,0-0.3-0.1c-0.3-0.2-0.4-0.5-0.2-0.8c0.2-0.3,0.5-0.4,0.8-0.2
				c0.3,0.2,0.4,0.5,0.2,0.8l0,0.1C262,225.1,261.8,225.2,261.6,225.2z M263.7,221.9c-0.1,0-0.2,0-0.3-0.1c-0.3-0.2-0.4-0.5-0.2-0.8
				c0.2-0.3,0.5-0.4,0.8-0.2c0.3,0.2,0.4,0.5,0.2,0.8l0,0.1C264,221.8,263.9,221.9,263.7,221.9z M265.7,218.6c-0.1,0-0.2,0-0.3-0.1
				c-0.3-0.2-0.4-0.5-0.2-0.8c0.2-0.3,0.5-0.4,0.8-0.2c0.3,0.2,0.4,0.5,0.2,0.8l0,0.1C266.1,218.5,265.9,218.6,265.7,218.6z
				 M267.7,215.3c-0.1,0-0.2,0-0.3-0.1c-0.3-0.2-0.4-0.5-0.2-0.8c0.2-0.3,0.5-0.4,0.8-0.2c0.3,0.2,0.4,0.5,0.2,0.8l0,0.1
				C268.1,215.2,267.9,215.3,267.7,215.3z M269.8,212c-0.1,0-0.2,0-0.3-0.1c-0.3-0.2-0.4-0.5-0.2-0.8c0.2-0.3,0.5-0.4,0.8-0.2
				c0.3,0.2,0.4,0.5,0.2,0.8l0,0.1C270.2,211.9,270,212,269.8,212z M271.8,208.7c-0.1,0-0.2,0-0.3-0.1c-0.3-0.2-0.4-0.5-0.2-0.8
				c0.2-0.3,0.5-0.4,0.8-0.2c0.3,0.2,0.4,0.5,0.2,0.8l0,0.1C272.2,208.6,272,208.7,271.8,208.7z M273.9,205.4c-0.1,0-0.2,0-0.3-0.1
				c-0.3-0.2-0.4-0.5-0.2-0.8c0.2-0.3,0.5-0.4,0.8-0.2c0.3,0.2,0.4,0.5,0.2,0.8l0,0.1C274.2,205.3,274.1,205.4,273.9,205.4z
				 M275.9,202.1c-0.1,0-0.2,0-0.3-0.1c-0.3-0.2-0.4-0.5-0.2-0.8c0.2-0.3,0.5-0.4,0.8-0.2c0.3,0.2,0.4,0.5,0.2,0.8l0,0.1
				C276.3,202,276.1,202.1,275.9,202.1z M278,198.8c-0.1,0-0.2,0-0.3-0.1c-0.3-0.2-0.4-0.5-0.2-0.8c0.2-0.3,0.5-0.4,0.8-0.2
				c0.3,0.2,0.4,0.5,0.2,0.8l0,0.1C278.3,198.7,278.1,198.8,278,198.8z M280,195.5c-0.1,0-0.2,0-0.3-0.1c-0.3-0.2-0.4-0.5-0.2-0.8
				c0.2-0.3,0.5-0.4,0.8-0.2c0.3,0.2,0.4,0.5,0.2,0.8l0,0.1C280.4,195.4,280.2,195.5,280,195.5z M282,192.2c-0.1,0-0.2,0-0.3-0.1
				c-0.3-0.2-0.4-0.5-0.2-0.8c0.2-0.3,0.5-0.4,0.8-0.2c0.3,0.2,0.4,0.5,0.2,0.8l0,0.1C282.4,192.1,282.2,192.2,282,192.2z
				 M284.1,188.9c-0.1,0-0.2,0-0.3-0.1c-0.3-0.2-0.4-0.5-0.2-0.8c0.2-0.3,0.5-0.4,0.8-0.2c0.3,0.2,0.4,0.5,0.2,0.8l0,0.1
				C284.5,188.8,284.3,188.9,284.1,188.9z M286.1,185.6c-0.1,0-0.2,0-0.3-0.1c-0.3-0.2-0.4-0.5-0.2-0.8c0.2-0.3,0.5-0.4,0.8-0.2
				c0.3,0.2,0.4,0.5,0.2,0.8l0,0.1C286.5,185.5,286.3,185.6,286.1,185.6z M288.2,182.3c-0.1,0-0.2,0-0.3-0.1
				c-0.3-0.2-0.4-0.5-0.2-0.8c0.2-0.3,0.5-0.4,0.8-0.2c0.3,0.2,0.4,0.5,0.2,0.8l0,0.1C288.5,182.2,288.4,182.3,288.2,182.3z
				 M290.2,179c-0.1,0-0.2,0-0.3-0.1c-0.3-0.2-0.4-0.5-0.2-0.8c0.2-0.3,0.5-0.4,0.8-0.2c0.3,0.2,0.4,0.5,0.2,0.8l0,0.1
				C290.6,178.9,290.4,179,290.2,179z M292.2,175.7c-0.1,0-0.2,0-0.3-0.1c-0.3-0.2-0.4-0.5-0.2-0.8c0.2-0.3,0.5-0.4,0.8-0.2
				c0.3,0.2,0.4,0.5,0.2,0.8l0,0.1C292.6,175.6,292.4,175.7,292.2,175.7z M294.3,172.4c-0.1,0-0.2,0-0.3-0.1
				c-0.3-0.2-0.4-0.5-0.2-0.8c0.2-0.3,0.5-0.4,0.8-0.2c0.3,0.2,0.4,0.5,0.2,0.8l0,0.1C294.7,172.3,294.5,172.4,294.3,172.4z
				 M296.3,169.1c-0.1,0-0.2,0-0.3-0.1c-0.3-0.2-0.4-0.5-0.2-0.8c0.2-0.3,0.5-0.4,0.8-0.2c0.3,0.2,0.4,0.5,0.2,0.8l0,0.1
				C296.7,169,296.5,169.1,296.3,169.1z M298.4,165.8c-0.1,0-0.2,0-0.3-0.1c-0.3-0.2-0.4-0.5-0.2-0.8c0.2-0.3,0.5-0.4,0.8-0.2
				c0.3,0.2,0.4,0.5,0.2,0.8l0,0.1C298.7,165.7,298.6,165.8,298.4,165.8z M300.4,162.5c-0.1,0-0.2,0-0.3-0.1
				c-0.3-0.2-0.4-0.5-0.2-0.8c0.2-0.3,0.5-0.4,0.8-0.2c0.3,0.2,0.4,0.5,0.2,0.8l0,0.1C300.8,162.4,300.6,162.5,300.4,162.5z
				 M302.4,159.2c-0.1,0-0.2,0-0.3-0.1c-0.3-0.2-0.4-0.5-0.2-0.8c0.2-0.3,0.5-0.4,0.8-0.2c0.3,0.2,0.4,0.5,0.2,0.8l0,0.1
				C302.8,159.1,302.6,159.2,302.4,159.2z M304.5,155.9c-0.1,0-0.2,0-0.3-0.1c-0.3-0.2-0.4-0.5-0.2-0.8c0.2-0.3,0.5-0.4,0.8-0.2
				c0.3,0.2,0.4,0.5,0.2,0.8l0,0.1C304.9,155.8,304.7,155.9,304.5,155.9z M306.5,152.6c-0.1,0-0.2,0-0.3-0.1
				c-0.3-0.2-0.4-0.5-0.2-0.8c0.2-0.3,0.5-0.4,0.8-0.2c0.3,0.2,0.4,0.5,0.2,0.8l0,0.1C306.9,152.5,306.7,152.6,306.5,152.6z
				 M308.6,149.3c-0.1,0-0.2,0-0.3-0.1c-0.3-0.2-0.4-0.5-0.2-0.8c0.2-0.3,0.5-0.4,0.8-0.2c0.3,0.2,0.4,0.5,0.2,0.8l0,0.1
				C309,149.2,308.8,149.3,308.6,149.3z M310.6,146c-0.1,0-0.2,0-0.3-0.1c-0.3-0.2-0.4-0.5-0.2-0.8c0.2-0.3,0.5-0.4,0.8-0.2
				c0.3,0.2,0.4,0.5,0.2,0.8l0,0.1C311,145.9,310.8,146,310.6,146z M312.7,142.7c-0.1,0-0.2,0-0.3-0.1c-0.3-0.2-0.4-0.5-0.2-0.8
				l0-0.1c0.2-0.3,0.5-0.4,0.8-0.2c0.3,0.2,0.4,0.5,0.2,0.8l0,0.1C313,142.6,312.8,142.7,312.7,142.7z M314.7,139.4
				c-0.1,0-0.2,0-0.3-0.1c-0.3-0.2-0.4-0.5-0.2-0.8c0.2-0.3,0.5-0.4,0.8-0.2c0.3,0.2,0.4,0.5,0.2,0.8l0,0.1
				C315.1,139.3,314.9,139.4,314.7,139.4z M316.7,136.1c-0.1,0-0.2,0-0.3-0.1c-0.3-0.2-0.4-0.5-0.2-0.8c0.2-0.3,0.5-0.4,0.8-0.2
				c0.3,0.2,0.4,0.5,0.2,0.8l0,0.1C317.1,136,316.9,136.1,316.7,136.1z M318.8,132.8c-0.1,0-0.2,0-0.3-0.1c-0.3-0.2-0.4-0.5-0.2-0.8
				c0.2-0.3,0.5-0.4,0.8-0.2c0.3,0.2,0.4,0.5,0.2,0.8l0,0.1C319.2,132.7,319,132.8,318.8,132.8z M320.8,129.5c-0.1,0-0.2,0-0.3-0.1
				c-0.3-0.2-0.4-0.5-0.2-0.8c0.2-0.3,0.5-0.4,0.8-0.2c0.3,0.2,0.4,0.5,0.2,0.8l0,0.1C321.2,129.4,321,129.5,320.8,129.5z
				 M322.9,126.2c-0.1,0-0.2,0-0.3-0.1c-0.3-0.2-0.4-0.5-0.2-0.8c0.2-0.3,0.5-0.4,0.8-0.2c0.3,0.2,0.4,0.5,0.2,0.8l0,0.1
				C323.2,126.1,323.1,126.2,322.9,126.2z M324.9,122.9c-0.1,0-0.2,0-0.3-0.1c-0.3-0.2-0.4-0.5-0.2-0.8c0.2-0.3,0.5-0.4,0.8-0.2
				c0.3,0.2,0.4,0.5,0.2,0.8l0,0.1C325.3,122.8,325.1,122.9,324.9,122.9z M326.9,119.5c-0.1,0-0.2,0-0.3-0.1
				c-0.3-0.2-0.4-0.5-0.2-0.8l0-0.1c0.2-0.3,0.5-0.4,0.8-0.2c0.3,0.2,0.4,0.5,0.2,0.8l0,0.1C327.3,119.5,327.1,119.5,326.9,119.5z
				 M329,116.2c-0.1,0-0.2,0-0.3-0.1c-0.3-0.2-0.4-0.5-0.2-0.8c0.2-0.3,0.5-0.4,0.8-0.2c0.3,0.2,0.4,0.5,0.2,0.8l0,0.1
				C329.4,116.1,329.2,116.2,329,116.2z M331,112.9c-0.1,0-0.2,0-0.3-0.1c-0.3-0.2-0.4-0.5-0.2-0.8c0.2-0.3,0.5-0.4,0.8-0.2
				c0.3,0.2,0.4,0.5,0.2,0.8l0,0.1C331.4,112.8,331.2,112.9,331,112.9z M333.1,109.6c-0.1,0-0.2,0-0.3-0.1c-0.3-0.2-0.4-0.5-0.2-0.8
				c0.2-0.3,0.5-0.4,0.8-0.2c0.3,0.2,0.4,0.5,0.2,0.8l0,0.1C333.5,109.5,333.3,109.6,333.1,109.6z M335.1,106.3
				c-0.1,0-0.2,0-0.3-0.1c-0.3-0.2-0.4-0.5-0.2-0.8c0.2-0.3,0.5-0.4,0.8-0.2c0.3,0.2,0.4,0.5,0.2,0.8l0,0.1
				C335.5,106.2,335.3,106.3,335.1,106.3z M337.2,103c-0.1,0-0.2,0-0.3-0.1c-0.3-0.2-0.4-0.5-0.2-0.8c0.2-0.3,0.5-0.4,0.8-0.2
				c0.3,0.2,0.4,0.5,0.2,0.8l0,0.1C337.5,102.9,337.3,103,337.2,103z M339.2,99.7c-0.1,0-0.2,0-0.3-0.1c-0.3-0.2-0.4-0.5-0.2-0.8
				c0.2-0.3,0.5-0.4,0.8-0.2c0.3,0.2,0.4,0.5,0.2,0.8l0,0.1C339.6,99.6,339.4,99.7,339.2,99.7z M341.2,96.4c-0.1,0-0.2,0-0.3-0.1
				c-0.3-0.2-0.4-0.5-0.2-0.8c0.2-0.3,0.5-0.4,0.8-0.2c0.3,0.2,0.4,0.5,0.2,0.8l0,0.1C341.6,96.3,341.4,96.4,341.2,96.4z
				 M343.3,93.1c-0.1,0-0.2,0-0.3-0.1c-0.3-0.2-0.4-0.5-0.2-0.8c0.2-0.3,0.5-0.4,0.8-0.2c0.3,0.2,0.4,0.5,0.2,0.8l0,0.1
				C343.7,93,343.5,93.1,343.3,93.1z M345.3,89.8c-0.1,0-0.2,0-0.3-0.1c-0.3-0.2-0.4-0.5-0.2-0.8c0.2-0.3,0.5-0.4,0.8-0.2
				c0.3,0.2,0.4,0.5,0.2,0.8l0,0.1C345.7,89.7,345.5,89.8,345.3,89.8z M347.4,86.5c-0.1,0-0.2,0-0.3-0.1c-0.3-0.2-0.4-0.5-0.2-0.8
				l0-0.1c0.2-0.3,0.5-0.4,0.8-0.2c0.3,0.2,0.4,0.5,0.2,0.8l0,0.1C347.7,86.4,347.6,86.5,347.4,86.5z M349.4,83.2
				c-0.1,0-0.2,0-0.3-0.1c-0.3-0.2-0.4-0.5-0.2-0.8c0.2-0.3,0.5-0.4,0.8-0.2c0.3,0.2,0.4,0.5,0.2,0.8l0,0.1
				C349.8,83.1,349.6,83.2,349.4,83.2z M351.4,79.9c-0.1,0-0.2,0-0.3-0.1c-0.3-0.2-0.4-0.5-0.2-0.8c0.2-0.3,0.5-0.4,0.8-0.2
				c0.3,0.2,0.4,0.5,0.2,0.8l0,0.1C351.8,79.8,351.6,79.9,351.4,79.9z M353.5,76.6c-0.1,0-0.2,0-0.3-0.1c-0.3-0.2-0.4-0.5-0.2-0.8
				c0.2-0.3,0.5-0.4,0.8-0.2c0.3,0.2,0.4,0.5,0.2,0.8l0,0.1C353.9,76.5,353.7,76.6,353.5,76.6z M355.5,73.3c-0.1,0-0.2,0-0.3-0.1
				c-0.3-0.2-0.4-0.5-0.2-0.8c0.2-0.3,0.5-0.4,0.8-0.2c0.3,0.2,0.4,0.5,0.2,0.8l0,0.1C355.9,73.2,355.7,73.3,355.5,73.3z M357.6,70
				c-0.1,0-0.2,0-0.3-0.1c-0.3-0.2-0.4-0.5-0.2-0.8c0.2-0.3,0.5-0.4,0.8-0.2c0.3,0.2,0.4,0.5,0.2,0.8l0,0.1
				C357.9,69.9,357.8,70,357.6,70z M359.6,66.7c-0.1,0-0.2,0-0.3-0.1c-0.3-0.2-0.4-0.5-0.2-0.8c0.2-0.3,0.5-0.4,0.8-0.2
				c0.3,0.2,0.4,0.5,0.2,0.8l0,0.1C360,66.6,359.8,66.7,359.6,66.7z M361.6,63.4c-0.1,0-0.2,0-0.3-0.1c-0.3-0.2-0.4-0.5-0.2-0.8
				l0-0.1c0.2-0.3,0.5-0.4,0.8-0.2c0.3,0.2,0.4,0.5,0.2,0.8l0,0.1C362,63.3,361.8,63.4,361.6,63.4z M363.7,60.1
				c-0.1,0-0.2,0-0.3-0.1c-0.3-0.2-0.4-0.5-0.2-0.8c0.2-0.3,0.5-0.4,0.8-0.2c0.3,0.2,0.4,0.5,0.2,0.8l0,0.1
				C364.1,60,363.9,60.1,363.7,60.1z M365.7,56.8c-0.1,0-0.2,0-0.3-0.1c-0.3-0.2-0.4-0.5-0.2-0.8c0.2-0.3,0.5-0.4,0.8-0.2
				c0.3,0.2,0.4,0.5,0.2,0.8l0,0.1C366.1,56.7,365.9,56.8,365.7,56.8z M367.8,53.5c-0.1,0-0.2,0-0.3-0.1c-0.3-0.2-0.4-0.5-0.2-0.8
				c0.2-0.3,0.5-0.4,0.8-0.2c0.3,0.2,0.4,0.5,0.2,0.8l0,0.1C368.2,53.4,368,53.5,367.8,53.5z M369.8,50.2c-0.1,0-0.2,0-0.3-0.1
				c-0.3-0.2-0.4-0.5-0.2-0.8c0.2-0.3,0.5-0.4,0.8-0.2c0.3,0.2,0.4,0.5,0.2,0.8l0,0.1C370.2,50.1,370,50.2,369.8,50.2z M371.9,46.9
				c-0.1,0-0.2,0-0.3-0.1c-0.3-0.2-0.4-0.5-0.2-0.8c0.2-0.3,0.5-0.4,0.8-0.2c0.3,0.2,0.4,0.5,0.2,0.8l0,0.1
				C372.2,46.8,372,46.9,371.9,46.9z M373.9,43.6c-0.1,0-0.2,0-0.3-0.1c-0.3-0.2-0.4-0.5-0.2-0.8c0.2-0.3,0.5-0.4,0.8-0.2
				c0.3,0.2,0.4,0.5,0.2,0.8l0,0.1C374.3,43.5,374.1,43.6,373.9,43.6z M375.9,40.3c-0.1,0-0.2,0-0.3-0.1c-0.3-0.2-0.4-0.5-0.2-0.8
				l0-0.1c0.2-0.3,0.5-0.4,0.8-0.2c0.3,0.2,0.4,0.5,0.2,0.8l0,0.1C376.3,40.2,376.1,40.3,375.9,40.3z M378,37c-0.1,0-0.2,0-0.3-0.1
				c-0.3-0.2-0.4-0.5-0.2-0.8c0.2-0.3,0.5-0.4,0.8-0.2c0.3,0.2,0.4,0.5,0.2,0.8l0,0.1C378.4,36.9,378.2,37,378,37z M380,33.7
				c-0.1,0-0.2,0-0.3-0.1c-0.3-0.2-0.4-0.5-0.2-0.8c0.2-0.3,0.5-0.4,0.8-0.2c0.3,0.2,0.4,0.5,0.2,0.8l0,0.1
				C380.4,33.6,380.2,33.7,380,33.7z M382.1,30.4c-0.1,0-0.2,0-0.3-0.1c-0.3-0.2-0.4-0.5-0.2-0.8c0.2-0.3,0.5-0.4,0.8-0.2
				c0.3,0.2,0.4,0.5,0.2,0.8l0,0.1C382.4,30.3,382.3,30.4,382.1,30.4z M384.1,27.1c-0.1,0-0.2,0-0.3-0.1c-0.3-0.2-0.4-0.5-0.2-0.8
				c0.2-0.3,0.5-0.4,0.8-0.2c0.3,0.2,0.4,0.5,0.2,0.8l0,0.1C384.5,27,384.3,27.1,384.1,27.1z M386.1,23.8c-0.1,0-0.2,0-0.3-0.1
				c-0.3-0.2-0.4-0.5-0.2-0.8c0.2-0.3,0.5-0.4,0.8-0.2c0.3,0.2,0.4,0.5,0.2,0.8l0,0.1C386.5,23.7,386.3,23.8,386.1,23.8z
				 M388.2,20.5c-0.1,0-0.2,0-0.3-0.1c-0.3-0.2-0.4-0.5-0.2-0.8c0.2-0.3,0.5-0.4,0.8-0.2c0.3,0.2,0.4,0.5,0.2,0.8l0,0.1
				C388.6,20.4,388.4,20.5,388.2,20.5z M390.2,17.2c-0.1,0-0.2,0-0.3-0.1c-0.3-0.2-0.4-0.5-0.2-0.8l0-0.1c0.2-0.3,0.5-0.4,0.8-0.2
				c0.3,0.2,0.4,0.5,0.2,0.8l0,0.1C390.6,17.1,390.4,17.2,390.2,17.2z M392.3,13.9c-0.1,0-0.2,0-0.3-0.1c-0.3-0.2-0.4-0.5-0.2-0.8
				l0-0.1c0.2-0.3,0.5-0.4,0.8-0.2c0.3,0.2,0.4,0.5,0.2,0.8l0,0.1C392.6,13.8,392.5,13.9,392.3,13.9z M394.3,10.5
				c-0.1,0-0.2,0-0.3-0.1c-0.3-0.2-0.4-0.5-0.2-0.8c0.2-0.3,0.5-0.4,0.8-0.2c0.3,0.2,0.4,0.5,0.2,0.8l0,0.1
				C394.7,10.5,394.5,10.5,394.3,10.5z M396.4,7.2c-0.1,0-0.2,0-0.3-0.1c-0.3-0.2-0.4-0.5-0.2-0.8c0.2-0.3,0.5-0.4,0.8-0.2
				c0.3,0.2,0.4,0.5,0.2,0.8l0,0.1C396.7,7.1,396.5,7.2,396.4,7.2z M398.4,3.9c-0.1,0-0.2,0-0.3-0.1c-0.3-0.2-0.4-0.5-0.2-0.8
				c0.2-0.3,0.5-0.4,0.8-0.2c0.3,0.2,0.4,0.5,0.2,0.8l0,0.1C398.8,3.8,398.6,3.9,398.4,3.9z M400.4,0.6c-0.1,0-0.2,0-0.3-0.1
				c-0.3-0.2-0.4-0.5-0.2-0.8c0.2-0.3,0.5-0.4,0.8-0.2c0.3,0.2,0.4,0.5,0.2,0.8l0,0.1C400.8,0.5,400.6,0.6,400.4,0.6z"/>
		</g>
		<g>
			<path class="st6" d="M0,248.3c-0.4,0-0.8-0.3-0.8-0.8C-0.8,181.2,25.1,118.9,72,72C118.8,25.1,181.2-0.8,247.5-0.8
				c84.8,0,153.7,69,153.7,153.7c0,52.5-42.8,95.3-95.3,95.3h0c0,0,0,0,0,0c-32.6,0-59.2-26.6-59.2-59.2l0-0.8
				c0.4-20,16.8-36.1,36.9-36.1c12.7,0,23.1,10.4,23.1,23.1c0,8-6.5,14.6-14.6,14.6c-5.1,0-9.3-4.2-9.3-9.3c0-3.3,2.7-6,6-6
				c0.4,0,0.8,0.3,0.8,0.8c0,0.4-0.3,0.8-0.8,0.8c-2.5,0-4.5,2-4.5,4.5c0,4.3,3.5,7.8,7.8,7.8c7.2,0,13-5.8,13-13
				c0-11.9-9.7-21.6-21.6-21.6c-9.4,0-18.3,3.7-25,10.4c-6.7,6.7-10.4,15.6-10.4,25v0.5c0.3,31.6,26,57.2,57.7,57.2
				c51.7,0,93.8-42.1,93.8-93.8C399.7,69,331.4,0.8,247.5,0.8C111.5,0.8,0.8,111.5,0.8,247.5C0.8,247.9,0.4,248.3,0,248.3z"/>
		</g>
	</g>
	<g class="st0">
		<path class="st7" d="M113.2-82.6c0-3.8,1.8-5.8,5.3-5.8c1.6,0,2.8,0.4,3.8,1.2c0.9,0.8,1.4,2,1.4,3.5v0.1H121v-0.1
			c0-0.7-0.2-1.2-0.6-1.6c-0.4-0.4-1-0.7-1.8-0.7c-0.9,0-1.5,0.3-1.9,0.8c-0.4,0.5-0.6,1.4-0.6,2.7v3.1c0,1.2,0.2,2,0.6,2.6
			c0.4,0.5,1.1,0.8,2,0.8c0.8,0,1.5-0.2,1.8-0.7c0.4-0.4,0.6-1.1,0.6-2v-0.7h-2.6v-2.3h5.2v2.5c0,3.7-1.7,5.6-5.2,5.6
			c-3.5,0-5.3-1.9-5.3-5.8V-82.6z"/>
		<path class="st7" d="M130-82.6c0-3.8,1.8-5.8,5.3-5.8c1.6,0,2.9,0.5,3.8,1.4c0.9,0.9,1.4,2.4,1.4,4.4v3.3c0,2-0.5,3.5-1.4,4.4
			c-1,0.9-2.3,1.4-3.9,1.4c-3.5,0-5.2-1.9-5.2-5.8V-82.6z M137.8-79.3v-3.1c0-1.2-0.2-2.1-0.6-2.7c-0.4-0.6-1-0.8-1.9-0.8
			c-0.9,0-1.5,0.3-1.9,0.8c-0.4,0.5-0.6,1.4-0.6,2.7v3.1c0,1.2,0.2,2,0.6,2.6c0.4,0.5,1,0.8,1.9,0.8c0.8,0,1.5-0.3,1.9-0.8
			C137.6-77.3,137.8-78.1,137.8-79.3z"/>
		<path class="st7" d="M149.5-88.1V-76h6.3v2.4h-9.1v-14.5H149.5z"/>
		<path class="st7" d="M166.9-88.1c1.6,0,2.9,0.4,3.8,1.3c0.9,0.9,1.4,2.4,1.4,4.4v3c0,2-0.5,3.5-1.4,4.4c-1,0.9-2.2,1.4-3.9,1.4h-5
			v-14.5H166.9z M168.8-76.8c0.4-0.5,0.6-1.4,0.6-2.6v-2.8c0-1.2-0.2-2.1-0.6-2.7c-0.4-0.6-1-0.8-1.9-0.8h-2.3v9.7h2.3
			C167.7-76,168.4-76.3,168.8-76.8z"/>
		<path class="st7" d="M181.2-82.1h5.5v2.4h-5.5v3.7h6.4v2.4h-9.2v-14.5h9.2v2.4h-6.4V-82.1z"/>
		<path class="st7" d="M204.6-73.6h-2.8l-5.3-9v9h-2.8v-14.5h2.8l5.3,9.1v-9.1h2.8V-73.6z"/>
		<path class="st7" d="M222.9-79.5v5.9h-2.8v-14.5h5.5c1.4,0,2.5,0.4,3.4,1.2c0.8,0.8,1.3,1.8,1.3,3.2c0,1-0.2,1.8-0.7,2.4
			c-0.4,0.7-1.1,1.1-1.9,1.4l3.1,6.3h-3.2l-2.8-5.9H222.9z M225.5-81.8c0.6,0,1.1-0.2,1.5-0.5c0.4-0.3,0.5-0.8,0.5-1.5
			c0-0.6-0.2-1.1-0.5-1.4c-0.4-0.4-0.9-0.5-1.5-0.5h-2.6v3.9H225.5z"/>
		<path class="st7" d="M239.5-76.5l-0.9,2.8h-2.9l5.1-14.5h2.2l5.2,14.5h-2.9l-0.9-2.8H239.5z M242-84.3l-1.7,5.6h3.5L242-84.3z"/>
		<path class="st7" d="M257.9-85.7v12.1h-2.8v-12.1h-3.7v-2.4h10.2v2.4H257.9z"/>
		<path class="st7" d="M270-88.1v14.5h-2.8v-14.5H270z"/>
		<path class="st7" d="M276.6-82.6c0-3.8,1.8-5.8,5.3-5.8c1.6,0,2.9,0.5,3.8,1.4c0.9,0.9,1.4,2.4,1.4,4.4v3.3c0,2-0.5,3.5-1.4,4.4
			c-1,0.9-2.3,1.4-3.9,1.4c-3.5,0-5.2-1.9-5.2-5.8V-82.6z M284.4-79.3v-3.1c0-1.2-0.2-2.1-0.6-2.7c-0.4-0.6-1-0.8-1.9-0.8
			c-0.9,0-1.5,0.3-1.9,0.8c-0.4,0.5-0.6,1.4-0.6,2.7v3.1c0,1.2,0.2,2,0.6,2.6c0.4,0.5,1,0.8,1.9,0.8c0.8,0,1.5-0.3,1.9-0.8
			C284.2-77.3,284.4-78.1,284.4-79.3z"/>
		<path class="st7" d="M175.1-63.9l2.1,6.9l2.1-6.9h0.9l-2.7,8.3h-0.7l-2.7-8.3H175.1z"/>
		<path class="st7" d="M184.6-60.2h3.5v0.8h-3.5v3h4.1v0.8h-5v-8.3h5v0.8h-4.1V-60.2z"/>
		<path class="st7" d="M192.6-58.7v-2.1c0-1.1,0.3-1.9,0.8-2.4c0.5-0.5,1.2-0.8,2.1-0.8c0.6,0,1.1,0.1,1.5,0.3
			c0.4,0.2,0.8,0.5,1,0.9c0.2,0.4,0.3,0.8,0.3,1.3v0h-0.9v0c0-0.5-0.2-1-0.5-1.3c-0.3-0.3-0.8-0.5-1.4-0.5c-0.7,0-1.2,0.2-1.5,0.6
			c-0.3,0.4-0.5,1-0.5,1.8v2.2c0,1.5,0.7,2.3,2.1,2.3c0.6,0,1.1-0.2,1.4-0.5c0.3-0.3,0.5-0.7,0.5-1.3v0h0.9v0c0,0.8-0.3,1.4-0.8,1.8
			c-0.5,0.5-1.2,0.7-2,0.7c-0.9,0-1.6-0.3-2.1-0.8C192.8-56.8,192.6-57.6,192.6-58.7z"/>
		<path class="st7" d="M204.8-63.1v7.5h-0.9v-7.5h-2.4v-0.8h5.6v0.8H204.8z"/>
		<path class="st7" d="M210.1-58.7v-2.1c0-1.1,0.3-1.9,0.8-2.4c0.5-0.5,1.2-0.8,2.1-0.8c0.9,0,1.6,0.3,2.1,0.8
			c0.5,0.5,0.8,1.3,0.8,2.4v2.1c0,1.1-0.3,1.9-0.8,2.4c-0.5,0.5-1.2,0.8-2.1,0.8c-0.9,0-1.6-0.3-2.1-0.8
			C210.4-56.8,210.1-57.6,210.1-58.7z M215-60.8c0-1.6-0.7-2.4-2-2.4c-0.7,0-1.2,0.2-1.5,0.6c-0.3,0.4-0.5,1-0.5,1.8v2.2
			c0,0.8,0.2,1.4,0.5,1.8c0.3,0.4,0.8,0.6,1.5,0.6c1.3,0,2-0.8,2-2.3V-60.8z"/>
		<path class="st7" d="M220.9-59.3v3.6H220v-8.3h3.1c0.8,0,1.4,0.2,1.8,0.6c0.4,0.4,0.7,1,0.7,1.7c0,0.6-0.2,1.1-0.5,1.5
			c-0.3,0.4-0.7,0.6-1.3,0.8l2,3.7h-1l-1.9-3.6H220.9z M223-60c0.5,0,1-0.1,1.2-0.4c0.3-0.3,0.4-0.6,0.4-1.1c0-0.5-0.1-0.9-0.4-1.2
			c-0.3-0.3-0.7-0.4-1.3-0.4h-2.1v3.1H223z"/>
	</g>
</g>
<g id="DESIGNED_BY_FREEPIK" class="st0">
</g>
</svg>
