<?xml version="1.0" encoding="utf-8"?>
<!-- Generator: Adobe Illustrator 23.0.5, SVG Export Plug-In . SVG Version: 6.00 Build 0)  -->
<svg version="1.1" xmlns="http://www.w3.org/2000/svg" xmlns:xlink="http://www.w3.org/1999/xlink" x="0px" y="0px"
	 viewBox="0 0 400.5 247.5" style="enable-background:new 0 0 400.5 247.5;" xml:space="preserve">
<style type="text/css">
	.st0{display:none;}
	.st1{display:inline;fill:#F5F8FC;}
	.st2{fill:#759DCC;}
	.st3{fill:#CAB2F4;}
	.st4{display:inline;fill:#764AFF;}
	.st5{fill:#764AFF;}
</style>
<g id="BACKGROUND" class="st0">
	<rect x="-49.8" y="-148.3" class="st1" width="500" height="500"/>
</g>
<g id="OBJECTS">
	<g>
		<g>
			<g>
				<path class="st2" d="M247.1,0.4v246.8H0.4V0.4H247.1 M247.5,0H0v247.5h247.5V0L247.5,0z"/>
				<path class="st2" d="M400.1,0.4v246.8H0.4V0.4H400.1 M400.5,0H0v247.5h400.5V0L400.5,0z"/>
				<path class="st2" d="M400.1,0.4v152.2H247.9V0.4H400.1 M400.5,0h-153v153h153V0L400.5,0z"/>
				<path class="st2" d="M400.1,0.4v246.7H247.9V0.4H400.1 M400.5,0h-153v247.5h153V0L400.5,0z"/>
				<path class="st2" d="M400.1,153.3v93.8h-93.8v-93.8H400.1 M400.5,153h-94.5v94.5h94.5V153L400.5,153z"/>
				<path class="st2" d="M400.1,153.3v93.8H247.9v-93.8H400.1 M400.5,153h-153v94.5h153V153L400.5,153z"/>
				<path class="st2" d="M305.6,189.5v57.7h-57.7v-57.7H305.6 M305.9,189.1h-58.4v58.4h58.4V189.1L305.9,189.1z"/>
				<path class="st2" d="M305.6,153.3v93.8h-57.7v-93.8H305.6 M305.9,153h-58.4v94.5h58.4V153L305.9,153z"/>
				<path class="st2" d="M283.2,153.3v35.3h-35.3v-35.3H283.2 M283.6,153h-36.1v36.1h36.1V153L283.6,153z"/>
				<path class="st2" d="M305.6,153.3v35.3h-57.7v-35.3H305.6 M305.9,153h-58.4v36.1h58.4V153L305.9,153z"/>
				<path class="st2" d="M305.6,153.3v21.6H284v-21.6H305.6 M305.9,153h-22.3v22.3h22.3V153L305.9,153z"/>
				<path class="st2" d="M305.6,153.3v35.3H284v-35.3H305.6 M305.9,153h-22.3v36.1h22.3V153L305.9,153z"/>
				<path class="st2" d="M305.6,175.7v13h-13v-13H305.6 M305.9,175.3h-13.8v13.8h13.8V175.3L305.9,175.3z"/>
				<path class="st2" d="M305.6,175.7v13H284v-13H305.6 M305.9,175.3h-22.3v13.8h22.3V175.3L305.9,175.3z"/>
				<path class="st2" d="M291.8,180.9v7.8H284v-7.8H291.8 M292.1,180.6h-8.5v8.5h8.5V180.6L292.1,180.6z"/>
				<path class="st2" d="M291.8,175.7v13H284v-13H291.8 M292.1,175.3h-8.5v13.8h8.5V175.3L292.1,175.3z"/>
				<path class="st2" d="M288.5,175.7v4.5H284v-4.5H288.5 M288.9,175.3h-5.3v5.3h5.3V175.3L288.9,175.3z"/>
				<path class="st2" d="M291.8,175.7v4.5H284v-4.5H291.8 M292.1,175.3h-8.5v5.3h8.5V175.3L292.1,175.3z"/>
			</g>
			<g>
				<path class="st3" d="M0,0.6c-0.1,0-0.2,0-0.3-0.1C-0.5,0.3-0.6,0-0.5-0.3C-0.3-0.6,0-0.6,0.3-0.5l0,0c0.3,0.2,0.4,0.5,0.2,0.8
					C0.4,0.5,0.2,0.6,0,0.6z"/>
				<path class="st3" d="M400.5,248.1c-0.1,0-0.2,0-0.3-0.1c-0.3-0.2-0.4-0.5-0.2-0.8c0.2-0.3,0.5-0.4,0.8-0.2l0,0
					c0.3,0.2,0.4,0.5,0.2,0.8C400.9,248,400.7,248.1,400.5,248.1z"/>
			</g>
		</g>
		<g class="st0">
			<path class="st4" d="M0,248.3c-0.4,0-0.8-0.3-0.8-0.8C-0.8,181.2,25.1,118.9,72,72C118.8,25.1,181.2-0.8,247.5-0.8
				c84.8,0,153.7,69,153.7,153.7c0,52.5-42.8,95.3-95.3,95.3h0c0,0,0,0,0,0c-32.6,0-59.2-26.6-59.2-59.2l0-0.8
				c0.4-20,16.8-36.1,36.9-36.1c12.7,0,23.1,10.4,23.1,23.1c0,8-6.5,14.6-14.6,14.6c-5.1,0-9.3-4.2-9.3-9.3c0-3.3,2.7-6,6-6
				c0.4,0,0.8,0.3,0.8,0.8c0,0.4-0.3,0.8-0.8,0.8c-2.5,0-4.5,2-4.5,4.5c0,4.3,3.5,7.8,7.8,7.8c7.2,0,13-5.8,13-13
				c0-11.9-9.7-21.6-21.6-21.6c-9.4,0-18.3,3.7-25,10.4c-6.7,6.7-10.4,15.6-10.4,25v0.5c0.3,31.6,26,57.2,57.7,57.2
				c51.7,0,93.8-42.1,93.8-93.8C399.7,69,331.4,0.8,247.5,0.8C111.5,0.8,0.8,111.5,0.8,247.5C0.8,247.9,0.4,248.3,0,248.3z"/>
		</g>
	</g>
	<g>
		<path class="st5" d="M113.2-82.6c0-3.8,1.8-5.8,5.3-5.8c1.6,0,2.8,0.4,3.8,1.2c0.9,0.8,1.4,2,1.4,3.5v0.1H121v-0.1
			c0-0.7-0.2-1.2-0.6-1.6c-0.4-0.4-1-0.7-1.8-0.7c-0.9,0-1.5,0.3-1.9,0.8c-0.4,0.5-0.6,1.4-0.6,2.7v3.1c0,1.2,0.2,2,0.6,2.6
			c0.4,0.5,1.1,0.8,2,0.8c0.8,0,1.5-0.2,1.8-0.7c0.4-0.4,0.6-1.1,0.6-2v-0.7h-2.6v-2.3h5.2v2.5c0,3.7-1.7,5.6-5.2,5.6
			c-3.5,0-5.3-1.9-5.3-5.8V-82.6z"/>
		<path class="st5" d="M130-82.6c0-3.8,1.8-5.8,5.3-5.8c1.6,0,2.9,0.5,3.8,1.4c0.9,0.9,1.4,2.4,1.4,4.4v3.3c0,2-0.5,3.5-1.4,4.4
			c-1,0.9-2.3,1.4-3.9,1.4c-3.5,0-5.2-1.9-5.2-5.8V-82.6z M137.8-79.3v-3.1c0-1.2-0.2-2.1-0.6-2.7c-0.4-0.6-1-0.8-1.9-0.8
			c-0.9,0-1.5,0.3-1.9,0.8c-0.4,0.5-0.6,1.4-0.6,2.7v3.1c0,1.2,0.2,2,0.6,2.6c0.4,0.5,1,0.8,1.9,0.8c0.8,0,1.5-0.3,1.9-0.8
			C137.6-77.3,137.8-78.1,137.8-79.3z"/>
		<path class="st5" d="M149.5-88.1V-76h6.3v2.4h-9.1v-14.5H149.5z"/>
		<path class="st5" d="M166.9-88.1c1.6,0,2.9,0.4,3.8,1.3c0.9,0.9,1.4,2.4,1.4,4.4v3c0,2-0.5,3.5-1.4,4.4c-1,0.9-2.2,1.4-3.9,1.4h-5
			v-14.5H166.9z M168.8-76.8c0.4-0.5,0.6-1.4,0.6-2.6v-2.8c0-1.2-0.2-2.1-0.6-2.7c-0.4-0.6-1-0.8-1.9-0.8h-2.3v9.7h2.3
			C167.7-76,168.4-76.3,168.8-76.8z"/>
		<path class="st5" d="M181.2-82.1h5.5v2.4h-5.5v3.7h6.4v2.4h-9.2v-14.5h9.2v2.4h-6.4V-82.1z"/>
		<path class="st5" d="M204.6-73.6h-2.8l-5.3-9v9h-2.8v-14.5h2.8l5.3,9.1v-9.1h2.8V-73.6z"/>
		<path class="st5" d="M222.9-79.5v5.9h-2.8v-14.5h5.5c1.4,0,2.5,0.4,3.4,1.2c0.8,0.8,1.3,1.8,1.3,3.2c0,1-0.2,1.8-0.7,2.4
			c-0.4,0.7-1.1,1.1-1.9,1.4l3.1,6.3h-3.2l-2.8-5.9H222.9z M225.5-81.8c0.6,0,1.1-0.2,1.5-0.5c0.4-0.3,0.5-0.8,0.5-1.5
			c0-0.6-0.2-1.1-0.5-1.4c-0.4-0.4-0.9-0.5-1.5-0.5h-2.6v3.9H225.5z"/>
		<path class="st5" d="M239.5-76.5l-0.9,2.8h-2.9l5.1-14.5h2.2l5.2,14.5h-2.9l-0.9-2.8H239.5z M242-84.3l-1.7,5.6h3.5L242-84.3z"/>
		<path class="st5" d="M257.9-85.7v12.1h-2.8v-12.1h-3.7v-2.4h10.2v2.4H257.9z"/>
		<path class="st5" d="M270-88.1v14.5h-2.8v-14.5H270z"/>
		<path class="st5" d="M276.6-82.6c0-3.8,1.8-5.8,5.3-5.8c1.6,0,2.9,0.5,3.8,1.4c0.9,0.9,1.4,2.4,1.4,4.4v3.3c0,2-0.5,3.5-1.4,4.4
			c-1,0.9-2.3,1.4-3.9,1.4c-3.5,0-5.2-1.9-5.2-5.8V-82.6z M284.4-79.3v-3.1c0-1.2-0.2-2.1-0.6-2.7c-0.4-0.6-1-0.8-1.9-0.8
			c-0.9,0-1.5,0.3-1.9,0.8c-0.4,0.5-0.6,1.4-0.6,2.7v3.1c0,1.2,0.2,2,0.6,2.6c0.4,0.5,1,0.8,1.9,0.8c0.8,0,1.5-0.3,1.9-0.8
			C284.2-77.3,284.4-78.1,284.4-79.3z"/>
		<path class="st5" d="M175.1-63.9l2.1,6.9l2.1-6.9h0.9l-2.7,8.3h-0.7l-2.7-8.3H175.1z"/>
		<path class="st5" d="M184.6-60.2h3.5v0.8h-3.5v3h4.1v0.8h-5v-8.3h5v0.8h-4.1V-60.2z"/>
		<path class="st5" d="M192.6-58.7v-2.1c0-1.1,0.3-1.9,0.8-2.4c0.5-0.5,1.2-0.8,2.1-0.8c0.6,0,1.1,0.1,1.5,0.3
			c0.4,0.2,0.8,0.5,1,0.9c0.2,0.4,0.3,0.8,0.3,1.3v0h-0.9v0c0-0.5-0.2-1-0.5-1.3c-0.3-0.3-0.8-0.5-1.4-0.5c-0.7,0-1.2,0.2-1.5,0.6
			c-0.3,0.4-0.5,1-0.5,1.8v2.2c0,1.5,0.7,2.3,2.1,2.3c0.6,0,1.1-0.2,1.4-0.5c0.3-0.3,0.5-0.7,0.5-1.3v0h0.9v0c0,0.8-0.3,1.4-0.8,1.8
			c-0.5,0.5-1.2,0.7-2,0.7c-0.9,0-1.6-0.3-2.1-0.8C192.8-56.8,192.6-57.6,192.6-58.7z"/>
		<path class="st5" d="M204.8-63.1v7.5h-0.9v-7.5h-2.4v-0.8h5.6v0.8H204.8z"/>
		<path class="st5" d="M210.1-58.7v-2.1c0-1.1,0.3-1.9,0.8-2.4c0.5-0.5,1.2-0.8,2.1-0.8c0.9,0,1.6,0.3,2.1,0.8
			c0.5,0.5,0.8,1.3,0.8,2.4v2.1c0,1.1-0.3,1.9-0.8,2.4c-0.5,0.5-1.2,0.8-2.1,0.8c-0.9,0-1.6-0.3-2.1-0.8
			C210.4-56.8,210.1-57.6,210.1-58.7z M215-60.8c0-1.6-0.7-2.4-2-2.4c-0.7,0-1.2,0.2-1.5,0.6c-0.3,0.4-0.5,1-0.5,1.8v2.2
			c0,0.8,0.2,1.4,0.5,1.8c0.3,0.4,0.8,0.6,1.5,0.6c1.3,0,2-0.8,2-2.3V-60.8z"/>
		<path class="st5" d="M220.9-59.3v3.6H220v-8.3h3.1c0.8,0,1.4,0.2,1.8,0.6c0.4,0.4,0.7,1,0.7,1.7c0,0.6-0.2,1.1-0.5,1.5
			c-0.3,0.4-0.7,0.6-1.3,0.8l2,3.7h-1l-1.9-3.6H220.9z M223-60c0.5,0,1-0.1,1.2-0.4c0.3-0.3,0.4-0.6,0.4-1.1c0-0.5-0.1-0.9-0.4-1.2
			c-0.3-0.3-0.7-0.4-1.3-0.4h-2.1v3.1H223z"/>
	</g>
</g>
<g id="DESIGNED_BY_FREEPIK" class="st0">
</g>
</svg>
