<svg width="808" height="436" viewBox="0 0 808 436" fill="none" xmlns="http://www.w3.org/2000/svg">
    <path d="M212.769 89.4809V78.7144L201.801 67.629H180.738V57.2614H214.597L237.328 80.0702L232.162 85.254L240.428 93.5482L228.665 105.351L212.769 89.4809Z" fill="#333F48" fill-opacity="1"/>
    <path d="M183.839 23.2874H177.56V16.9871L191.866 2.63184H243.052L222.705 23.0482H207.921V41.1517H183.839V23.2874Z" fill="#333F48" fill-opacity="1"/>
    <path d="M17.4063 126.804L0 109.339V83.1007L16.6909 66.353H44.0323L48.8011 71.0583H108.729L115.167 77.5182H164.366V57.2614H173.745V69.7025L181.931 77.9967H193.535V86.53L175.096 105.112V117.872L193.535 136.375H205.219V106.308H221.671L249.808 134.461V150.65H232.163V171.385L202.517 201.133V214.212H194.648L186.223 205.678H167.307L158.405 214.69V231.358L165.161 238.057H178.434L198.94 258.633H257.756L292.568 293.564V331.446L270.631 353.457V368.052L232.083 406.731V436H222.228L208.239 421.964V386.634L216.585 378.18V320.361L197.509 301.22V271.952L174.142 248.505H153.874L134.402 228.886V219.316L101.338 186.139V148.178L68.1944 115.001H40.6941L28.9309 126.804H17.4063Z" fill="#333F48" fill-opacity="1"/>
    <path d="M230.335 29.0294L248.774 10.6069H283.189L293.76 0H341.528V63.163L321.976 82.7818H311.087L287.084 106.787H273.81L259.504 92.5114V59.5742L240.905 40.9124H216.505V29.0294H230.335Z" fill="#333F48" fill-opacity="1"/>
    <path d="M363.623 133.424H354.244V142.834H363.623V133.424Z" fill="#333F48" fill-opacity="1"/>
    <path d="M375.069 148.098H369.108V116.038H376.103V123.854L382.62 130.473V140.522L375.069 148.098Z" fill="#333F48" fill-opacity="1"/>
    <path d="M497.072 318.766L500.966 322.674V331.127L493.733 338.305V349.709H485.309V330.569L497.072 318.766Z" fill="#333F48" fill-opacity="1"/>
    <path d="M520.734 39.1959L494.601 65.4182L500.614 71.4522L526.748 45.2298L520.734 39.1959Z" fill="#333F48" fill-opacity="1"/>
    <path d="M609.458 274.025L627.5 292.129V300.981H622.811L617.406 295.638V291.57L604.133 278.252V274.025H609.458Z" fill="#333F48" fill-opacity="1"/>
    <path d="M657.066 308.797H634.971L631.712 305.447L633.858 303.294H651.582L657.066 308.797Z" fill="#333F48" fill-opacity="1"/>
    <path d="M655.397 296.515H647.847L639.263 287.902V281.522H644.747L654.761 271.473H660.643V291.172L655.397 296.515Z" fill="#333F48" fill-opacity="1"/>
    <path d="M701.178 201.053H689.018V195.071H698.953V189.329L712.146 176.17H715.246V186.937L701.178 201.053Z" fill="#333F48" fill-opacity="1"/>
    <path d="M686.555 289.976L689.813 286.706H692.675L699.033 293.086H701.338L705.233 289.178H717.87L726.693 298.03V303.773L735.594 312.784L732.256 316.134L725.739 309.515H709.604L694.105 293.963H686.555V289.976Z" fill="#333F48" fill-opacity="1"/>
    <path d="M721.446 334.158L739.25 352.022V372.119L725.499 385.916H710.319L691.8 367.414H679.639L671.611 375.389H656.51L646.813 365.659V345.243L657.225 334.796H667.876V329.452L681.706 315.655H697.204V325.066L702.291 330.17H707.934L711.511 326.581V315.655H717.631V322.195L721.446 326.103V334.158Z" fill="#333F48" fill-opacity="1"/>
    <path d="M783.52 386.953L785.03 388.468V395.486L772.075 408.486L767.067 403.461L783.52 386.953Z" fill="#333F48" fill-opacity="1"/>
    <path d="M367.758 272.749L346.616 251.536V218.917L371.732 193.716H409.883L420.533 204.403L425.541 199.298H439.45L444.695 204.482H461.704L466.95 199.298V190.685H455.028L447 182.63H437.463L424.428 169.631L420.454 173.539L427.21 180.318L421.328 186.219L402.491 167.318L382.303 187.575H363.387V170.508L369.984 163.969H379.68V153.202L397.563 135.178H428.481L435.317 128.4V105.671L443.583 97.3764L438.734 92.5116L424.984 106.309V127.682H411.234V120.504H394.781V105.192L426.415 73.451H481.654V85.0947L474.739 92.0331H466.95V102.321H479.11L516.228 65.1569H540.628V54.231H592.529L609.856 36.8452H644.51V43.1456L633.303 54.3905L639.9 60.9301H739.728L751.411 72.6535H808.001V86.7695L781.693 113.167H767.784V130.473L751.729 146.663H743.861V128.4L759.041 113.167H714.055L701.02 126.246V137.412H709.366V152.166L683.694 177.925V189.968L679.163 194.434H672.646V182.79L664.459 174.576L657.624 181.354V193.716L664.539 200.654V210.862L642.443 232.954H630.283V238.536L638.39 246.671V256.161L632.508 262.063H628.534L620.586 254.088H615.579V262.701L627.262 274.424V279.129L625.196 281.203L615.181 271.154V268.363L611.128 264.216V242.683H604.372L591.417 229.604H583.548V235.665L571.785 247.468V258.793L567.413 263.259H562.088L553.663 254.805V228.727H547.702L537.29 218.2H507.167L498.186 209.188L494.689 212.776L508.836 227.052H517.897V233.671L501.524 250.1H495.086L476.09 230.96V219.874H470.527V242.843L485.707 258.075H498.822V270.277L476.806 292.288V322.036L461.307 337.667V359.439L446.205 374.512H431.581L416.639 359.519V314.699L405.352 303.374V272.749H367.758Z" fill="#333F48" fill-opacity="1"/>
</svg>