<svg xmlns="http://www.w3.org/2000/svg" xmlns:xlink="http://www.w3.org/1999/xlink" width="770" height="400" viewBox="0 0 770 400">
<defs>
<rect id="world-01-a" width="236" height="203" x="0" y=".955"></rect>
<rect id="world-01-c" width="426" height="247" x=".609" y=".162"></rect>
</defs>
<g fill="none" fill-rule="evenodd">
<path fill="#FFF" fill-rule="nonzero" d="M22.565 45.437l.034-.026c1.128-.852.872-2.74-.525-2.523-1.42.22-1.887.244-.972-.866.738-.894 1.438-1.9 2.327-2.79 2.315-2.314 5.196-3.306 7.874-4.836 6.653-3.802 12.79-5.062 20.697-5.062 10.733 0 21.48 4.394 31.888 2.081 6.55-1.456 18.45-4.733 24.578.169 4.961 3.969 15.879 2.522 21.99 3.88 3.753.834 7.16.956 11.136.956 4.124 0 2.565-4.542 1.293-7.086-1.704-3.409-6.345-4.643-9.898-5.062-5.297-.623.158-5.512 1.012-6.58 2.446-3.056 14.817 4.367 18.222 4.556 2.003.111 10.481 2.832 11.923 4.274 2.006 2.006-2.559 2.687-2.755 3.375-.272.951.59 4.097-.619 4.443-3.569 1.02-6.682 1.19-10.011 3.093-5.255 3.003 6.354 2.025 6.524 2.025 2.964 0 5.446-2.084 8.099-3.262 3.215-1.43 6.493-1.848 9.673-2.756 3.207-.917 7.06-.137 10.124-1.013 3.623-1.035 1.986-3.883 3.711-7.142 2.913-5.501 9.132-8.099 15.467-8.099 3.558 0 6.506 5.003 9.111 7.086 2.705 2.164 5.431 3.877 8.605 5.287 5.693 2.53 12.148 3.411 12.148 11.417 0 2.649-7.01 1.519-9.111 1.519-5.366 0 1.151 6.25-1.575 7.03-5.866 1.675-12.205-4.95-7.311-9.843 3.296-3.296 5.662-6.138 0-8.098-4.297-1.487-8.266-5.287-12.88-5.287-6.897 0-7.283 7.34-11.866 11.923-2.861 2.861-7.962-.717-10.686 1.462-2.203 1.763-5.887 3.806-7.312 6.3-3.003 5.256-11.092 4.005-14.96 7.873-6.88 6.88 6.863 8.888 8.886 13.442 1.812 4.075 2.025 6.472 2.025 11.136 0 5.048-.102 5.567 5.062 5.567 4.741 0 4.219-2.314 5.005-6.636.754-4.143 2.818-8.204 5.343-11.36 3.08-3.851 8.983-13.386 14.454-13.386 3.362 0 6.744.343 8.605 3.6 2.558 4.476 3.109 2.474 7.086 2.474 7.256 0 11.136 6.73 11.136 13.667 0 3.027-3.373 5.774.506 6.636 3.346.743 4.823 4.672 2.756 7.255-.871 1.088.184 3.202-1.8 3.768-1.821.52-4.607.17-6.524.056-2.351-.138.231-2.483-.056-3.486-.129-.453-3.852-1.375-4.499-1.519-6.262-1.391-17.045 1.065-9.842 8.267 2.134 2.135 4.927 3.335 7.086 5.062 2.576 2.061 6.695 2.608 1.181 4.331-1.24.387-12.092 3.372-12.092.506 0-3.052.541-2.425-1.202-3.742-.423-.32-.906-.551-1.39-.77-2.247-1.019-2.888-3.05-6.013-.55-2.432 1.946-5.669 1.093-7.817 2.812-2.611 2.089-4.282 2.568-6.637 5.512-1.513 1.891-2.646 4.141-4.78 5.849-2.32 1.856-4.903 3.314-7.086 5.062-1.799 1.439-.019 6.73-1.744 8.886-3.51 4.387-9.309 7.793-14.51 9.279-7.898 2.257-6.524 9.454-6.524 16.254 0 2.36 2.77 8.321-1.012 8.099-1.229-.072-4.655-5.408-5.006-6.637-2.361-8.265-6.485-10.19-14.229-6.749-3.844 1.709-5.135-1.891-6.861-4.049-.983-1.228-7.399-3.715-9.336-1.293-4.215 5.267-8.18 11.707-11.361 17.715-1.635 3.089-1.661 18.223 2.756 18.223 6.249 0 10.185-6.763 15.691-7.087 5.22-.307 6.074-.142 6.074 5.062 0 1.557-.72 2.989-1.068 4.555-.281 1.261-2.869 3.401-2.869 4.05 0 .524 15.073.904 15.073 7.592 0 5.489-3.359 14.32 1.518 18.222 2.367 1.894 5.885 3.467 7.987 5.568 2.197 2.198-7.732-2.464-9.992-4.598-4.776-4.51-8.154-8.148-12.899-12.893-10.231-10.231-24.362-11.94-37.231-17.659-5.668-2.519-8.406-8.697-10.067-14.511-.51-1.785-2.164-6.387-3.6-7.536-2.27-1.816-1.102-6.819-2.755-8.886-1.767-2.209-1.683-6.429-4.837-8.099-4.246-2.247-6.036 1.682-5.006 5.287.844 2.952 2.86 6.217 4.5 9.167.745 1.342 2.297 9.326.73 7.368-1.698-2.124-2.215-5.473-3.486-7.874-1.737-3.28-3.825-6.883-3.825-10.629 0-6.331-5.825-12.765-3.993-19.179.837-2.929 3.346-4.986 4.05-8.155.87-3.913 3.783-8.854 5.23-12.654 1.847-4.847 2.71-9.469 5.062-14.173 1.185-2.37 1.624-8.212.281-10.63-1.459-2.625.484-8.622-2.025-10.629-1.858-1.486-2.387-5.368-4.33-7.311-4.745-4.745-11.705-5.266-17.941-3.88-5.94 1.32-14.369.212-19.516 4.33-3.986 3.19-13.973 3.04-17.434 7.367-3.063 3.828-.292-2.613.506-4.049 1.781-3.207-.183-5.489 3.543-7.817 2.379-1.487 3.703-5.967 6.636-6.805 2.536-.725 5.646-3.076 8.472-5.213z"></path>
<g transform="translate(0 14)">
<mask id="world-01-b" fill="#fff">
<use xlink:href="#world-01-a"></use>
</mask>
<path stroke="#000" stroke-opacity=".1" stroke-width="2" d="M22.565 31.437l.034-.026c1.128-.852.872-2.74-.525-2.524-1.42.22-1.887.245-.972-.865.738-.894 1.438-1.9 2.327-2.79 2.315-2.314 5.196-3.306 7.874-4.836 6.653-3.802 12.79-5.062 20.697-5.062 10.733 0 21.48 4.394 31.888 2.081 6.55-1.456 18.45-4.733 24.578.169 4.961 3.969 15.879 2.522 21.99 3.88 3.753.834 7.16.957 11.136.957 4.124 0 2.565-4.543 1.293-7.087-1.704-3.409-6.345-4.643-9.898-5.062-5.297-.623.158-5.512 1.012-6.58 2.446-3.056 14.817 4.367 18.222 4.556 2.003.111 10.481 2.832 11.923 4.274 2.006 2.005-2.559 2.687-2.755 3.374-.272.952.59 4.098-.619 4.444-3.569 1.02-6.682 1.19-10.011 3.093-5.255 3.003 6.354 2.024 6.524 2.024 2.964 0 5.446-2.082 8.099-3.262 3.215-1.429 6.493-1.847 9.673-2.755 3.207-.917 7.06-.137 10.124-1.013 3.623-1.035 1.986-3.883 3.711-7.142 2.913-5.501 9.132-8.099 15.467-8.099 3.558 0 6.506 5.003 9.111 7.086 2.705 2.164 5.431 3.877 8.605 5.287 5.693 2.53 12.148 3.411 12.148 11.417 0 2.649-7.01 1.518-9.111 1.518-5.366 0 1.151 6.252-1.575 7.03-5.866 1.676-12.205-4.948-7.311-9.841 3.296-3.297 5.662-6.14 0-8.1-4.297-1.486-8.266-5.286-12.88-5.286-6.897 0-7.283 7.34-11.866 11.923-2.861 2.861-7.962-.717-10.686 1.463-2.203 1.762-5.887 3.805-7.312 6.299-3.003 5.256-11.092 4.005-14.96 7.873-6.88 6.88 6.863 8.888 8.886 13.442 1.812 4.075 2.025 6.472 2.025 11.136 0 5.048-.102 5.567 5.062 5.567 4.741 0 4.219-2.314 5.005-6.636.754-4.143 2.818-8.204 5.343-11.36 3.08-3.851 8.983-13.386 14.454-13.386 3.362 0 6.744.343 8.605 3.6 2.558 4.476 3.109 2.474 7.086 2.474 7.256 0 11.136 6.73 11.136 13.666 0 3.028-3.373 5.775.506 6.637 3.346.743 4.823 4.672 2.756 7.255-.871 1.088.184 3.202-1.8 3.768-1.821.52-4.607.17-6.524.056-2.351-.138.231-2.483-.056-3.486-.129-.453-3.852-1.375-4.499-1.519-6.262-1.391-17.045 1.065-9.842 8.267 2.134 2.135 4.927 3.335 7.086 5.062 2.576 2.061 6.695 2.608 1.181 4.331-1.24.387-12.092 3.372-12.092.506 0-3.052.541-2.425-1.202-3.742-.423-.32-.906-.551-1.39-.77-2.247-1.019-2.888-3.05-6.013-.55-2.432 1.946-5.669 1.093-7.817 2.812-2.611 2.089-4.282 2.568-6.637 5.512-1.513 1.891-2.646 4.141-4.78 5.849-2.32 1.856-4.903 3.314-7.086 5.062-1.799 1.439-.019 6.73-1.744 8.886-3.51 4.387-9.309 7.793-14.51 9.279-7.898 2.257-6.524 9.454-6.524 16.254 0 2.36 2.77 8.321-1.012 8.099-1.229-.072-4.655-5.408-5.006-6.637-2.361-8.265-6.485-10.19-14.229-6.749-3.844 1.709-5.135-1.891-6.861-4.049-.983-1.228-7.399-3.715-9.336-1.293-4.215 5.267-8.18 11.707-11.361 17.715-1.635 3.089-1.661 18.223 2.756 18.223 6.249 0 10.185-6.763 15.691-7.087 5.22-.307 6.074-.142 6.074 5.062 0 1.557-.72 2.989-1.068 4.555-.281 1.261-2.869 3.401-2.869 4.05 0 .524 15.073.904 15.073 7.592 0 5.489-3.359 14.32 1.518 18.222 2.367 1.894 5.885 3.467 7.987 5.568 2.197 2.198-7.732-2.464-9.992-4.598-4.776-4.51-8.154-8.148-12.899-12.893-10.231-10.231-24.362-11.94-37.231-17.659-5.668-2.519-8.406-8.697-10.067-14.511-.51-1.785-2.164-6.387-3.6-7.536-2.27-1.816-1.102-6.819-2.755-8.886-1.767-2.209-1.683-6.429-4.837-8.099-4.246-2.247-6.036 1.682-5.006 5.287.844 2.952 2.86 6.217 4.5 9.167.745 1.342 2.297 9.326.73 7.368-1.698-2.124-2.215-5.473-3.486-7.874-1.737-3.28-3.825-6.883-3.825-10.629 0-6.331-5.825-12.765-3.993-19.179.837-2.929 3.346-4.986 4.05-8.155.87-3.913 3.783-8.854 5.23-12.654 1.847-4.847 2.71-9.469 5.062-14.173 1.185-2.37 1.624-8.212.281-10.63-1.459-2.625.484-8.622-2.025-10.629-1.858-1.486-2.387-5.368-4.33-7.311-4.745-4.745-11.705-5.266-17.941-3.88-5.94 1.32-14.369.212-19.516 4.33-3.986 3.19-13.973 3.04-17.434 7.367-3.063 3.828-.292-2.613.506-4.049 1.781-3.207-.183-5.489 3.543-7.817 2.379-1.487 3.703-5.967 6.636-6.805 2.536-.725 5.646-3.076 8.472-5.213z" mask="url(#world-01-b)"></path>
</g>
<path fill="#FFF" fill-rule="nonzero" d="M142.322 228.99c5.616-6.24 4.705-11.855 3.187-19.577 4.958-.842 7.892-5.957 13.292-5.957 2.648 0 2.727-.157 5.343-2.249 2.199-1.76 5.609-.496 7.817.731l.132.073c4.125 2.292 9.514 5.286 13.985 6.563 2.245.642 5.396 2.642 7.648 3.768 1.932.966 6.912 1.272 8.099 2.756 3.226 4.033 9.698 5.796 13.161 10.124 1.512 1.89 5.367 3.687 2.249 6.805-3.38 3.38 1.955 2.812 4.331 2.812 5.755 0 10.872 2.695 16.197 5.061 5.788 2.573 11.909 4.648 17.21 7.593 1.789.994 7.592 3.061 7.592 5.568 0 .64-3.045 5.676-3.543 6.074-1.285 1.028-4.461 5.393-4.555 7.086-.076 1.373-1.585 7.342-2.531 8.099-.628.502-1.465 7.196-1.519 8.099-.187 3.18 0 6.43 0 9.617 0 6.603 1.599 12.654-6.58 12.654-1.714 0-9.117-1.062-10.404.225-1.148 1.147-1.839 5.677-2.306 7.311-.886 3.1-2.901 12.647-5.512 14.736-1.878 1.502-2.22 4.3-3.768 5.849-1.909 1.909-6.91 1.237-9.392 1.237-1.82 0-.382 4.84-.506 7.086-.25 4.486-3.703 3.3-6.524 4.106-3.024.864-1.019 6.349-1.631 8.492-.346 1.209-3.492.347-4.443.619-1.623.464.409 2.284.449 2.981.185 3.133-2.88 4.345-1.968 7.536.545 1.907 3.884 3.769 3.993 5.624.266 4.512-4.882 13.79-1.237 17.435 3.746 3.746 7.421 5.732 10.573 9.673 1.829 2.286-4.506-.492-5.736-.843-1.935-.553-5.83-2.783-7.424-4.218-4.324-3.892-8.295-9.847-11.136-14.961-1.402-2.524-3.105-4.962-4.274-7.592-.927-2.086-3.806-5.524-4.05-7.593-.72-6.121-6.074-10.627-6.074-17.209v-26.096c0-3.806 2.074-16.362-.225-19.235-1.467-1.834-1.151-6.309-1.856-8.773-.635-2.225-3.084-4.153-4.78-5.849-1.729-1.73-3.743-3.414-5.287-5.343-2.028-2.535-5.561-2.699-7.873-4.781-2.163-1.946-2.728-3.697-3.319-6.355-.71-3.194-4.308-5.069-5.792-7.592l-.147-.249c-3.46-5.881-5.14-8.737-5.14-15.949 0-5.84.389-11.655 4.274-15.972z"></path>
<path stroke="#000" stroke-opacity=".1" stroke-width="1.732" d="M144.489 208.709l.875-.149c2.052-.349 3.727-1.501 5.594-2.784l.543-.372c2.033-1.387 4.311-2.814 7.3-2.814 1.343 0 1.845-.049 2.332-.265.513-.228 1.037-.648 2.225-1.599l.245-.196c1.371-1.096 3.065-1.203 4.597-.93 1.535.272 3.034.943 4.182 1.581l-.421.757.421-.757.131.073-.42.756.42-.756c4.153 2.307 9.448 5.243 13.803 6.488 1.22.348 2.642 1.05 3.991 1.771.55.293 1.084.588 1.597.871.79.436 1.532.845 2.21 1.184.39.195.981.377 1.734.563.445.11.901.212 1.375.318.334.075.676.151 1.029.234.824.192 1.665.411 2.386.685.693.263 1.414.628 1.863 1.189 1.488 1.86 3.742 3.224 6.214 4.721l.05.031c2.43 1.471 5.053 3.067 6.897 5.372.296.37.703.744 1.188 1.188l.15.138c.519.477 1.111 1.034 1.553 1.656.449.633.798 1.411.721 2.323-.076.91-.56 1.787-1.427 2.653-.392.393-.619.69-.739.903a1.16 1.16 0 0 0-.081.173c.074.041.203.094.411.142.5.116 1.198.152 1.973.152.379 0 .76-.009 1.127-.018l.071-.002c.338-.008.667-.016.957-.016 5.243 0 9.98 2.155 14.593 4.253.654.298 1.306.594 1.956.883 1.938.862 3.944 1.678 5.958 2.498 3.888 1.582 7.804 3.176 11.32 5.129.332.184.82.411 1.425.693l.463.217c.799.374 1.719.816 2.588 1.311.862.492 1.718 1.059 2.368 1.698.638.626 1.194 1.436 1.194 2.406 0 .176-.045.337-.073.426a3.554 3.554 0 0 1-.127.339c-.096.229-.228.502-.38.795a40.713 40.713 0 0 1-1.126 2.009 48.734 48.734 0 0 1-1.217 1.955c-.182.275-.351.521-.494.716-.118.159-.285.378-.451.51-.534.427-1.589 1.682-2.548 3.102a18.75 18.75 0 0 0-1.203 2.018c-.325.651-.468 1.105-.481 1.338-.044.795-.467 2.715-.971 4.472a27.293 27.293 0 0 1-.837 2.51 9.083 9.083 0 0 1-.452.979c-.126.227-.291.488-.504.688a2.121 2.121 0 0 0-.059.148c-.067.189-.143.46-.224.803-.16.681-.322 1.569-.468 2.486-.293 1.843-.51 3.708-.534 4.114-.123 2.091-.082 4.183-.041 6.307.021 1.077.042 2.163.042 3.26 0 .958.033 1.858.065 2.749.024.665.047 1.325.057 2.001.022 1.508-.03 2.985-.374 4.276-.351 1.316-1.016 2.483-2.233 3.299-1.196.801-2.822 1.195-4.961 1.195-.453 0-1.232-.065-2.111-.138l-.129-.011c-.956-.079-2.068-.171-3.163-.222-1.1-.052-2.153-.062-2.996.014a5.744 5.744 0 0 0-1.021.169c-.127.037-.22.073-.286.106-.061.031-.084.052-.086.053m-88.536-96.114c.762 3.882.491 7.261.219 10.267-.267 2.952-1.36 5.742-4.049 8.73-4.131 4.59-4.497 10.728-4.497 16.552 0 3.681.43 6.302 1.325 8.769.879 2.426 2.2 4.67 3.905 7.567l.03.052m91.6 44.156c-.391.19-.352.521-.579 1.114a18.381 18.381 0 0 0-.599 1.981c-.179.708-.339 1.433-.486 2.095l-.01.047a32.686 32.686 0 0 1-.409 1.721c-.14.493-.321 1.196-.535 2.028-.417 1.625-.96 3.741-1.579 5.737-.475 1.534-1.012 3.06-1.605 4.347-.578 1.255-1.263 2.405-2.084 3.062-.765.612-1.249 1.513-1.767 2.603l-.141.299c-.45.958-.97 2.064-1.789 2.883-.626.626-1.458.997-2.314 1.223-.862.229-1.814.328-2.745.364-.935.037-1.88.012-2.733-.022-.223-.008-.437-.018-.643-.026a41.078 41.078 0 0 0-1.515-.048.97.97 0 0 0-.044.137c-.086.34-.094.89-.036 1.63.041.522.108 1.071.176 1.635.027.219.054.441.079.664.089.764.165 1.557.129 2.202-.068 1.228-.361 2.181-.902 2.895-.548.724-1.276 1.104-2.016 1.321-.689.201-1.448.277-2.129.345l-.081.008c-.735.073-1.403.145-2.023.321-.442.127-.699.397-.869.857-.188.509-.245 1.207-.222 2.054.014.555.059 1.104.105 1.663.024.303.049.609.07.92.053.815.08 1.704-.12 2.404-.209.734-.835 1.042-1.32 1.169-.486.126-1.046.135-1.534.119-.309-.009-.65-.033-.957-.054a37.371 37.371 0 0 0-.465-.03c-.387-.021-.609-.015-.714 0 .019.047.046.108.085.182.096.187.211.367.34.571l.16.254c.089.144.185.306.263.467.069.146.166.374.181.633.101 1.714-.632 2.966-1.213 3.958l-.158.271c-.604 1.051-.983 1.881-.629 3.12.086.304.306.667.672 1.108.317.381.691.763 1.096 1.175l.178.181c.455.464.943.973 1.322 1.497.375.518.715 1.144.757 1.85.074 1.273-.23 2.814-.618 4.375-.177.708-.376 1.443-.576 2.18l-.071.261a83.123 83.123 0 0 0-.644 2.479c-.395 1.652-.666 3.206-.635 4.543.032 1.333.36 2.342 1.054 3.036 1.528 1.527 3.038 2.752 4.543 3.971.301.244.602.488.902.734 1.793 1.467 3.557 2.995 5.192 5.039.136.17.256.343.346.518.084.166.174.396.173.661a1.075 1.075 0 0 1-.379.824c-.219.185-.466.25-.634.276-.332.052-.708.004-1.03-.057-.345-.065-.73-.167-1.122-.284a41.256 41.256 0 0 1-2.395-.827l-.4-.149c-.569-.212-.992-.37-1.209-.432-1.071-.306-2.601-1.044-4.031-1.858-1.434-.817-2.869-1.77-3.734-2.549-4.431-3.987-8.457-10.04-11.314-15.183a80.797 80.797 0 0 0-1.53-2.601c-.226-.374-.454-.751-.682-1.133-.751-1.261-1.491-2.564-2.097-3.927-.324-.73-.908-1.639-1.564-2.661-.214-.333-.436-.678-.659-1.033-.437-.696-.867-1.415-1.206-2.102-.333-.675-.61-1.383-.689-2.047-.311-2.645-1.544-4.976-2.878-7.496l-.335-.634c-1.428-2.714-2.867-5.656-2.867-9.181v-26.096c0-1 .135-2.544.292-4.285l.035-.389c.151-1.664.318-3.517.424-5.344.115-1.974.156-3.885.032-5.467-.062-.79-.164-1.476-.31-2.036-.148-.569-.328-.948-.508-1.173-.475-.594-.77-1.351-.971-2.119-.204-.776-.329-1.632-.427-2.472-.054-.462-.099-.914-.143-1.349-.122-1.211-.231-2.296-.471-3.136-.26-.911-.916-1.826-1.794-2.771-.545-.587-1.105-1.115-1.665-1.644a49.464 49.464 0 0 1-1.101-1.06 77.685 77.685 0 0 0-1.611-1.548c-1.281-1.209-2.64-2.492-3.74-3.866-.867-1.085-2.074-1.69-3.498-2.307l-.45-.193c-1.263-.539-2.68-1.144-3.829-2.178-1.156-1.041-1.911-2.055-2.45-3.18-.531-1.109-.837-2.295-1.134-3.631-.297-1.336-1.211-2.452-2.375-3.626-.219-.22-.45-.445-.685-.675-.949-.925-2.125-2.187-2.778-3.296"></path>
<path fill="#FFF" fill-rule="nonzero" d="M222.073 15.161c-.189 3.216-6.719.543-8.699-.061a3.054 3.054 0 0 0-.764-.109c-1.893-.085-3.468-.808-4.71-2.36-1.226-1.533-1.249-6.77 1.8-4.331 2.568 2.054 7.579 9.958 9.279 2.306 1.308-5.885 7.134-2.726 10.967-5.793C233.617 1.876 239.003 2 243.838 2h8.605c2.188 0 7.555 1.012 2.531 1.012-4.708 0-9.782 2.218-13.667 4.274-4.461 2.362-10.692 2.812-15.691 2.812-2.313 0-3.433 3.188-3.543 5.062z"></path>
<path stroke="#000" stroke-opacity=".1" stroke-width="1.732" d="M213.121 15.928c.211.064.497.161.836.276 1.105.374 2.779.941 4.285 1.212.981.176 2.04.259 2.909.01.451-.13.893-.361 1.232-.755.344-.4.521-.9.554-1.459.049-.823.326-1.957.835-2.858.517-.915 1.145-1.389 1.844-1.389 5.004 0 11.429-.441 16.096-2.912 3.872-2.05 8.783-4.174 13.262-4.174.638 0 1.131-.016 1.496-.047a4.77 4.77 0 0 0 .487-.062c.121-.023.304-.065.472-.16a.983.983 0 0 0 .357-.337.912.912 0 0 0 .089-.769.958.958 0 0 0-.279-.416 1.207 1.207 0 0 0-.22-.154c-.213-.117-.499-.202-.748-.266-1.054-.27-3.015-.533-4.185-.533h-9.18c-2.236-.003-4.642-.006-6.927.313-2.491.347-4.927 1.086-6.93 2.689-.813.65-1.75.987-2.781 1.199-.517.106-1.047.179-1.594.246l-.355.043c-.429.052-.869.105-1.294.172-1.085.17-2.226.448-3.188 1.154-.992.727-1.697 1.834-2.06 3.467-.417 1.878-.968 2.414-1.286 2.542-.298.12-.816.045-1.68-.572-.814-.582-1.681-1.463-2.544-2.379l-.371-.395c-.705-.754-1.414-1.511-2.012-1.99-.827-.661-1.751-1.056-2.618-.69-.828.35-1.153 1.214-1.277 1.884-.135.726-.104 1.559.039 2.308.139.733.407 1.505.839 2.045 1.409 1.761 3.223 2.59 5.347 2.685.248.011.412.03.55.072z"></path>
<path fill="#FFF" fill-rule="nonzero" d="M252.218 18.198c-2.213-.163-4.297-1.53-6.194-2.976-1.565-1.193-1.533-2.935.332-3.56 3.731-1.248 9.725-2.575 11.149-2.575 4.731 0 10.431-2.125 15.691-.956 11.13 2.474 20.987-.195 31.326-3.15 4.933-1.409 10.787-.955 16.254-.955 2.093 0 15.714 2.564 15.466 2.812-1.392 1.392-4.059.518-5.849 2.756-1.534 1.917-2.699 3.205-4.555 5.061-3.376 3.376-6.462 7.025-9.843 10.405-3.345 3.346-6.755 5.404-10.123 8.098-3.063 2.45-12.857.128-14.96 2.756-1.184 1.48-5.508 1.515-7.311 3.319-1.601 1.6-2.585 3.434-4.05 5.061-2.602 2.891-.707 12.373-6.355 12.373-2.914 0-12.606-2.108-13.61-5.624-.696-2.435-2.081-3.772-2.081-6.524 0-2.568.889-4.988 1.012-7.086.306-5.199 3.729-6.943 2.081-12.71-.563-1.97-1.596-3.91-3.318-5.287-.914-.731-3.901-1.152-5.062-1.238z"></path>
<path stroke="#000" stroke-opacity=".1" stroke-width="1.732" d="M245.499 15.91c1.892 1.443 4.159 2.967 6.655 3.152.546.04 1.545.162 2.513.361.483.1.942.215 1.324.344.401.135.641.26.748.345 1.542 1.233 2.497 2.995 3.026 4.848.759 2.654.359 4.335-.284 6.023-.122.32-.257.648-.397.988-.604 1.47-1.299 3.159-1.431 5.411-.05.841-.232 1.74-.439 2.76l-.098.488c-.239 1.193-.477 2.512-.477 3.89 0 1.54.394 2.688.853 3.73.128.29.256.563.381.83.332.709.643 1.372.88 2.201.341 1.193 1.362 2.13 2.511 2.856 1.177.744 2.647 1.364 4.138 1.859 2.968.985 6.215 1.537 7.794 1.537 1.711 0 2.909-.744 3.718-1.894.767-1.09 1.168-2.517 1.45-3.901.137-.671.251-1.361.361-2.026l.015-.091c.116-.7.228-1.368.362-1.993.274-1.287.609-2.217 1.093-2.755.684-.76 1.268-1.563 1.823-2.326l.206-.283c.627-.86 1.24-1.67 1.989-2.42.336-.335.826-.622 1.455-.883.627-.258 1.328-.466 2.06-.677l.143-.04c.668-.193 1.368-.394 1.974-.636.634-.254 1.302-.601 1.743-1.153.302-.377 1.004-.692 2.247-.88 1.194-.18 2.652-.212 4.212-.24.067 0 .133-.002.2-.003 1.473-.026 3.022-.052 4.396-.22 1.408-.17 2.804-.505 3.77-1.277 1.109-.887 2.21-1.695 3.328-2.516.568-.417 1.141-.837 1.721-1.273 1.706-1.28 3.431-2.66 5.146-4.374 1.703-1.703 3.33-3.472 4.943-5.225l.004-.005c1.619-1.759 3.222-3.502 4.895-5.175 1.876-1.876 3.063-3.187 4.619-5.133.704-.879 1.57-1.165 2.584-1.39l.37-.078c.397-.083.834-.175 1.229-.299.547-.172 1.119-.434 1.602-.917a.871.871 0 0 0 .144-1.05.913.913 0 0 0-.298-.316l-.001-.001a1.328 1.328 0 0 0-.264-.129 5.427 5.427 0 0 0-.478-.145c-.373-.1-.909-.223-1.55-.362-1.286-.277-3.04-.623-4.863-.96a200.35 200.35 0 0 0-5.3-.912c-1.545-.241-2.863-.415-3.468-.415-1.034 0-2.102-.017-3.184-.034-1.716-.027-3.466-.055-5.163-.016-2.793.063-5.574.305-8.145 1.04-10.354 2.958-20.011 5.556-30.9 3.136-2.792-.62-5.665-.36-8.355.028-.677.097-1.338.202-1.985.304-1.979.313-3.818.603-5.539.603-.441 0-1.152.097-1.968.24a61.89 61.89 0 0 0-2.934.601c-2.159.492-4.62 1.143-6.521 1.78-1.168.39-1.966 1.223-2.042 2.328-.072 1.048.533 2.034 1.459 2.74z"></path>
<path fill="#FFF" fill-rule="nonzero" d="M341.528 76.408c0-7.014 2.029-10.457 9.111-10.63 3.918 0 9.111 4.194 9.111 8.1 0 3.693 6.714 11.23 10.911 7.873 3.379-2.704 6.573-5.85 11.361-5.85 2.893 0 3.82-2.754 6.074-3.036 2.104-.263 4.048-1.012 6.58-1.012 2.289 0 3.234-2.443 5.118-2.981 2.337-.668 4.53-.57 7.03-1.125 3.398-.755 5.959-9.578 3.768-12.317-1.066-1.333-2.107-6.734-4.274-6.861-2.314-.137-3.932 1.94-4.049 4.049-.113 2.031-.496 14.531-2.588 15.129-7.712 2.203-7.761-5.9-13.104-7.087-2.277-.506-6.58-.584-6.58-3.486 0-1.352-1.677-5.466-.787-6.356 5.502-5.502 13.55-15.08 21.596-17.378 6.113-1.747 11.35-4.106 18.166-4.106 6.06 0 10.992 1.39 16.704 2.025 2.505.278 6.732 2.779 7.873 5.062 2.174 4.346-3.103 2.055-4.611 3.262-5.664 4.53 7.74 2.812 9.392 2.812 10.663 0 13.214-19.238 23.565-8.886 3.416 3.416 11.495 1.8 16.197 1.8 2.152 0 5.986.763 7.537-.788.979-.98 1.547-5.287.281-6.3-1.77-1.415 1.709-3.528 2.531-4.555 1.847-2.309 5.944.61 7.536 1.519 3.596 2.055 4.589 7.896 6.411 11.136 1.069 1.9 1.293-5.137 1.238-6.074-.156-2.654-3.899-1.88-1.238-4.275 4.309-3.878 10.253-5.02 15.86-6.355 13.279-3.162 25.227-4.555 39.032-4.555 1.387 0 7.251.78 7.873 2.024.566 1.13-2.248 5.176-.562 6.862.849.848 5.803 1.188 7.086 1.237 3.595.138 7.298 1.714 10.967 2.08 6.601.66 12.355 1.97 19.122 1.97h11.642c8.455 0 16.417.377 24.634 2.811 9.014 2.671 19.722 1.238 29.133 1.238 8.637 0 17.51-1.013 26.32-1.013 10.358 0 20.748 2.025 31.271 2.025 5.494 0 10.005 1.522 15.185 3.487 4.982 1.89 10.176 2.587 2.137 2.587-3.262 0-6.408 6.903-9.168 9.111-3.989 3.192-9.603 3.857-13.441 7.311-4.75 4.275-.499 9.297-.225 13.948.072 1.224 5.508 4.165 3.824 5.85-1.766 1.766-7.51-3.447-8.886-4.331-3.002-1.93-5.914-4.021-7.086-7.537-.728-2.184-.362-5.799-1.575-7.705-4.277-6.72-7.747-7.487-14.173-4.274-1.735.868-4.726 3.719-6.524 3.824-3.703.218-7.659-.676-11.135.788-1.98.833-12.941 5.057-7.593 9.336.935.748 2.597 3.372 3.543 4.555 1.511 1.888 5.832.456 7.087 2.025 1.196 1.496 3.914.839 5.624 3.037 1.924 2.475 3.036 4.807 4.274 7.593 1.397 3.142 2.738 12.613.45 15.41-2.063 2.521-7.92 6.97-9.336 9.448-3.994 6.989-1.16 8.87 3.037 14.117 5.086 6.358-2.525 3.861-4.837-.507-2.742-5.18-5.033-9.111-11.36-9.111-4.322 0-12.148-.551-12.148 5.568 0 3.784 4.916 10.485 7.592 13.161 3.699 3.698 8.302 12.27 8.605 17.716.511 9.202-10.913 19.234-20.191 19.234-3.523 0-12.889-.409-15.241 2.531-1.464 1.829 4.8 4.966 6.58 7.142 1.926 2.354 4.377 4.501 4.556 7.537.427 7.259 4.41 24.182-9.561 20.19-2.154-.615-1.418-4.05-2.587-5.511-1.318-1.648-3.65-2.48-5.512-3.544-3.95-2.257-9.205-2.198-4.837 3.262 1.248 1.56 0 4.809 1.463 6.637 1.345 1.682 2.198 4.111 3.599 5.511 3.011 3.011 4.956 11.389 7.874 13.723 6.269 5.016-10.573-2.102-10.573-.281 0 .978 6.39 7.572 7.198 8.38 1.316 1.316 4.586 2.269 4.837 4.274.178 1.422.908 5.184 1.8 6.299.979 1.225 5.332 12.486 5.062 12.486-.432 0-6.16-7.872-6.862-8.886-1.646-2.378-2.979-5.229-4.837-7.087-3.432-3.432-6.128-7.022-7.367-11.36-.872-3.051-7.145-7.345-9.561-9.224-6.837-5.318 6.362-3.143 7.817-1.687 2.961 2.961 7.293 4.255 10.124 7.086 3.2 3.201-.405-2.949-1.463-4.049-2.1-2.185-3.053-6.042-5.342-7.874-2.451-1.96-6.581-9.317-6.581-12.654 0-3.295-6.035-5.056-3.065-5.056 1.589 0 1.788-1.131 1.716-1.977-.053-.607-.411-1.128-.835-1.565-2.162-2.23-2.492-3.015-4.115-6.081-2-3.778-3.862-8.331-7.367-11.136-1.727-1.381-2.881-4.366-5.118-5.005-2.31-.66-5.636-.056-8.043-.056-4.464 0-9.004 6.858-12.654 8.886-4.557 2.531-9.899 5.765-12.935 9.561-2.572 3.214-1.238 10.388-1.238 14.454 0 1.667.072 6.649-2.024 2.98-1.928-3.373-5.163-6.003-7.537-9.054-1.757-2.259-5.462-7.882-5.624-10.63-.407-6.921-8.286-22.253-15.635-24.352-4.739-1.354-10.77-1.429-15.297-3.487-2.444-1.111-6.775-1.832-8.549-4.05-1.453-1.816-4.188-.905-6.074-1.743-2.752-1.223-5.508-.178-8.324-1.012-3.679-1.091-7.497-2.343-10.91-4.05-2.013-1.006-5.062-4.195-5.062-.787 0 1.935-.113 5.781 1.518 7.086 4.521 3.616 1.976 9.111 9.112 9.111 3.212 0 9.832 2.197 12.429 4.275 2.687 2.149 3.262 2.204 3.262 5.849 0 2.685.489 5.688-.788 8.098-2.681 5.065-13.658 5.063-18.76 5.062h-.193c-2.453 0-5.933 1.328-8.099 2.531l-.069.038c-1.127.627-6.295 3.5-6.455 2.943-1.258-4.406-.814-8.99-3.88-12.823-5.208-6.51-9.704-13.77-14.96-20.528-3.485-4.481-9.137-5.816-12.092-11.136-2.434-4.381 2.531-10.032 2.531-14.173 0-6.215-.981-8.605-7.593-8.605-4.768 0-10.283-1.497-14.679-3.824-11.825-6.26 10.352-12.373 14.679-12.373 5.439 0 9.977-1.012 15.185-1.012 5.735 0-5.896-7.957-6.355-8.324-2.759-2.207-9.287-4.673-12.598-2.025-1.828 1.463-5.077.215-6.636 1.463-1.381 1.104-2.382 2.715-3.768 3.824-3.064 2.451-3.557 9.151-7.031 11.136-1.674.956-4.676 1.189-6.074 2.587-2.023 2.023.45 4.77.45 6.524 0 3.309-3.465-2.359-3.824-3.037-.703-1.328-3.18-3.659-3.262-5.062-.221-3.757-1.429-8.634-4.556-11.136-4.499-3.599-6.187-5.061-12.148-5.061-5.886 0-1.966 5.176.731 7.873 2.85 2.85 6.908 3.067 9.674 6.524 2.455 3.069-2.723 3.348-3.6 4.05-1.351 1.08-1.767 3.908-2.193 5.399-1.274 4.459-11.416 2.249-6.636-1.575 4.215-3.372 2.477-6.69-.731-9.898-6.051-6.05-13.32-12.147-20.022-3.769-2.972 3.715-8.617 1.913-11.136 5.062-1.378 1.723-2.61 2.889-3.093 5.062-.543 2.444-3.751 2.999-5.231 4.33-7.351 6.617-24.481-3.058-16.984-12.429 3.478-4.348 7.603-7.228 13.61-5.511 3.782 1.08 8.661 3.825 8.661-3.094v-.089c0-3.01 0-3.96-1.8-6.21-2.032-2.54 1.8-4.026 1.8-5.849 0-1.381-3.792-1.99-4.049-4.05-.282-2.255-2.025-3.787-2.025-6.58 0-5.78-11.136 5.154-11.136-2.024z"></path>
<g transform="translate(332 13)">
<mask id="world-01-d" fill="#fff">
<use xlink:href="#world-01-c"></use>
</mask>
<path stroke="#000" stroke-opacity=".1" stroke-width="2" d="M9.528 63.408c0-7.014 2.029-10.457 9.111-10.63 3.918 0 9.111 4.194 9.111 8.1 0 3.693 6.714 11.23 10.911 7.873 3.379-2.704 6.573-5.85 11.361-5.85 2.893 0 3.82-2.755 6.074-3.036 2.104-.263 4.048-1.013 6.58-1.013 2.289 0 3.234-2.442 5.118-2.98 2.337-.668 4.53-.57 7.03-1.125 3.398-.755 5.959-9.578 3.768-12.317-1.066-1.333-2.107-6.734-4.274-6.861-2.314-.137-3.932 1.94-4.049 4.049-.113 2.031-.496 14.531-2.588 15.129-7.712 2.203-7.761-5.9-13.104-7.087-2.277-.506-6.58-.584-6.58-3.486 0-1.352-1.677-5.466-.787-6.356 5.502-5.502 13.55-15.08 21.596-17.378 6.113-1.747 11.35-4.106 18.166-4.106 6.06 0 10.992 1.39 16.704 2.025 2.505.278 6.732 2.779 7.873 5.062 2.174 4.346-3.103 2.055-4.611 3.262-5.664 4.53 7.74 2.812 9.392 2.812 10.663 0 13.214-19.238 23.565-8.886 3.416 3.416 11.495 1.8 16.197 1.8 2.152 0 5.986.763 7.537-.788.979-.98 1.547-5.287.281-6.3-1.77-1.415 1.709-3.528 2.531-4.555 1.847-2.309 5.944.61 7.536 1.519 3.596 2.055 4.589 7.896 6.411 11.136 1.069 1.9 1.293-5.137 1.238-6.074-.156-2.654-3.899-1.88-1.238-4.275 4.309-3.878 10.253-5.02 15.86-6.355 13.279-3.162 25.227-4.555 39.032-4.555 1.387 0 7.251.78 7.873 2.024.566 1.13-2.248 5.176-.562 6.862.849.848 5.803 1.188 7.086 1.237 3.595.138 7.298 1.714 10.967 2.08 6.601.66 12.355 1.97 19.122 1.97h11.642c8.455 0 16.417.377 24.634 2.811 9.014 2.671 19.722 1.238 29.133 1.238 8.637 0 17.51-1.013 26.32-1.013 10.358 0 20.748 2.025 31.271 2.025 5.494 0 10.005 1.522 15.185 3.487 4.982 1.89 10.176 2.587 2.137 2.587-3.262 0-6.408 6.903-9.168 9.111-3.989 3.192-9.603 3.857-13.441 7.311-4.75 4.275-.499 9.297-.225 13.948.072 1.223 5.508 4.165 3.824 5.85-1.766 1.766-7.51-3.447-8.886-4.331-3.002-1.93-5.914-4.021-7.086-7.537-.728-2.184-.362-5.799-1.575-7.705-4.277-6.72-7.747-7.487-14.173-4.274-1.735.868-4.726 3.719-6.524 3.824-3.703.218-7.659-.676-11.135.788-1.98.833-12.941 5.057-7.593 9.336.935.748 2.597 3.372 3.543 4.555 1.511 1.889 5.832.456 7.087 2.025 1.196 1.496 3.914.839 5.624 3.037 1.924 2.475 3.036 4.807 4.274 7.593 1.397 3.142 2.738 12.613.45 15.41-2.063 2.521-7.92 6.97-9.336 9.448-3.994 6.989-1.16 8.87 3.037 14.117 5.086 6.358-2.525 3.861-4.837-.507-2.742-5.18-5.033-9.111-11.36-9.111-4.322 0-12.148-.551-12.148 5.568 0 3.784 4.916 10.485 7.592 13.161 3.699 3.698 8.302 12.27 8.605 17.716.511 9.202-10.913 19.234-20.191 19.234-3.523 0-12.889-.409-15.241 2.531-1.464 1.829 4.8 4.966 6.58 7.142 1.926 2.354 4.377 4.501 4.556 7.537.427 7.259 4.41 24.182-9.561 20.19-2.154-.615-1.418-4.05-2.587-5.511-1.318-1.648-3.65-2.48-5.512-3.544-3.95-2.257-9.205-2.198-4.837 3.262 1.248 1.56 0 4.809 1.463 6.637 1.345 1.682 2.198 4.111 3.599 5.511 3.011 3.011 4.956 11.389 7.874 13.723 6.269 5.016-10.573-2.102-10.573-.281 0 .978 6.39 7.572 7.198 8.38 1.316 1.316 4.586 2.269 4.837 4.274.178 1.422.908 5.184 1.8 6.299.979 1.225 5.332 12.486 5.062 12.486-.432 0-6.16-7.872-6.862-8.886-1.646-2.378-2.979-5.229-4.837-7.087-3.432-3.432-6.128-7.022-7.367-11.36-.872-3.051-7.145-7.345-9.561-9.224-6.837-5.318 6.362-3.143 7.817-1.687 2.961 2.961 7.293 4.255 10.124 7.086 3.2 3.201-.405-2.949-1.463-4.049-2.1-2.185-3.053-6.042-5.342-7.874-2.451-1.96-6.581-9.317-6.581-12.654 0-3.295-6.035-5.056-3.065-5.056 1.589 0 1.788-1.131 1.716-1.977-.053-.607-.411-1.128-.835-1.565-2.162-2.23-2.492-3.015-4.115-6.081-2-3.778-3.862-8.331-7.367-11.136-1.727-1.381-2.881-4.366-5.118-5.005-2.31-.66-5.636-.056-8.043-.056-4.464 0-9.004 6.858-12.654 8.886-4.557 2.531-9.899 5.765-12.935 9.561-2.572 3.214-1.238 10.388-1.238 14.454 0 1.667.072 6.649-2.024 2.98-1.928-3.373-5.163-6.003-7.537-9.054-1.757-2.259-5.462-7.882-5.624-10.63-.407-6.921-8.286-22.253-15.635-24.352-4.739-1.354-10.77-1.429-15.297-3.487-2.444-1.111-6.775-1.832-8.549-4.05-1.453-1.816-4.188-.905-6.074-1.743-2.752-1.223-5.508-.178-8.324-1.012-3.679-1.091-7.497-2.343-10.91-4.05-2.013-1.006-5.062-4.195-5.062-.787 0 1.935-.113 5.781 1.518 7.086 4.521 3.616 1.976 9.111 9.112 9.111 3.212 0 9.832 2.197 12.429 4.275 2.687 2.149 3.262 2.204 3.262 5.849 0 2.685.489 5.688-.788 8.098-2.681 5.065-13.658 5.063-18.76 5.062h-.193c-2.453 0-5.933 1.328-8.099 2.531l-.069.038c-1.127.627-6.295 3.5-6.455 2.943-1.258-4.406-.814-8.99-3.88-12.823-5.208-6.51-9.704-13.77-14.96-20.528-3.485-4.481-9.137-5.816-12.092-11.136-2.434-4.381 2.531-10.032 2.531-14.173 0-6.215-.981-8.605-7.593-8.605-4.768 0-10.283-1.497-14.679-3.824-11.825-6.26 10.352-12.373 14.679-12.373 5.439 0 9.977-1.012 15.185-1.012 5.735 0-5.896-7.957-6.355-8.324-2.759-2.207-9.287-4.673-12.598-2.025-1.828 1.463-5.077.215-6.636 1.463-1.381 1.104-2.382 2.715-3.768 3.824-3.064 2.451-3.557 9.151-7.031 11.136-1.674.956-4.676 1.189-6.074 2.587-2.023 2.023.45 4.77.45 6.524 0 3.309-3.465-2.359-3.824-3.037-.703-1.328-3.18-3.659-3.262-5.062-.221-3.757-1.429-8.634-4.556-11.136-4.499-3.599-6.187-5.061-12.148-5.061-5.886 0-1.966 5.176.731 7.873 2.85 2.85 6.908 3.067 9.674 6.524 2.455 3.069-2.723 3.348-3.6 4.05-1.351 1.08-1.767 3.908-2.193 5.399-1.274 4.459-11.416 2.249-6.636-1.575 4.215-3.372 2.477-6.69-.731-9.898-6.051-6.05-13.32-12.147-20.022-3.769-2.972 3.715-8.617 1.913-11.136 5.062-1.378 1.723-2.61 2.889-3.093 5.062-.543 2.444-3.751 2.999-5.231 4.33-7.351 6.617-24.481-3.058-16.984-12.429 3.478-4.348 7.603-7.228 13.61-5.511 3.782 1.08 8.661 3.825 8.661-3.094v-.089c0-3.01 0-3.96-1.8-6.21-2.032-2.54 1.8-4.026 1.8-5.849 0-1.381-3.792-1.99-4.049-4.05-.282-2.255-2.025-3.787-2.025-6.58 0-5.78-11.136 5.154-11.136-2.024z" mask="url(#world-01-d)"></path>
</g>
<path fill="#FFF" fill-rule="nonzero" d="M329.381 153.345c4.978-6.223 5.722-10.133 10.365-16.365.167-.224.357-.428.57-.609 1.218-1.034 5.615-4.686 7.184-4.871 2.905-.342 4.223-2.318 7.5-2.5 7.33-.407 12.487-5.519 19.936-5.519 3.7 0 5.94 1.629 9.111 2.025 1.889.236 2.17 6.509 3.262 7.874 2.883 3.604 12.325 8.609 16.478 5.286 2.893-2.314 6.481-2.024 10.124-2.024 3.675 0 4.238 3.163 7.142 3.993 4.704 1.344 18.672-.896 18.672 5.118 0 3.815 2.678 4.071 4.275 7.086 1.629 3.078 3.064 6.016 4.612 9.111 2.955 5.911 5.653 12.673 7.367 18.672 1.168 4.089 7.347 14.179 10.573 16.76 2.533 2.026 4.151 4.949 7.087 6.58 2.873 1.597 8.345.506 11.642.506 1.909 0 12.148-.949 12.148 1.013 0 2.74-5.324 7.348-7.087 9.111-6.273 6.273-14.479 10.43-20.753 16.703-5.91 5.911-4.614 12.702-2.474 20.191 1.967 6.886 1.386 12.49.956 19.797-.427 7.252-2.543 11.145-7.874 15.41-1.496 1.197-6.176 3.762-6.299 5.849-.207 3.515 0 7.107 0 10.629 0 6.473-6.948 11.537-10.573 16.198-3.663 4.71-10.83 10.599-16.198 13.666-6.097 3.485-14.287 7.389-16.816-1.462-1.823-6.383-11.742-6.414-12.091-12.71-.415-7.47-3.037-14.77-3.037-22.272 0-6.772 1.012-14.469 1.012-21.765 0-7.71-2.449-15.829-4.106-23.284-1.578-7.101-2.144-14.822-5.23-21.765-2.665-5.997-8.648-10.765-14.96-11.136-3.245-.191-5.562-3.037-9.111-3.037h-10.63c-13.865 0-27.292-3.052-37.175-12.935-5.9-5.9-2.812-12.149-2.812-19.46 0-6.722 2.305-12.876 3.993-18.784 1.749-6.122 9.711-6.698 13.217-11.08z"></path>
<path stroke="#000" stroke-opacity=".1" stroke-width="1.732" d="M339.051 136.463c-2.217 2.976-3.563 5.437-4.865 7.819l-.256.468c-1.382 2.521-2.784 5.002-5.226 8.054-.784.981-1.841 1.777-3.069 2.519-.798.482-1.618.915-2.464 1.361-.483.255-.974.514-1.475.79-2.665 1.467-5.386 3.287-6.365 6.713-.296 1.036-.614 2.088-.937 3.157-1.492 4.931-3.089 10.21-3.089 15.865 0 1.772-.187 3.488-.385 5.196l-.034.301c-.185 1.592-.371 3.19-.388 4.753-.036 3.383.718 6.667 3.873 9.822 10.113 10.114 23.812 13.189 37.787 13.189h10.63c1.542 0 2.839.613 4.273 1.351l.26.134c1.317.682 2.8 1.449 4.527 1.55 5.932.349 11.661 4.867 14.22 10.623 1.504 3.385 2.402 6.977 3.122 10.639.286 1.458.548 2.948.81 4.439.387 2.202.774 4.409 1.244 6.524.359 1.615.751 3.25 1.147 4.895 1.451 6.045 2.938 12.239 2.938 18.201 0 3.614-.251 7.333-.504 11.02l-.015.221c-.248 3.6-.493 7.171-.493 10.524 0 3.843.671 7.617 1.378 11.311l.182.946c.652 3.389 1.292 6.71 1.478 10.063.205 3.684 3.257 5.48 5.924 7.024l.148.085c2.783 1.61 5.268 3.049 6.052 5.791.67 2.345 1.75 3.962 3.184 4.932 1.434.97 3.106 1.214 4.802 1.049 3.337-.326 7.062-2.273 10.092-4.005 5.447-3.112 12.707-9.072 16.451-13.887.877-1.127 1.962-2.288 3.128-3.524l.176-.187c1.104-1.17 2.266-2.402 3.327-3.689 2.222-2.696 4.125-5.779 4.125-9.329 0-1.208-.023-2.406-.046-3.596-.046-2.349-.091-4.669.045-6.982.013-.231.173-.601.615-1.11.423-.488 1.013-1 1.681-1.512a43.073 43.073 0 0 1 2.026-1.436l.149-.102c.58-.392 1.128-.763 1.504-1.064 2.722-2.178 4.681-4.306 6.004-6.863 1.323-2.556 1.976-5.473 2.193-9.172.039-.654.079-1.296.118-1.928.397-6.384.729-11.736-1.106-18.158-1.069-3.744-1.889-7.193-1.748-10.411.138-3.171 1.21-6.137 4.003-8.929 3.079-3.079 6.64-5.647 10.27-8.262l.028-.02c3.601-2.594 7.268-5.236 10.455-8.422.237-.237.556-.542.928-.897.93-.887 2.187-2.086 3.306-3.323.791-.875 1.55-1.806 2.115-2.713.551-.884.991-1.857.991-2.79 0-.696-.475-1.128-.881-1.359-.408-.233-.926-.378-1.454-.478-1.072-.202-2.477-.267-3.887-.271a83.378 83.378 0 0 0-4.13.113c-.355.017-.687.033-.989.049-.768.038-1.351.067-1.673.067-.863 0-1.855.071-2.871.148l-.256.02c-.948.072-1.921.146-2.883.179-2.141.073-4.005-.073-5.212-.744-1.338-.744-2.399-1.793-3.476-2.97-.187-.203-.375-.412-.565-.623-.885-.983-1.827-2.028-2.925-2.906-.721-.578-1.661-1.623-2.702-2.983-1.031-1.346-2.126-2.953-3.162-4.614-2.09-3.349-3.869-6.806-4.417-8.725-1.731-6.056-4.45-12.869-7.426-18.821-.334-.668-.663-1.33-.991-1.989-1.186-2.382-2.349-4.72-3.63-7.14-.68-1.285-1.579-2.16-2.307-2.869-.205-.2-.396-.386-.565-.564-.401-.424-.715-.828-.936-1.314-.218-.48-.366-1.087-.366-1.934 0-.933-.275-1.741-.784-2.414-.5-.661-1.192-1.149-1.966-1.516-1.53-.727-3.554-1.062-5.612-1.243-1.59-.14-3.275-.194-4.852-.243-.475-.015-.94-.03-1.39-.047-1.993-.073-3.639-.186-4.696-.488-1.018-.291-1.664-.907-2.477-1.681-.145-.138-.295-.281-.453-.428-1.03-.957-2.293-1.917-4.45-1.917-.361 0-.727-.004-1.096-.007-3.219-.032-6.71-.065-9.568 2.221-.823.658-1.961.947-3.348.894-1.386-.054-2.946-.448-4.508-1.068-3.146-1.249-6.085-3.326-7.406-4.977-.053-.067-.139-.217-.244-.49a9.868 9.868 0 0 1-.3-.966c-.12-.447-.228-.911-.343-1.4-.088-.375-.179-.765-.281-1.174-.222-.888-.486-1.812-.837-2.54-.319-.664-.868-1.503-1.826-1.622-1.247-.156-2.329-.513-3.514-.903l-.685-.223c-1.447-.466-3.034-.906-5.019-.906-3.921 0-7.221 1.35-10.35 2.676l-.326.138c-3.046 1.292-5.94 2.519-9.308 2.706-1.826.102-3.107.711-4.234 1.283l-.199.101c-1.042.531-1.924.98-3.12 1.121-.594.07-1.304.426-1.952.808-.688.405-1.449.931-2.184 1.472a68.216 68.216 0 0 0-3.507 2.791 4.56 4.56 0 0 0-.705.752z"></path>
<path fill="#FFF" fill-rule="nonzero" d="M483.579 281.111c1.932-.858 3.806-2.457 5.495-4.223 2.053-2.146 5.242-1.539 4.65 1.37-.368 1.813-1.092 3.667-2.046 5.384-1.507 2.712-4.365 4.149-4.556 7.592-.185 3.339-.713 17.21-6.074 17.21-3.398 0-3.037-17.106-3.037-20.247 0-3.314 2.704-5.813 5.568-7.086z"></path>
<path stroke="#000" stroke-opacity=".1" stroke-width="1.732" d="M488.449 276.289c-1.664 1.739-3.444 3.241-5.222 4.031-2.988 1.328-6.082 4.054-6.082 7.877 0 .216-.002.501-.004.844-.013 2.12-.04 6.466.251 10.52.168 2.348.446 4.651.912 6.386.231.861.525 1.647.917 2.236.389.584.985 1.127 1.827 1.127 1.782 0 3.052-1.171 3.929-2.642.878-1.474 1.476-3.421 1.896-5.397.778-3.664.991-7.679 1.091-9.569l.023-.42c.081-1.455.713-2.501 1.589-3.569.223-.272.474-.556.737-.854.721-.817 1.533-1.737 2.122-2.797.99-1.782 1.749-3.719 2.138-5.631.179-.881.091-1.69-.286-2.347-.379-.662-.997-1.073-1.684-1.246-1.346-.34-2.962.205-4.154 1.451z"></path>
<path fill="#FFF" fill-rule="nonzero" d="M689.829 283.993c.994-3.478 7.283-5.731 10.655-6.539.283-.067.571-.101.862-.085 3.442.189 7.804 2.432 10.473-.237 2.16-2.16 3.67-4.151 6.074-6.074 1.351-1.08 9.554-1.828 11.136-.563 4.142 3.314-4.244 4.634-3.768 6.299.937 3.28 13.076 10.877 16.647 8.099 3.023-2.351 3.543-6.522 3.543-10.067 0-4.548 2.366-6.407 5.287-2.756 4.41 5.512.715 15.572 5.624 21.709 3.329 4.161 11.361 10.014 11.361 15.467 0 6.345-4.349 15.106-10.123 18.503-2.899 1.705-3.462 5.817-5.287 8.099-1.927 2.408-3.78 5.004-5.343 7.817-2.151 3.871-6.229 3.543-10.123 3.543-2.613 0-8.955-.437-10.63-2.531-1.575-1.969-4.534-4.943-6.58-6.58-2.387-1.909-3.011-5.654-6.58-6.074-3.959-.466-7.09-3.824-11.136-4.049-3.903-.217-7.775.814-11.136 1.012-7.136.42-14.117 4.049-21.765 4.049-2.372 0-3.874.468-6.074.957-3.569.793-1.519-1.538-1.519-3.487 0-3.239 1.013-7.375 1.013-11.136 0-4.017-2.025-7.85-2.025-12.148 0-4.4 4.043-5.281 6.861-7.818 2.297-2.066 7.176-2.812 10.349-2.812 2.793 0 5.571-2.647 7.536-4.611 2.555-2.556 3.74-4.737 4.668-7.987z"></path>
<path stroke="#000" stroke-opacity=".1" stroke-width="1.732" d="M729.57 269.819l-.54.676.54-.676c-.338-.27-.776-.435-1.2-.545a9.342 9.342 0 0 0-1.481-.239c-1.071-.096-2.335-.086-3.573-.002-1.24.084-2.481.244-3.51.455a11.72 11.72 0 0 0-1.39.364c-.382.13-.774.298-1.064.53-1.248.998-2.258 2.01-3.218 3.031-.314.334-.619.665-.924.996-.64.693-1.28 1.387-2.003 2.111-1.038 1.038-2.438 1.185-4.219.944-.744-.1-1.504-.261-2.293-.428a179.02 179.02 0 0 0-.459-.096c-.934-.195-1.91-.384-2.843-.435a3.858 3.858 0 0 0-1.111.107c-1.731.415-4.217 1.201-6.416 2.342-1.1.57-2.154 1.244-3.01 2.024-.853.777-1.552 1.701-1.859 2.777-.892 3.12-2.005 5.169-4.448 7.612-.982.983-2.122 2.087-3.344 2.947-1.233.868-2.447 1.411-3.58 1.411-1.645 0-3.725.193-5.7.654-1.951.456-3.917 1.201-5.228 2.381-.651.586-1.383 1.086-2.156 1.592l-.319.208c-.661.431-1.352.881-1.973 1.376-1.494 1.192-2.7 2.738-2.7 5.285 0 2.273.536 4.407 1.039 6.392l.012.049c.508 2.002.974 3.841.974 5.707 0 1.815-.245 3.733-.499 5.65l-.032.239c-.24 1.81-.482 3.629-.482 5.247 0 .354-.095.762-.231 1.242l-.06.206c-.112.386-.248.85-.284 1.245a1.86 1.86 0 0 0 .11.881c.142.347.405.612.756.768.319.142.677.178 1.029.168.36-.011.777-.072 1.253-.178.399-.089.77-.175 1.124-.258 1.646-.383 2.91-.678 4.762-.678 3.95 0 7.708-.937 11.298-1.896l.835-.224c3.32-.892 6.49-1.743 9.683-1.93 1.309-.077 2.703-.279 4.101-.48.444-.064.888-.128 1.33-.189 1.864-.253 3.74-.447 5.606-.344 1.811.101 3.449.903 5.25 1.839l.261.136c1.675.871 3.512 1.828 5.571 2.07 1.43.168 2.29.975 3.137 2.131.214.291.421.596.637.917l.046.068c.2.296.408.606.626.908.468.651 1.008 1.317 1.695 1.866 1.995 1.596 4.909 4.525 6.445 6.445.561.702 1.442 1.191 2.365 1.546.942.363 2.034.626 3.125.817 2.184.382 4.474.493 5.816.493.27 0 .545.002.824.004 1.666.011 3.458.023 5.082-.345 1.964-.445 3.755-1.454 4.974-3.647 1.532-2.758 3.355-5.314 5.262-7.698.517-.646.928-1.399 1.292-2.151.183-.378.359-.767.531-1.148l.016-.034c.168-.372.334-.738.507-1.099.721-1.506 1.494-2.749 2.704-3.461 3.069-1.805 5.697-4.99 7.553-8.486 1.857-3.499 2.997-7.415 2.997-10.763 0-1.574-.578-3.115-1.425-4.569-.849-1.456-2.003-2.88-3.233-4.232-1.07-1.176-2.219-2.321-3.299-3.396l-.479-.477c-1.226-1.224-2.317-2.337-3.115-3.334-2.255-2.819-2.567-6.579-2.811-10.6l-.02-.336c-.112-1.861-.227-3.767-.57-5.542-.365-1.891-1.001-3.703-2.223-5.231-.778-.972-1.581-1.66-2.396-2.005-.847-.359-1.714-.345-2.466.108-.712.429-1.196 1.179-1.502 2.043-.309.874-.464 1.946-.464 3.151 0 3.544-.544 7.31-3.209 9.384-.567.44-1.647.568-3.255.206-1.549-.349-3.353-1.102-5.111-2.061-1.753-.956-3.419-2.093-4.694-3.18-.638-.544-1.164-1.063-1.552-1.53-.323-.389-.518-.704-.617-.937.098-.098.271-.231.543-.401a21.07 21.07 0 0 1 1.026-.585l.036-.02c.392-.215.822-.452 1.227-.705a7.228 7.228 0 0 0 1.15-.866c.338-.323.657-.727.816-1.225.361-1.131-.238-2.176-1.376-3.087z"></path>
<path fill="#FFF" fill-rule="nonzero" d="M661.652 231.014c2.54-2.286 6.059-6.115 9.465-9.538 2.355-2.366 7.89-1.157 10.151 1.299 2.36 2.562 4.285 5.006 1.193 7.789-1.215 1.093-2.755 1.418-3.825 2.756-.822 1.028-.647 2.847-1.518 3.543-1.244.995.231 3.054-1.012 4.049a17.552 17.552 0 0 0-2.531 2.531c-1.172 1.465-8.232.618-10.124.506-2.622-.154-5.061-3.058-5.061-5.567 0-4.648.286-4.69 3.262-7.368z"></path>
<path stroke="#000" stroke-opacity=".1" stroke-width="1.732" d="M670.503 220.866a351.241 351.241 0 0 0-3.644 3.734c-2.15 2.226-4.164 4.31-5.787 5.77l-.37.333c-.565.506-1.045.937-1.433 1.331-.481.49-.866.969-1.145 1.551-.544 1.136-.6 2.52-.6 4.797 0 1.517.725 3.066 1.765 4.241 1.041 1.175 2.505 2.096 4.111 2.191.246.014.607.044 1.046.08 1.124.093 2.765.228 4.32.259 1.091.022 2.197-.005 3.123-.14a6.324 6.324 0 0 0 1.298-.313c.377-.143.78-.36 1.064-.716a16.683 16.683 0 0 1 2.395-2.395c.517-.414.741-.944.822-1.452.073-.451.037-.921.01-1.275l-.003-.04c-.031-.405-.047-.68-.01-.909.03-.19.089-.29.194-.374.373-.299.598-.688.747-1.045.147-.353.246-.738.329-1.068.185-.736.31-1.231.578-1.565.428-.535.959-.885 1.613-1.26l.276-.157c.573-.323 1.243-.701 1.838-1.236.851-.766 1.416-1.561 1.693-2.404.281-.854.243-1.685.004-2.47-.457-1.499-1.676-2.891-2.832-4.145-1.296-1.408-3.442-2.391-5.541-2.727-2.075-.332-4.395-.069-5.861 1.404z"></path>
<path fill="#FFF" fill-rule="nonzero" d="M733.305 247.774c-2.181-1.282-5.478-2.603-8.227-3.929-2.706-1.305-1.643-2.386 1.36-2.457 2.041-.048 4.079-.475 6.867-.475 5.276 0 8.883 1.918 13.667 2.981 2.483.551 8.988 3.573 10.629 5.624 2.239 2.798 4.279 5.855 6.299 8.38.629.786 2.615 4.929 2.25 4.668-2.484-1.774-4.418-3.555-7.312-4.668-2.792-1.074-4.581-2.812-7.817-2.812-2.739 0-2.652 3.577-4.106 3.993-2.342.669-5.088-1.428-6.749-2.756-1.458-1.167-1.91-3.148-3.318-4.274-1.505-1.204-2.156-3.459-3.543-4.275z"></path>
<path stroke="#000" stroke-opacity=".1" stroke-width="1.732" d="M724.702 244.625c.977.471 2.028.944 3.062 1.41.433.194.862.388 1.282.579 1.44.656 2.773 1.291 3.82 1.907.483.284.887.855 1.438 1.713l.084.132c.487.759 1.082 1.689 1.919 2.359.562.45.952 1.084 1.44 1.893l.02.032c.455.756 1.002 1.664 1.858 2.349.831.664 1.993 1.571 3.266 2.222 1.256.642 2.775 1.115 4.262.69.692-.197 1.107-.745 1.372-1.182a9.31 9.31 0 0 0 .382-.712l.082-.166c.088-.178.172-.348.262-.519.237-.446.467-.789.74-1.023.248-.212.558-.357 1.03-.357 1.444 0 2.57.382 3.704.92.411.194.806.4 1.226.619l.547.284c.621.319 1.288.646 2.03.931 2.098.807 3.629 1.96 5.379 3.278.55.415 1.122.845 1.739 1.286l.002.002c.045.031.252.18.555.171a.878.878 0 0 0 .81-.605c.06-.18.047-.335.043-.383a1.304 1.304 0 0 0-.028-.176 4.027 4.027 0 0 0-.183-.542 25.26 25.26 0 0 0-.667-1.488 38.528 38.528 0 0 0-.849-1.667c-.264-.487-.54-.96-.753-1.225-.971-1.215-1.95-2.557-2.969-3.954l-.075-.103c-1.041-1.427-2.122-2.907-3.255-4.323-.497-.622-1.305-1.256-2.203-1.848a31.382 31.382 0 0 0-3.082-1.759c-2.162-1.091-4.485-2.022-5.833-2.322-1.563-.347-2.969-.779-4.388-1.215-.726-.223-1.456-.447-2.212-.661-2.198-.624-4.505-1.125-7.254-1.125-1.439 0-2.68.11-3.801.224l-.475.049c-.936.096-1.773.183-2.612.203-.794.019-1.499.104-2.068.261-.525.144-1.114.395-1.446.881a1.364 1.364 0 0 0-.234.962c.045.336.204.618.388.842.354.433.932.812 1.645 1.156z"></path>
<path fill="#FFF" fill-rule="nonzero" d="M711.605 125.644c4.932-4.932 2.35-14.684-1.723-23.375-1.796-3.832-.108-5.314 1.958-1.621 2.545 4.55 4.998 9.093 8.145 11.611 3.879 3.103 2.531 9.757 2.531 14.173 0 3.083-9.735 5.062-12.654 5.062-1.972 0-4.651.017-5.362 2.506-.726 2.54-1.218 5.968-1.218 1.037 0-4.216 5.828-6.897 8.323-9.393z"></path>
<path stroke="#000" stroke-opacity=".1" stroke-width="1.732" d="M709.098 102.636c2.02 4.31 3.642 8.828 4.164 12.842.524 4.029-.081 7.366-2.269 9.554-.572.573-1.354 1.172-2.258 1.846l-.332.246c-.797.592-1.658 1.231-2.457 1.913-1.79 1.527-3.53 3.477-3.53 6 0 1.215.028 2.004.101 2.423.017.103.049.253.115.397a.984.984 0 0 0 .235.321.9.9 0 0 0 .706.228.92.92 0 0 0 .527-.246c.087-.081.145-.166.178-.219a1.83 1.83 0 0 0 .149-.311c.131-.342.275-.919.417-1.496l.047-.189c.137-.557.284-1.154.442-1.707.257-.9.836-1.348 1.634-1.599.857-.269 1.884-.28 2.895-.28 1.572 0 4.826-.516 7.681-1.414 1.431-.45 2.823-1.014 3.876-1.694.999-.646 1.963-1.573 1.963-2.819 0-.839.05-1.759.104-2.748l.045-.849c.066-1.298.115-2.68.039-4.031-.152-2.676-.81-5.433-3.044-7.221-1.469-1.176-2.81-2.854-4.115-4.842-1.183-1.804-2.307-3.816-3.461-5.881l-.355-.634c-.543-.972-1.106-1.687-1.661-2.11-.508-.387-1.364-.75-2.083-.139-.303.258-.455.609-.528.93a3.34 3.34 0 0 0-.045 1.059c.075.746.343 1.654.82 2.67z"></path>
</g>
</svg>
