<?xml version="1.0" encoding="utf-8"?>
<!-- Generator: Adobe Illustrator 23.0.5, SVG Export Plug-In . SVG Version: 6.00 Build 0)  -->
<svg version="1.1" id="Слой_1" xmlns="http://www.w3.org/2000/svg" xmlns:xlink="http://www.w3.org/1999/xlink" x="0px" y="0px"
	 viewBox="0 0 431 182.3" style="enable-background:new 0 0 431 182.3;" xml:space="preserve">
<style type="text/css">
	.st0{fill:none;stroke:#4FD6E5;stroke-width:2;}
</style>
<title>Group 3</title>
<desc>Created with Sketch.</desc>
<g id="Home">
	<g id="Homepage" transform="translate(-120.000000, -367.000000)">
		<g id="Hero-Copy">
			<g id="Group-3" transform="translate(120.000000, 368.000000)">
				<g id="Pattern" transform="translate(215.000000, 317.500000) scale(-1, 1) translate(-215.000000, -317.500000) ">
					<path id="Stroke-381" class="st0" d="M250.9,157.4l1-15.1"/>
					<path id="Stroke-859" class="st0" d="M251.6,181.3l-0.4-15.1"/>
					<path id="Stroke-918" class="st0" d="M277.5,181.1l-3.5-14.7"/>
					<path id="Stroke-964" class="st0" d="M276.8,157.4l-2.1-15"/>
					<path id="Stroke-967" class="st0" d="M303.6,180.4l-6.9-13.5"/>
					<path id="Stroke-968" class="st0" d="M429.6,172.4l-14.9,2.5"/>
					<path id="Stroke-1009" class="st0" d="M329.7,179.2l-10.3-11.1"/>
					<path id="Stroke-1010" class="st0" d="M405.3,173.6l-15.1,0"/>
					<path id="Stroke-1022" class="st0" d="M303,156.9l-5.7-14"/>
					<path id="Stroke-1023" class="st0" d="M429,146.7l-13.9,6"/>
					<path id="Stroke-1024" class="st0" d="M355.5,177.5l-13.1-7.6"/>
					<path id="Stroke-1025" class="st0" d="M380.7,175.4l-14.7-3.5"/>
					<path id="Stroke-1062" class="st0" d="M427.8,120.9l-11.4,10"/>
					<path id="Stroke-1063" class="st0" d="M301.7,133.4l-3.2-14.8"/>
					<path id="Stroke-1066" class="st0" d="M405.1,148l-14.7,3.5"/>
					<path id="Stroke-1067" class="st0" d="M329.5,155.6l-9.8-11.5"/>
					<path id="Stroke-1086" class="st0" d="M355.7,153.3l-13.4-6.9"/>
					<path id="Stroke-1087" class="st0" d="M380.9,150.4l-15.1-1.1"/>
					<path id="Stroke-1090" class="st0" d="M299.5,109.7l1.3-15.1"/>
					<path id="Stroke-1104" class="st0" d="M275.6,133.6l0.3-15.1"/>
					<path id="Stroke-1106" class="st0" d="M328.5,132.5l-7.8-12.9"/>
					<path id="Stroke-1107" class="st0" d="M404.1,121.9l-12.8,8.1"/>
					<path id="Stroke-1139" class="st0" d="M325.6,109.7l-2.1-15"/>
					<path id="Stroke-1144" class="st0" d="M355.6,129.6l-13.3-7.2"/>
					<path id="Stroke-1145" class="st0" d="M380.8,124.8l-14.9,2.4"/>
					<path id="Stroke-1184" class="st0" d="M353.8,108l-9.7-11.6"/>
					<path id="Stroke-1375" class="st0" d="M0.1,174.9l14.9-2.4"/>
					<path id="Stroke-1376" class="st0" d="M0.3,4.5L14.8,9"/>
					<path id="Stroke-1404" class="st0" d="M268.4,8.7L283,4.9"/>
					<path id="Stroke-1822" class="st0" d="M0.1,150.7l15-1.8"/>
					<path id="Stroke-1823" class="st0" d="M0,126.5l15.1-1"/>
					<path id="Stroke-1824" class="st0" d="M0,102.2l15.1-0.1"/>
					<path id="Stroke-1825" class="st0" d="M0,77.8l15.1,0.9"/>
					<path id="Stroke-1826" class="st0" d="M0.1,53.4l15,2"/>
					<path id="Stroke-1827" class="st0" d="M0.2,29l14.8,3.2"/>
					<path id="Stroke-1851" class="st0" d="M24.6,151.6l14.7-3.6"/>
					<path id="Stroke-1852" class="st0" d="M24.5,127.4l14.9-2.8"/>
					<path id="Stroke-1853" class="st0" d="M24.4,103l15-1.8"/>
					<path id="Stroke-1854" class="st0" d="M24.4,78.6l15.1-0.7"/>
					<path id="Stroke-1855" class="st0" d="M24.4,54.2l15.1,0.5"/>
					<path id="Stroke-1856" class="st0" d="M24.4,29.7l15,1.8"/>
					<path id="Stroke-1878" class="st0" d="M49.4,176.7l13.9-6"/>
					<path id="Stroke-1879" class="st0" d="M49.2,152.5l14.1-5.3"/>
					<path id="Stroke-1880" class="st0" d="M49.1,128.2l14.4-4.5"/>
					<path id="Stroke-1881" class="st0" d="M49,103.9l14.7-3.5"/>
					<path id="Stroke-1882" class="st0" d="M48.8,79.5l14.9-2.3"/>
					<path id="Stroke-1883" class="st0" d="M48.8,55l15.1-1"/>
					<path id="Stroke-1884" class="st0" d="M48.8,30.4l15.1,0.4"/>
					<path id="Stroke-1885" class="st0" d="M48.8,5.8l15,1.9"/>
					<path id="Stroke-1909" class="st0" d="M74.2,177.5l13-7.7"/>
					<path id="Stroke-1910" class="st0" d="M74,153.4l13.4-7"/>
					<path id="Stroke-1911" class="st0" d="M73.8,129.1l13.8-6.2"/>
					<path id="Stroke-1912" class="st0" d="M73.6,104.7l14.2-5.1"/>
					<path id="Stroke-1913" class="st0" d="M73.4,80.3L88,76.4"/>
					<path id="Stroke-1914" class="st0" d="M73.2,55.7l14.9-2.5"/>
					<path id="Stroke-1915" class="st0" d="M73.1,31.1l15.1-1"/>
					<path id="Stroke-1916" class="st0" d="M73.1,6.5l15.1,0.6"/>
					<path id="Stroke-1938" class="st0" d="M99.2,178.4L111,169"/>
					<path id="Stroke-1939" class="st0" d="M98.9,154.2l12.4-8.7"/>
					<path id="Stroke-1940" class="st0" d="M98.6,129.9l13-7.8"/>
					<path id="Stroke-1941" class="st0" d="M98.3,105.5l13.5-6.7"/>
					<path id="Stroke-1942" class="st0" d="M98,81l14.1-5.4"/>
					<path id="Stroke-1943" class="st0" d="M97.8,56.5l14.6-3.9"/>
					<path id="Stroke-1944" class="st0" d="M97.6,31.8l14.9-2.3"/>
					<path id="Stroke-1945" class="st0" d="M97.5,7.1l15.1-0.6"/>
					<path id="Stroke-1972" class="st0" d="M124.2,179.1l10.5-10.9"/>
					<path id="Stroke-1973" class="st0" d="M123.9,155l11.1-10.2"/>
					<path id="Stroke-1974" class="st0" d="M123.5,130.7l11.9-9.3"/>
					<path id="Stroke-1975" class="st0" d="M122.4,57.1l14.2-5.3"/>
					<path id="Stroke-1976" class="st0" d="M122.1,32.4l14.7-3.6"/>
					<path id="Stroke-1977" class="st0" d="M121.9,7.7l15-1.7"/>
					<path id="Stroke-2004" class="st0" d="M149.4,179.8l8.9-12.2"/>
					<path id="Stroke-2005" class="st0" d="M149,155.7l9.7-11.6"/>
					<path id="Stroke-2006" class="st0" d="M148.5,131.4l10.6-10.8"/>
					<path id="Stroke-2007" class="st0" d="M148,107l11.7-9.6"/>
					<path id="Stroke-2008" class="st0" d="M147.5,82.4l12.7-8.2"/>
					<path id="Stroke-2009" class="st0" d="M147,57.8l13.6-6.6"/>
					<path id="Stroke-2010" class="st0" d="M146.6,33l14.4-4.7"/>
					<path id="Stroke-2011" class="st0" d="M146.4,8.2l14.9-2.7"/>
					<path id="Stroke-2037" class="st0" d="M174.7,180.4l7-13.4"/>
					<path id="Stroke-2038" class="st0" d="M174.3,156.3l7.9-12.9"/>
					<path id="Stroke-2039" class="st0" d="M173.7,132l9.1-12"/>
					<path id="Stroke-2040" class="st0" d="M173,107.6l10.4-10.9"/>
					<path id="Stroke-2041" class="st0" d="M172.3,83.1l11.8-9.5"/>
					<path id="Stroke-2042" class="st0" d="M171.7,58.4l13-7.7"/>
					<path id="Stroke-2043" class="st0" d="M171.2,33.5l14-5.7"/>
					<path id="Stroke-2044" class="st0" d="M170.8,8.6l14.7-3.5"/>
					<path id="Stroke-2069" class="st0" d="M200.2,180.9l4.8-14.3"/>
					<path id="Stroke-2070" class="st0" d="M199.6,156.8l6-13.9"/>
					<path id="Stroke-2071" class="st0" d="M198.9,132.6l7.4-13.2"/>
					<path id="Stroke-2072" class="st0" d="M198.1,108.2l9.1-12.1"/>
					<path id="Stroke-2073" class="st0" d="M197.2,83.7L208,73"/>
					<path id="Stroke-2074" class="st0" d="M196.4,58.9l12.3-8.7"/>
					<path id="Stroke-2075" class="st0" d="M195.8,33.9l13.6-6.5"/>
					<path id="Stroke-2076" class="st0" d="M195.3,8.9l14.5-4.1"/>
					<path id="Stroke-2096" class="st0" d="M225.8,181.2l2.4-14.9"/>
					<path id="Stroke-2097" class="st0" d="M225.2,157.2l3.7-14.7"/>
					<path id="Stroke-2098" class="st0" d="M224.3,133.1l5.4-14.1"/>
					<path id="Stroke-2099" class="st0" d="M223.2,108.8l7.5-13.1"/>
					<path id="Stroke-2100" class="st0" d="M222.1,84.1l9.7-11.6"/>
					<path id="Stroke-2101" class="st0" d="M221.1,59.3l11.7-9.5"/>
					<path id="Stroke-2102" class="st0" d="M220.3,34.2l13.3-7.1"/>
					<path id="Stroke-2103" class="st0" d="M219.7,9.1l14.4-4.5"/>
					<path id="Stroke-2120" class="st0" d="M249.8,133.4l3.1-14.8"/>
					<path id="Stroke-2121" class="st0" d="M248.5,109.2l5.8-14"/>
					<path id="Stroke-2122" class="st0" d="M247,84.6l8.6-12.4"/>
					<path id="Stroke-2123" class="st0" d="M245.7,59.6l11.2-10.1"/>
					<path id="Stroke-2124" class="st0" d="M244.7,34.3l13.2-7.4"/>
					<path id="Stroke-2125" class="st0" d="M244.1,9l14.5-4.4"/>
					<path id="Stroke-2141" class="st0" d="M273.9,109.5l3.7-14.6"/>
					<path id="Stroke-2142" class="st0" d="M271.9,84.9l7.6-13.1"/>
					<path id="Stroke-2143" class="st0" d="M270.2,59.7l11-10.4"/>
					<path id="Stroke-2144" class="st0" d="M269,34.2l13.3-7.1"/>
					<path id="Stroke-2163" class="st0" d="M296.7,85.1l6.9-13.5"/>
					<path id="Stroke-2164" class="st0" d="M294.4,59.5l11.4-10"/>
					<path id="Stroke-2165" class="st0" d="M293.2,33.7l13.9-6"/>
					<path id="Stroke-2166" class="st0" d="M292.6,8l14.9-2.5"/>
					<path id="Stroke-2180" class="st0" d="M320.9,85l7.1-13.3"/>
					<path id="Stroke-2181" class="st0" d="M318.1,58.6l12.8-8.1"/>
					<path id="Stroke-2182" class="st0" d="M317.1,32.4l14.7-3.5"/>
					<path id="Stroke-2183" class="st0" d="M316.9,6.8l15.1,0"/>
					<path id="Stroke-2197" class="st0" d="M343.2,83.3l11.4-10"/>
					<path id="Stroke-2198" class="st0" d="M341.4,55.7l14.9-2.4"/>
					<path id="Stroke-2199" class="st0" d="M341.3,30.1l15.1,1.1"/>
					<path id="Stroke-2200" class="st0" d="M341.5,5l14.7,3.5"/>
					<path id="Stroke-2214" class="st0" d="M366.5,27.1l13.4,6.9"/>
					<path id="Stroke-2215" class="st0" d="M366.7,3l13.1,7.6"/>
					<path id="Stroke-2228" class="st0" d="M392.7,24.8l9.8,11.5"/>
					<path id="Stroke-2229" class="st0" d="M392.5,1.2l10.3,11.1"/>
					<path id="Stroke-2243" class="st0" d="M419.1,23.6l5.7,14"/>
					<path id="Stroke-2244" class="st0" d="M418.5,0l6.9,13.5"/>
					<path id="Stroke-2438" class="st0" d="M24.7,175.8l14.5-4.2"/>
					<path id="Stroke-2439" class="st0" d="M24.6,5.2l14.8,3.2"/>
					<path id="Stroke-2451" class="st0" d="M123.1,106.3l12.7-8.2"/>
					<path id="Stroke-2452" class="st0" d="M122.7,81.8l13.5-6.9"/>
				</g>
			</g>
		</g>
	</g>
</g>
</svg>
