<?xml version="1.0" encoding="utf-8"?>
<!-- Generator: Adobe Illustrator 23.0.5, SVG Export Plug-In . SVG Version: 6.00 Build 0)  -->
<svg version="1.1" id="Слой_1" xmlns="http://www.w3.org/2000/svg" xmlns:xlink="http://www.w3.org/1999/xlink" x="0px" y="0px"
	 viewBox="0 0 382 205.7" style="enable-background:new 0 0 382 205.7;" xml:space="preserve">
<style type="text/css">
	.st0{fill:none;stroke:#818795;stroke-width:2;}
</style>
<title  data-v-17a2ca39="">Pattern</title>
<desc  data-v-17a2ca39="">Created with Sketch.</desc>
<g id="Landing-Page---Startup">
	<g id="Pattern" transform="translate(-967.000000, -1649.000000)">
		<g transform="translate(968.000000, 1649.000000)">
			<path id="Stroke-381" class="st0" d="M178.8,23.8l-1,15.1"/>
			<path id="Stroke-859" class="st0" d="M178,0l0.4,15.1"/>
			<path id="Stroke-918" class="st0" d="M152.1,0.2l3.5,14.7"/>
			<path id="Stroke-964" class="st0" d="M152.8,23.9l2.1,15"/>
			<path id="Stroke-967" class="st0" d="M126,0.8l6.9,13.5"/>
			<path id="Stroke-968" class="st0" d="M0.1,8.9L15,6.4"/>
			<path id="Stroke-1009" class="st0" d="M99.9,2l10.3,11.1"/>
			<path id="Stroke-1010" class="st0" d="M24.4,7.6l15.1,0"/>
			<path id="Stroke-1022" class="st0" d="M126.6,24.4l5.7,14"/>
			<path id="Stroke-1023" class="st0" d="M0.6,34.5l13.9-6"/>
			<path id="Stroke-1024" class="st0" d="M74.2,3.8l13.1,7.6"/>
			<path id="Stroke-1025" class="st0" d="M49,5.8l14.7,3.5"/>
			<path id="Stroke-1062" class="st0" d="M1.9,60.3l11.4-10"/>
			<path id="Stroke-1063" class="st0" d="M127.9,47.8l3.2,14.8"/>
			<path id="Stroke-1066" class="st0" d="M24.6,33.2l14.7-3.5"/>
			<path id="Stroke-1067" class="st0" d="M100.2,25.6l9.8,11.5"/>
			<path id="Stroke-1084" class="st0" d="M7,110.6l1.3-15.1"/>
			<path id="Stroke-1085" class="st0" d="M4.1,85.9L11,72.5"/>
			<path id="Stroke-1086" class="st0" d="M74,28l13.4,6.9"/>
			<path id="Stroke-1087" class="st0" d="M48.8,30.9L63.8,32"/>
			<path id="Stroke-1090" class="st0" d="M130.2,71.5l-1.3,15.1"/>
			<path id="Stroke-1104" class="st0" d="M154,47.7l-0.3,15.1"/>
			<path id="Stroke-1106" class="st0" d="M101.2,48.8l7.8,12.9"/>
			<path id="Stroke-1107" class="st0" d="M25.6,59.4l12.8-8.1"/>
			<path id="Stroke-1138" class="st0" d="M28.4,85.9l7.1-13.3"/>
			<path id="Stroke-1139" class="st0" d="M104.1,71.6l2.1,15"/>
			<path id="Stroke-1144" class="st0" d="M74.1,51.6l13.3,7.2"/>
			<path id="Stroke-1145" class="st0" d="M48.8,56.5l14.9-2.4"/>
			<path id="Stroke-1183" class="st0" d="M50.6,84.2l11.4-10"/>
			<path id="Stroke-1184" class="st0" d="M75.9,73.3l9.7,11.6"/>
			<path id="Stroke-1393" class="st0" d="M259,197.7l-15.1,1.2"/>
			<path id="Stroke-1397" class="st0" d="M210.2,197.4l-15,1.8"/>
			<path id="Stroke-1404" class="st0" d="M161.3,172.5l-14.6,3.8"/>
			<path id="Stroke-1878" class="st0" d="M380.3,4.6l-13.9,6"/>
			<path id="Stroke-1879" class="st0" d="M380.4,28.8l-14.1,5.3"/>
			<path id="Stroke-1880" class="st0" d="M380.6,53l-14.4,4.5"/>
			<path id="Stroke-1881" class="st0" d="M380.7,77.4L366,80.8"/>
			<path id="Stroke-1882" class="st0" d="M380.8,101.8l-14.9,2.3"/>
			<path id="Stroke-1883" class="st0" d="M380.9,126.3l-15.1,1"/>
			<path id="Stroke-1884" class="st0" d="M380.9,150.8l-15.1-0.4"/>
			<path id="Stroke-1885" class="st0" d="M380.8,175.4l-15-1.9"/>
			<path id="Stroke-1886" class="st0" d="M380.7,200l-14.7-3.4"/>
			<path id="Stroke-1909" class="st0" d="M355.4,3.7l-13,7.7"/>
			<path id="Stroke-1910" class="st0" d="M355.6,27.9l-13.4,7"/>
			<path id="Stroke-1911" class="st0" d="M355.9,52.2l-13.8,6.2"/>
			<path id="Stroke-1912" class="st0" d="M356.1,76.5l-14.2,5.1"/>
			<path id="Stroke-1913" class="st0" d="M356.3,101l-14.6,3.9"/>
			<path id="Stroke-1914" class="st0" d="M356.4,125.5l-14.9,2.5"/>
			<path id="Stroke-1915" class="st0" d="M356.5,150.1l-15.1,1"/>
			<path id="Stroke-1916" class="st0" d="M356.5,174.8l-15.1-0.6"/>
			<path id="Stroke-1917" class="st0" d="M356.4,199.5l-14.9-2.3"/>
			<path id="Stroke-1938" class="st0" d="M330.5,2.9l-11.9,9.4"/>
			<path id="Stroke-1939" class="st0" d="M330.8,27.1l-12.4,8.7"/>
			<path id="Stroke-1940" class="st0" d="M331.1,51.4l-13,7.8"/>
			<path id="Stroke-1941" class="st0" d="M331.4,75.7l-13.5,6.7"/>
			<path id="Stroke-1942" class="st0" d="M331.6,100.2l-14.1,5.4"/>
			<path id="Stroke-1943" class="st0" d="M331.9,124.8l-14.6,3.9"/>
			<path id="Stroke-1944" class="st0" d="M332.1,149.5l-14.9,2.3"/>
			<path id="Stroke-1945" class="st0" d="M332.1,174.2l-15.1,0.6"/>
			<path id="Stroke-1946" class="st0" d="M332.1,198.9l-15.1-1.2"/>
			<path id="Stroke-1972" class="st0" d="M305.4,2.1L294.9,13"/>
			<path id="Stroke-1973" class="st0" d="M305.8,26.3l-11.1,10.2"/>
			<path id="Stroke-1974" class="st0" d="M306.1,50.6l-11.9,9.3"/>
			<path id="Stroke-1975" class="st0" d="M307.3,124.1l-14.2,5.3"/>
			<path id="Stroke-1976" class="st0" d="M307.6,148.8l-14.7,3.6"/>
			<path id="Stroke-1977" class="st0" d="M307.7,173.6l-15,1.7"/>
			<path id="Stroke-1978" class="st0" d="M307.8,198.4l-15.1-0.2"/>
			<path id="Stroke-2004" class="st0" d="M280.2,1.4l-8.9,12.2"/>
			<path id="Stroke-2005" class="st0" d="M280.6,25.6L271,37.2"/>
			<path id="Stroke-2006" class="st0" d="M281.1,49.9l-10.6,10.8"/>
			<path id="Stroke-2007" class="st0" d="M281.6,74.3L270,83.9"/>
			<path id="Stroke-2008" class="st0" d="M282.2,98.8l-12.7,8.2"/>
			<path id="Stroke-2009" class="st0" d="M282.6,123.5L269,130"/>
			<path id="Stroke-2010" class="st0" d="M283,148.3l-14.4,4.7"/>
			<path id="Stroke-2011" class="st0" d="M283.3,173.1l-14.9,2.7"/>
			<path id="Stroke-2012" class="st0" d="M283.4,198l-15.1,0.6"/>
			<path id="Stroke-2037" class="st0" d="M254.9,0.9l-7,13.4"/>
			<path id="Stroke-2038" class="st0" d="M255.4,25l-7.9,12.9"/>
			<path id="Stroke-2039" class="st0" d="M256,49.2l-9.1,12"/>
			<path id="Stroke-2040" class="st0" d="M256.7,73.6l-10.4,10.9"/>
			<path id="Stroke-2041" class="st0" d="M257.3,98.2l-11.8,9.5"/>
			<path id="Stroke-2042" class="st0" d="M257.9,122.9l-13,7.7"/>
			<path id="Stroke-2043" class="st0" d="M258.5,147.8l-14,5.7"/>
			<path id="Stroke-2044" class="st0" d="M258.8,172.7l-14.7,3.5"/>
			<path id="Stroke-2069" class="st0" d="M229.4,0.4l-4.8,14.3"/>
			<path id="Stroke-2070" class="st0" d="M230,24.4l-6,13.9"/>
			<path id="Stroke-2071" class="st0" d="M230.7,48.6l-7.4,13.2"/>
			<path id="Stroke-2072" class="st0" d="M231.6,73l-9.1,12.1"/>
			<path id="Stroke-2073" class="st0" d="M232.4,97.6l-10.8,10.6"/>
			<path id="Stroke-2074" class="st0" d="M233.2,122.4l-12.3,8.7"/>
			<path id="Stroke-2075" class="st0" d="M233.9,147.3l-13.6,6.5"/>
			<path id="Stroke-2076" class="st0" d="M234.4,172.4l-14.5,4.1"/>
			<path id="Stroke-2077" class="st0" d="M234.6,197.5l-15,1.7"/>
			<path id="Stroke-2096" class="st0" d="M203.8,0.1L201.5,15"/>
			<path id="Stroke-2097" class="st0" d="M204.5,24.1l-3.7,14.7"/>
			<path id="Stroke-2098" class="st0" d="M205.4,48.2L200,62.3"/>
			<path id="Stroke-2099" class="st0" d="M206.4,72.5l-7.5,13.1"/>
			<path id="Stroke-2100" class="st0" d="M207.5,97.1l-9.7,11.6"/>
			<path id="Stroke-2101" class="st0" d="M208.6,122l-11.7,9.5"/>
			<path id="Stroke-2102" class="st0" d="M209.4,147l-13.3,7.1"/>
			<path id="Stroke-2103" class="st0" d="M209.9,172.2l-14.4,4.5"/>
			<path id="Stroke-2120" class="st0" d="M179.8,47.8l-3.1,14.8"/>
			<path id="Stroke-2121" class="st0" d="M181.2,72.1l-5.8,14"/>
			<path id="Stroke-2122" class="st0" d="M182.6,96.7l-8.6,12.4"/>
			<path id="Stroke-2123" class="st0" d="M183.9,121.7l-11.2,10.1"/>
			<path id="Stroke-2124" class="st0" d="M184.9,146.9l-13.2,7.4"/>
			<path id="Stroke-2125" class="st0" d="M185.6,172.2l-14.5,4.4"/>
			<path id="Stroke-2141" class="st0" d="M155.8,71.7L152,86.4"/>
			<path id="Stroke-2142" class="st0" d="M157.7,96.4l-7.6,13.1"/>
			<path id="Stroke-2143" class="st0" d="M159.4,121.6l-11,10.4"/>
			<path id="Stroke-2144" class="st0" d="M160.6,147l-13.3,7.1"/>
			<path id="Stroke-2145" class="st0" d="M161.5,197.9l-15.1,0.8"/>
			<path id="Stroke-2163" class="st0" d="M133,96.2l-6.9,13.5"/>
			<path id="Stroke-2164" class="st0" d="M135.2,121.8l-11.4,10"/>
			<path id="Stroke-2165" class="st0" d="M136.5,147.6l-13.9,6"/>
			<path id="Stroke-2166" class="st0" d="M137,173.2l-14.9,2.5"/>
			<path id="Stroke-2180" class="st0" d="M108.7,96.2l-7.1,13.3"/>
			<path id="Stroke-2181" class="st0" d="M111.6,122.7l-12.8,8.1"/>
			<path id="Stroke-2182" class="st0" d="M112.6,148.9l-14.7,3.5"/>
			<path id="Stroke-2183" class="st0" d="M112.8,174.5l-15.1,0"/>
			<path id="Stroke-2184" class="st0" d="M112.6,199.7l-14.9-2.8"/>
			<path id="Stroke-2197" class="st0" d="M86.5,97.9l-11.4,10"/>
			<path id="Stroke-2198" class="st0" d="M88.3,125.6L73.4,128"/>
			<path id="Stroke-2199" class="st0" d="M88.4,151.2l-15.1-1.1"/>
			<path id="Stroke-2200" class="st0" d="M88.2,176.3l-14.7-3.5"/>
			<path id="Stroke-2201" class="st0" d="M87.9,201.1l-14.1-5.5"/>
			<path id="Stroke-2212" class="st0" d="M61.3,108.8l-9.7-11.6"/>
			<path id="Stroke-2213" class="st0" d="M63.1,130.5l-13.3-7.2"/>
			<path id="Stroke-2214" class="st0" d="M63.2,154.1l-13.4-6.9"/>
			<path id="Stroke-2215" class="st0" d="M63,178.3l-13.1-7.6"/>
			<path id="Stroke-2216" class="st0" d="M62.7,202.6l-12.5-8.6"/>
			<path id="Stroke-2226" class="st0" d="M33.1,110.5l-2.1-15"/>
			<path id="Stroke-2227" class="st0" d="M35.9,133.3l-7.8-12.9"/>
			<path id="Stroke-2228" class="st0" d="M36.9,156.4l-9.8-11.5"/>
			<path id="Stroke-2229" class="st0" d="M37.2,180.1L26.9,169"/>
			<path id="Stroke-2230" class="st0" d="M37.1,204L27,192.7"/>
			<path id="Stroke-2242" class="st0" d="M9.2,134.3l-3.2-14.8"/>
			<path id="Stroke-2243" class="st0" d="M10.5,157.7l-5.7-14"/>
			<path id="Stroke-2244" class="st0" d="M11.1,181.3l-6.9-13.5"/>
			<path id="Stroke-2245" class="st0" d="M11.3,205l-7.2-13.3"/>
			<path id="Stroke-2451" class="st0" d="M306.5,75l-12.7,8.2"/>
			<path id="Stroke-2452" class="st0" d="M306.9,99.5l-13.5,6.9"/>
			<path id="Stroke-2459" class="st0" d="M185.8,197.5l-15,1.6"/>
			<path id="Stroke-2463" class="st0" d="M137.1,198.6L122,198"/>
		</g>
	</g>
</g>
</svg>
