<svg width="332" height="53" fill="none" xmlns="http://www.w3.org/2000/svg"><path d="M237.051 1.347c2.761.024 2.207.228 5.384 1.174 3.39.989 3.659 4.12 3.822 4.873.808 4.556 1.351 10.236 1.652 14.412.038.543.294.461.294.461s.253.128.302-.498c.291-4.045.809-9.59 1.956-14.255.971-3.956 7.575-6.11 12.248-6.112l-25.658-.055zM218.53 1.284c1.657 0 1.325.129 3.237.697 2.039.594 2.218 2.532 2.32 2.997.509 2.815.866 6.329 1.07 8.912.026.336.178.284.178.284s.153.078.179-.31c.153-2.506.433-5.941 1.096-8.835.561-2.454 4.511-3.823 7.315-3.849l-15.395.104zM284.543 1.218c5.076-.012 4.022.445 9.958 2.408 6.256 2.045 6.812 8.491 7.032 10.064 1.561 9.443 2.527 21.234 3.133 29.801.145 1.18.551.95.551.95s.48.241.578-1.014c.519-8.395 1.563-19.767 3.55-29.477 1.805-8.143 14.035-12.694 22.656-12.66l-47.458-.072z" fill="#fff"/><path d="M273.422 1.23c2.014.026 5.273 3.21 8.335 3.25 2.739.036 3.052 6.557 3.545 11.668 1.052 11.32 1.745 25.307 2.087 35.597.061 1.415.386 1.183.386 1.183s.318.319.419-1.172c.381-10.046 1.053-23.7 2.582-35.222.457-3.92.892-12.081 5.727-12.096 2.982-.04 6.488-3.056 10.114-3.087l-33.195-.121z" fill="#fff"/><path d="M265.284 1.198c3.142.04 7.862 2.537 8.448 6.785.735 5.113 1.211 11.48 1.549 16.196.072.629.314.553.314.553s.24.16.25-.546c.224-4.551.793-10.747 1.832-15.994.345-1.645 1.341-3.752 4.322-3.713 3.061.04 4.234-3.164 6.893-3.207l-23.608-.074zM13.938 1.274c5.028.026 9.148.402 15.025 2.082 6.186 1.756 6.722 7.385 7.03 8.737 1.54 8.26 2.612 18.467 3.224 25.896.154.976.54.828.54.828s.464.228.543-.897c.471-7.274 1.332-17.172 3.35-25.563C45.36 5.239 57.226 1.38 65.735 1.424l-51.795-.15z" fill="#fff"/><path d="M8.23 1.318c1.936.01 5.185 2.807 8.204 2.822 2.71.013 3.09 5.727 3.628 10.164 1.075 9.85 1.837 22.03 2.37 31.05.076 1.203.386.98.386.98s.31.226.388-1.05c.318-8.717.872-20.589 2.275-30.653.468-3.454.784-10.517 5.507-10.569 2.941.015 6.35-2.674 9.911-2.656L8.231 1.318z" fill="#fff"/><path d="M.15 1.294c3.094.015 7.734 2.215 8.35 5.897.769 4.433 1.305 9.99 1.61 14.046.077.526.31.452.31.452s.231.15.232-.525c.236-3.977.705-9.38 1.638-13.88.31-1.424 1.318-3.22 4.258-3.206 3.017.015 4.075-2.657 6.783-2.719L.15 1.294zM165.401.15c-3.323 0-2.607.249-6.492 1.344-4.09 1.146-4.448 4.882-4.652 5.78-1.023 5.479-1.738 12.254-2.147 17.186-.103.647-.358.548-.358.548s-.307.15-.358-.598c-.307-4.832-.869-11.408-2.198-16.987C148.071 2.69 140.148 0 134.525 0l30.876.15z" fill="#fff"/><path d="M172.609.199c-1.278 0-3.425 1.843-5.419 1.843-1.789 0-2.045 3.786-2.402 6.725-.716 6.526-1.227 14.596-1.585 20.574-.051.797-.256.648-.256.648s-.204.15-.255-.698c-.205-5.778-.563-13.65-1.483-20.325-.306-2.291-.511-6.974-3.629-7.024-1.943 0-4.192-1.793-6.544-1.793l21.573.05z" fill="#fff"/><path d="M177.976.195c-2.045 0-5.112 1.445-5.521 3.886-.511 2.939-.869 6.625-1.074 9.315-.051.349-.204.3-.204.3s-.154.099-.154-.35c-.153-2.64-.46-6.227-1.073-9.216-.205-.946-.869-2.142-2.812-2.142-1.993 0-2.709-1.843-4.498-1.893l15.336.1z" fill="#fff"/></svg>