<svg width="1440" height="134" viewBox="0 0 1440 134" fill="none" xmlns="http://www.w3.org/2000/svg">
<g clip-path="url(#clip0)">
<rect y="107" width="1440" height="27" fill="white"/>
<path d="M744.901 90.6521C744.853 90.5442 744.793 90.4483 744.733 90.3525L737.977 78.6175H739.504C740.526 78.6175 741.367 77.7904 741.379 76.7595C741.379 76.4718 741.319 76.2081 741.199 75.9564C741.163 75.8845 741.115 75.8006 741.066 75.7286L735.237 65.8516H736.835C737.617 65.8516 738.254 65.468 738.254 64.6889C738.254 64.4731 738.206 64.2693 738.109 64.0775C738.085 64.0176 738.049 63.9577 738.013 63.9097L731.03 51.7791C731.006 51.7192 730.97 51.6713 730.933 51.6233C730.669 51.2277 730.236 51 729.755 51C729.287 51 728.842 51.2277 728.578 51.6233C728.541 51.6713 728.505 51.7312 728.493 51.7672L721.486 63.8018C721.401 63.9097 721.341 64.0176 721.293 64.1375C721.221 64.3053 721.197 64.4731 721.197 64.6529C721.197 65.432 721.834 65.8276 722.616 65.8276H724.118L718.396 75.5608C718.288 75.6927 718.204 75.8485 718.132 76.0163C718.048 76.2321 718 76.4598 718 76.6996C718 77.7184 718.829 78.5575 719.851 78.5575H721.401L714.658 90.1247C714.526 90.3045 714.406 90.4963 714.322 90.7121C714.213 90.9878 714.153 91.2874 714.153 91.5871C714.153 92.9056 715.223 93.9844 716.545 93.9844L726.991 94.0084L726.979 96.9332C726.979 97.5205 727.448 97.988 728.037 97.988L731.234 98C731.823 98 732.292 97.5325 732.292 96.9452L732.304 94.0204L742.749 94.0564C744.072 94.0564 745.141 92.9895 745.153 91.671C745.129 91.3354 745.057 90.9878 744.901 90.6521Z" fill="white"/>
<path d="M1332.52 93.935C1332.41 93.6875 1332.27 93.4674 1332.13 93.2474L1316.67 66.3197H1320.17C1322.51 66.3197 1324.43 64.4219 1324.46 62.0564C1324.46 61.3963 1324.32 60.7911 1324.05 60.2135C1323.96 60.0485 1323.85 59.856 1323.74 59.6909L1310.4 37.0266H1314.06C1315.85 37.0266 1317.31 36.1464 1317.31 34.3585C1317.31 33.8635 1317.2 33.3959 1316.98 32.9558C1316.92 32.8183 1316.84 32.6807 1316.76 32.5707L1300.78 4.73535C1300.72 4.59783 1300.64 4.48779 1300.56 4.37777C1299.95 3.4701 1298.96 2.94751 1297.86 2.94751C1296.79 2.94751 1295.77 3.4701 1295.17 4.37777C1295.09 4.48779 1295 4.62534 1294.98 4.70786L1278.94 32.3231C1278.75 32.5707 1278.61 32.8183 1278.5 33.0933C1278.34 33.4784 1278.28 33.8635 1278.28 34.2761C1278.28 36.0639 1279.74 36.9716 1281.53 36.9716H1284.97L1271.88 59.3059C1271.63 59.6084 1271.44 59.966 1271.27 60.3511C1271.08 60.8462 1270.97 61.3688 1270.97 61.9189C1270.97 64.2568 1272.87 66.1822 1275.2 66.1822H1278.75L1263.32 92.7248C1263.02 93.1374 1262.75 93.5775 1262.55 94.0725C1262.31 94.7052 1262.17 95.3928 1262.17 96.0804C1262.17 99.106 1264.62 101.582 1267.64 101.582L1291.54 101.637L1291.51 108.348C1291.51 109.696 1292.58 110.768 1293.93 110.768L1301.25 110.796C1302.59 110.796 1303.67 109.723 1303.67 108.375L1303.69 101.664L1327.59 101.747C1330.62 101.747 1333.07 99.2986 1333.09 96.273C1333.04 95.5028 1332.87 94.7052 1332.52 93.935Z" fill="white"/>
<path d="M453.31 95.0532C453.255 94.9432 453.2 94.8606 453.145 94.7506L446.297 82.8133H447.837C448.882 82.8133 449.735 81.9607 449.735 80.943C449.735 80.6679 449.68 80.3929 449.542 80.1178C449.487 80.0353 449.46 79.9528 449.405 79.8977L443.492 69.8583H445.115C445.912 69.8583 446.545 69.4733 446.545 68.6756C446.545 68.4556 446.49 68.2355 446.407 68.043C446.38 67.988 446.352 67.933 446.297 67.8779L439.23 55.5556C439.202 55.5006 439.175 55.4455 439.147 55.3905C438.872 54.978 438.432 54.7579 437.965 54.7579C437.497 54.7579 437.03 55.0055 436.782 55.3905C436.755 55.4455 436.727 55.5006 436.7 55.5281L429.577 67.7679C429.494 67.8779 429.439 67.988 429.384 68.1255C429.329 68.2905 429.274 68.4831 429.274 68.6481C429.274 69.4458 429.907 69.8308 430.704 69.8308H432.217L426.414 79.7327C426.304 79.8702 426.222 80.0353 426.139 80.2003C426.057 80.4204 426.002 80.6679 426.002 80.888C426.002 81.9332 426.854 82.7858 427.872 82.7858H429.439L422.592 94.5581C422.454 94.7506 422.344 94.9431 422.262 95.1632C422.152 95.4382 422.097 95.7408 422.097 96.0434C422.097 97.3911 423.169 98.4914 424.517 98.4914L435.105 98.5188V101.489C435.105 102.067 435.572 102.562 436.177 102.562H439.422C440.027 102.562 440.495 102.095 440.495 101.489V98.5188L451.082 98.5463C452.43 98.5463 453.502 97.4736 453.53 96.1259C453.558 95.7408 453.475 95.3833 453.31 95.0532Z" fill="white"/>
<path d="M151.367 94.1233C151.312 94.0132 151.257 93.9307 151.202 93.8207L144.354 81.8834H145.894C146.939 81.8834 147.792 81.0307 147.792 80.013C147.792 79.738 147.737 79.4629 147.599 79.1879C147.544 79.1054 147.517 79.0228 147.462 78.9678L141.549 68.9284H143.171C143.969 68.9284 144.601 68.5433 144.601 67.7457C144.601 67.5256 144.546 67.3056 144.464 67.113C144.436 67.058 144.409 67.003 144.354 66.948L137.286 54.6256C137.259 54.5706 137.231 54.5156 137.204 54.4606C136.929 54.048 136.489 53.828 136.021 53.828C135.554 53.828 135.086 54.0755 134.839 54.4606C134.811 54.5156 134.784 54.5706 134.756 54.5981L127.634 66.838C127.551 66.948 127.496 67.058 127.441 67.1956C127.386 67.3606 127.331 67.5531 127.331 67.7182C127.331 68.5158 127.964 68.9009 128.761 68.9009H130.274L124.471 78.8028C124.361 78.9403 124.278 79.1054 124.196 79.2704C124.113 79.4904 124.058 79.738 124.058 79.958C124.058 81.0032 124.911 81.8559 125.928 81.8559H127.496L120.648 93.6281C120.511 93.8207 120.401 94.0132 120.318 94.2333C120.208 94.5083 120.153 94.8109 120.153 95.1134C120.153 96.4612 121.226 97.5614 122.573 97.5614L133.161 97.5889V100.559C133.161 101.137 133.629 101.632 134.234 101.632H137.479C138.084 101.632 138.551 101.165 138.551 100.559V97.5889L149.139 97.6164C150.487 97.6164 151.559 96.5437 151.587 95.1959C151.614 94.8109 151.532 94.4533 151.367 94.1233Z" fill="white"/>
<path d="M568.456 90.9561C568.373 90.791 568.291 90.6535 568.208 90.516L558.033 72.8026H560.343C561.883 72.8026 563.148 71.5648 563.148 69.997C563.148 69.5569 563.066 69.1719 562.873 68.7868C562.818 68.6768 562.763 68.5667 562.681 68.4567L553.908 53.5489H556.3C557.483 53.5489 558.446 52.9712 558.446 51.7885C558.446 51.4585 558.363 51.1559 558.226 50.8533C558.171 50.7708 558.143 50.6883 558.088 50.6058L547.583 32.2873C547.528 32.2047 547.5 32.1222 547.445 32.0397C547.06 31.4346 546.4 31.077 545.685 31.077C544.97 31.077 544.31 31.4346 543.925 32.0122C543.87 32.0947 543.815 32.1773 543.788 32.2323L533.227 50.3858C533.117 50.5508 533.007 50.7158 532.925 50.9084C532.815 51.1559 532.76 51.4309 532.787 51.706C532.787 52.8887 533.75 53.4663 534.905 53.4663H537.16L528.552 68.1817C528.387 68.4017 528.25 68.6217 528.167 68.8693C528.03 69.1994 527.975 69.5569 527.975 69.887C527.975 71.4273 529.212 72.6925 530.78 72.6925H533.117L522.97 90.1584C522.75 90.4334 522.585 90.736 522.475 91.0385C522.31 91.4511 522.227 91.9187 522.227 92.3588C522.227 94.3392 523.85 95.962 525.83 95.9895L541.56 96.0445V100.445C541.56 101.326 542.275 102.041 543.155 102.041H547.968C548.848 102.041 549.563 101.326 549.563 100.445V96.0445L565.293 96.0995C567.273 96.0995 568.896 94.5042 568.923 92.4963C568.813 91.9737 568.703 91.4511 568.456 90.9561Z" fill="white"/>
<path d="M949.065 91.6423C948.983 91.5048 948.928 91.3672 948.818 91.2297L939.192 74.424H941.365C942.823 74.424 944.033 73.2412 944.033 71.7835C944.033 71.3709 943.95 70.9858 943.758 70.6282C943.703 70.5182 943.648 70.4082 943.565 70.2982L935.232 56.1605H937.515C938.642 56.1605 939.55 55.6104 939.55 54.4827C939.55 54.1801 939.495 53.8775 939.357 53.6025C939.33 53.52 939.275 53.4374 939.22 53.3549L929.265 35.9716C929.21 35.8891 929.182 35.8065 929.127 35.7515C928.742 35.2014 928.137 34.8439 927.45 34.8439C926.79 34.8439 926.157 35.1739 925.772 35.724C925.717 35.8065 925.662 35.8616 925.635 35.9441L915.624 53.1624C915.514 53.2999 915.404 53.465 915.349 53.6575C915.267 53.905 915.212 54.1526 915.212 54.4001C915.212 55.5278 916.119 56.0779 917.219 56.0779H919.365L911.197 70.0231C911.032 70.2157 910.922 70.4357 910.812 70.6832C910.674 70.9858 910.619 71.3159 910.619 71.6735C910.619 73.1312 911.802 74.3415 913.259 74.3415H915.487L905.862 90.8996C905.669 91.1472 905.504 91.4222 905.367 91.7248C905.202 92.1374 905.119 92.55 905.119 92.9901C905.119 94.8879 906.659 96.4282 908.529 96.4282L923.435 96.4832L923.407 100.664C923.407 101.489 924.067 102.177 924.92 102.177H929.485C930.31 102.177 930.997 101.517 930.997 100.664V96.4832L945.903 96.5382C947.8 96.5382 949.34 95.0255 949.34 93.1276C949.395 92.605 949.285 92.1099 949.065 91.6423Z" fill="white"/>
<path d="M1367.56 93.674C1367.48 93.5365 1367.43 93.399 1367.32 93.2615L1357.69 76.4557H1359.86C1361.32 76.4557 1362.53 75.273 1362.53 73.8152C1362.53 73.4026 1362.45 73.0176 1362.26 72.66C1362.2 72.55 1362.15 72.44 1362.06 72.3299L1353.73 58.1922H1356.01C1357.14 58.1922 1358.05 57.6421 1358.05 56.5144C1358.05 56.2118 1357.99 55.9093 1357.86 55.6342C1357.83 55.5517 1357.77 55.4692 1357.72 55.3867L1347.76 38.0033C1347.71 37.9208 1347.68 37.8383 1347.63 37.7833C1347.24 37.2332 1346.64 36.8756 1345.95 36.8756C1345.29 36.8756 1344.66 37.2057 1344.27 37.7558C1344.22 37.8383 1344.16 37.8933 1344.13 37.9758L1334.12 55.1941C1334.01 55.3317 1333.9 55.4967 1333.85 55.6892C1333.76 55.9368 1333.71 56.1843 1333.71 56.4319C1333.71 57.5596 1334.62 58.1097 1335.72 58.1097H1337.86L1329.69 72.0549C1329.53 72.2474 1329.42 72.4674 1329.31 72.715C1329.17 73.0175 1329.12 73.3476 1329.12 73.7052C1329.12 75.163 1330.3 76.3732 1331.76 76.3732H1333.98L1324.36 92.9314C1324.17 93.1789 1324 93.454 1323.86 93.7565C1323.7 94.1691 1323.62 94.5817 1323.62 95.0218C1323.62 96.9197 1325.16 98.46 1327.03 98.46L1341.93 98.515L1341.91 102.696C1341.91 103.521 1342.57 104.209 1343.42 104.209H1347.98C1348.81 104.209 1349.5 103.548 1349.5 102.696V98.515L1364.4 98.57C1366.3 98.57 1367.84 97.0572 1367.84 95.1593C1367.89 94.6367 1367.78 94.1416 1367.56 93.674Z" fill="white"/>
<path d="M1105.88 91.7984C1105.79 91.6609 1105.74 91.5234 1105.63 91.3858L1096 74.5801H1098.18C1099.63 74.5801 1100.84 73.3974 1100.84 71.9396C1100.84 71.527 1100.76 71.1419 1100.57 70.7844C1100.51 70.6744 1100.46 70.5643 1100.38 70.4543L1092.04 56.3166H1094.33C1095.45 56.3166 1096.36 55.7665 1096.36 54.6388C1096.36 54.3362 1096.31 54.0336 1096.17 53.7586C1096.14 53.6761 1096.09 53.5936 1096.03 53.511L1086.08 36.1277C1086.02 36.0452 1085.99 35.9627 1085.94 35.9077C1085.55 35.3575 1084.95 35 1084.26 35C1083.6 35 1082.97 35.3301 1082.58 35.8802C1082.53 35.9627 1082.47 36.0177 1082.45 36.1002L1072.44 53.3185C1072.33 53.456 1072.22 53.6211 1072.16 53.8136C1072.08 54.0612 1072.02 54.3087 1072.02 54.5563C1072.02 55.684 1072.93 56.2341 1074.03 56.2341H1076.18L1068.01 70.1793C1067.84 70.3718 1067.73 70.5918 1067.62 70.8394C1067.49 71.1419 1067.43 71.472 1067.43 71.8296C1067.43 73.2874 1068.61 74.4976 1070.07 74.4976H1072.3L1062.67 91.0558C1062.48 91.3033 1062.32 91.5784 1062.18 91.8809C1062.01 92.2935 1061.93 92.7061 1061.93 93.1462C1061.93 95.0441 1063.47 96.5844 1065.34 96.5844L1080.25 96.6394L1080.22 104.82C1080.22 105.645 1080.88 106.333 1081.73 106.333H1086.3C1087.12 106.333 1087.81 105.673 1087.81 104.82V96.6394L1102.71 96.6943C1104.61 96.6943 1106.15 95.1816 1106.15 93.2837C1106.21 92.7611 1106.1 92.266 1105.88 91.7984Z" fill="white"/>
<path d="M333.022 104.736C333.022 104.736 429.797 100.501 435.435 100.996C441.072 101.491 504.049 103.609 546.153 100.253C558.06 99.3179 596.671 100.611 618.947 99.8681C626.565 99.6205 666.221 103.224 692.731 99.483C747.595 91.754 797.372 97.9977 829.547 100.226C861.833 102.481 906.797 102.179 917.687 100.611C928.55 99.0429 983.414 96.4849 1005.94 99.483C1028.49 102.481 1074.33 103.224 1074.33 103.224C1074.33 103.224 973.019 114.088 695.289 114.088C397.566 114.088 333.022 104.736 333.022 104.736Z" fill="white"/>
<path d="M917.844 104.736C917.844 104.736 1014.62 100.501 1020.26 100.996C1025.89 101.491 1088.87 103.609 1130.97 100.253C1142.88 99.3179 1181.49 100.611 1203.77 99.8681C1211.39 99.6205 1251.04 103.224 1277.55 99.483C1332.42 91.754 1382.19 97.9977 1414.37 100.226C1446.66 102.481 1491.62 102.179 1502.51 100.611C1513.37 99.0429 1568.24 96.4849 1590.76 99.483C1613.31 102.481 1659.15 103.224 1659.15 103.224C1659.15 103.224 1557.84 114.088 1280.11 114.088C982.388 114.088 917.844 104.736 917.844 104.736Z" fill="white"/>
<path d="M110.828 91.4319C110.746 91.2668 110.663 91.1293 110.581 90.9918L100.406 73.2784H102.716C104.256 73.2784 105.521 72.0406 105.521 70.4728C105.521 70.0327 105.438 69.6477 105.246 69.2626C105.191 69.1526 105.136 69.0426 105.053 68.9325L96.2804 54.0247H98.673C99.8555 54.0247 100.818 53.4471 100.818 52.2643C100.818 51.9343 100.736 51.6317 100.598 51.3292C100.543 51.2466 100.516 51.1641 100.461 51.0816L89.9553 32.7631C89.9003 32.6806 89.8728 32.5981 89.8178 32.5155C89.4328 31.9104 88.7727 31.5529 88.0577 31.5529C87.3427 31.5529 86.6827 31.9104 86.2977 32.488C86.2427 32.5706 86.1877 32.6531 86.1602 32.7081L75.5999 50.8616C75.4899 51.0266 75.3799 51.1917 75.2974 51.3842C75.1874 51.6317 75.1324 51.9068 75.1599 52.1818C75.1599 53.3645 76.1224 53.9422 77.2774 53.9422H79.5325L70.9248 68.6575C70.7598 68.8775 70.6223 69.0976 70.5398 69.3451C70.4023 69.6752 70.3473 70.0328 70.3473 70.3628C70.3473 71.9031 71.5848 73.1684 73.1523 73.1684H75.4899L65.3421 90.6342C65.1221 90.9093 64.9571 91.2118 64.8471 91.5144C64.6821 91.927 64.5996 92.3946 64.5996 92.8346C64.5996 94.815 66.2221 96.4378 68.2022 96.4653L83.9326 96.5204V100.921C83.9326 101.801 84.6476 102.516 85.5277 102.516H90.3403C91.2203 102.516 91.9353 101.801 91.9353 100.921V96.5204L107.666 96.5754C109.646 96.5754 111.268 94.9801 111.296 92.9722C111.186 92.4496 111.076 91.927 110.828 91.4319Z" fill="white"/>
<path d="M338.246 81.3612C338.134 81.1369 338.022 80.9501 337.91 80.7632L324.084 56.6949H327.223C329.315 56.6949 331.034 55.0131 331.034 52.8829C331.034 52.2849 330.922 51.7617 330.66 51.2385C330.586 51.089 330.511 50.9395 330.399 50.79L318.479 30.5338H321.73C323.336 30.5338 324.644 29.749 324.644 28.1419C324.644 27.6934 324.532 27.2823 324.345 26.8712C324.271 26.7591 324.233 26.647 324.159 26.5349L309.884 1.64442C309.81 1.5323 309.772 1.42018 309.698 1.30806C309.174 0.48585 308.278 0 307.306 0C306.335 0 305.438 0.485859 304.915 1.27069C304.84 1.38281 304.765 1.49495 304.728 1.5697L290.379 26.2359C290.229 26.4601 290.08 26.6844 289.968 26.946C289.818 27.2824 289.744 27.6561 289.781 28.0298C289.781 29.6368 291.089 30.4217 292.658 30.4217H295.722L284.027 50.4163C283.802 50.7152 283.615 51.0142 283.503 51.3506C283.317 51.7991 283.242 52.2849 283.242 52.7334C283.242 54.8263 284.923 56.5454 287.053 56.5454H290.229L276.441 80.2773C276.142 80.6511 275.918 81.0621 275.768 81.4733C275.544 82.0338 275.432 82.6692 275.432 83.2672C275.432 85.958 277.637 88.163 280.327 88.2004L301.701 88.2752V99.2549C301.701 100.451 302.673 101.422 303.868 101.422H310.408C311.603 101.422 312.575 100.451 312.575 99.2549V88.2752L333.949 88.3499C336.639 88.3499 338.844 86.1823 338.881 83.454C338.732 82.744 338.582 82.0339 338.246 81.3612Z" fill="white"/>
<path d="M-95 104.736C-95 104.736 1.77502 100.501 7.41266 100.996C13.0503 101.491 76.027 103.609 118.131 100.253C130.038 99.3179 168.649 100.611 190.925 99.8681C198.543 99.6205 238.199 103.224 264.709 99.483C319.573 91.754 369.35 97.9977 401.525 100.226C433.811 102.481 478.775 102.179 489.665 100.611C500.528 99.0429 555.392 96.4849 577.915 99.483C600.466 102.481 646.309 103.224 646.309 103.224C646.309 103.224 544.997 114.088 267.267 114.088C-30.4558 114.088 -95 104.736 -95 104.736Z" fill="white"/>
<path d="M1185.32 94.1233C1185.26 94.0132 1185.21 93.9307 1185.15 93.8207L1178.3 81.8834H1179.84C1180.89 81.8834 1181.74 81.0307 1181.74 80.013C1181.74 79.738 1181.69 79.4629 1181.55 79.1879C1181.49 79.1054 1181.47 79.0228 1181.41 78.9678L1175.5 68.9284H1177.12C1177.92 68.9284 1178.55 68.5433 1178.55 67.7457C1178.55 67.5256 1178.5 67.3056 1178.41 67.113C1178.39 67.058 1178.36 67.003 1178.3 66.948L1171.24 54.6256C1171.21 54.5706 1171.18 54.5156 1171.15 54.4606C1170.88 54.048 1170.44 53.828 1169.97 53.828C1169.5 53.828 1169.04 54.0755 1168.79 54.4606C1168.76 54.5156 1168.73 54.5706 1168.71 54.5981L1161.58 66.838C1161.5 66.948 1161.45 67.058 1161.39 67.1956C1161.34 67.3606 1161.28 67.5531 1161.28 67.7182C1161.28 68.5158 1161.91 68.9009 1162.71 68.9009H1164.22L1158.42 78.8028C1158.31 78.9403 1158.23 79.1054 1158.15 79.2704C1158.06 79.4904 1158.01 79.738 1158.01 79.958C1158.01 81.0032 1158.86 81.8559 1159.88 81.8559H1161.45L1154.6 93.6281C1154.46 93.8207 1154.35 94.0132 1154.27 94.2333C1154.16 94.5083 1154.1 94.8109 1154.1 95.1134C1154.1 96.4612 1155.18 97.5614 1156.52 97.5614L1167.11 97.5889V100.559C1167.11 101.137 1167.58 101.632 1168.18 101.632H1171.43C1172.03 101.632 1172.5 101.165 1172.5 100.559V97.5889L1183.09 97.6164C1184.44 97.6164 1185.51 96.5437 1185.54 95.1959C1185.56 94.8109 1185.48 94.4533 1185.32 94.1233Z" fill="white"/>
</g>
<defs>
<clipPath id="clip0">
<rect width="1440" height="134" fill="white"/>
</clipPath>
</defs>
</svg>