<svg width="213" height="207" fill="none" xmlns="http://www.w3.org/2000/svg"><path opacity=".3" d="M164.803 146.903l-59.994 35.555-43.364-18.67-32.442-37.666 38.474 27.925 55.917 5.52 39.126-24.029 3.75-45.945-27.714-52.602-61.135-1.624-37.17 55.85 35.866 37.34 44.669.163 24.943-29.386-29.345-42.374-37.659 15.586 5.706 24.84 18.422 5.033 9.945-1.786 4.727-14.287-7.01-10.553-9.781 7.468 12.227 3.085-9.619 10.066-14.509-8.605 11.901-17.859 19.074 2.435 2.771 16.885-7.173 21.918-24.29 3.734-24.617-18.67 6.195-43.673 37.495-3.41 33.094 12.988 6.032 49.355-13.694 23.704-35.213 10.228-39.29-7.306-37.006-40.913 27.714-55.037 58.526-26.301 44.506 22.404 36.029 46.108-26.084 62.506zm25.758-29.873l21.845-12.988-21.03-10.715 13.694-21.593-23.965-7.955 8.477-19.32-21.356-2.598 4.402-23.54-25.758 8.28-.978-17.535-22.661 7.63-9.781-18.345-15.488 13.8L82.475.948l-6.847 19.483-20.867-8.93 3.912 23.38-24.29-5.358 2.445 27.437L9.44 55.012l15.324 21.106L4.386 83.91l14.02 17.372-17.77 12.826 24.454 2.273-14.672 29.223 24.943 3.247-7.662 27.925 25.595-12.177-1.957 26.139 27.877-9.416.979 23.054 15.976-13.475 18.748 15.748 8.803-26.951 12.39 18.508 10.434-20.456 19.726 6.494-9.456-25.976 30.323-.487-11.412-22.405 27.389-2.435-12.553-15.911z" fill="#fff"/></svg>