<svg width="65" height="68" fill="none" xmlns="http://www.w3.org/2000/svg"><path opacity=".3" d="M39.201 39.63l-3.909 5.517-6.198-4.124-6.478.279 2.625-6.076-4.021-6.41 6.143-2.062 4.244-5.574 4.243 4.348 7.762.947-2.289 6.02 3.574 5.184-5.696 1.95zm22.058 4.013l-10.052 3.511-4.914-4.459 9.437-.111-8.208-10.48 3.964-.166 6.59 10.2L65 39.239l-6.701-8.527 4.188-.78-.558-7.358-5.194 1.059 4.412-9.643-7.204-.111-1.396 11.036-5.807.056 3.071-10.312-9.381 6.521 1.73-7.747 11.895-1.394 1.62-6.577-11.448 2.731.95-3.12-6.032-2.676-1.06 3.455L31.382 0l-2.736 7.19 7.539 4.905-1.955 6.633-5.305-9.253-2.792 10.2-3.63-5.796 5.92-10.423L23.788 0 18.65 10.479l-3.239-3.735-4.523 4.57 2.736 3.178-11.168 3.065 5.752 4.794 8.711-4.292 4.58 5.518-11.84 1.784 8.098 5.573-6.925 1.561-4.914-9.42L0 27.367l5.584 6.577-1.843.39.168 6.187 4.97-.892-3.91 12.987 7.93-2.898-.614-10.59 7.706-2.007-3.462 12.931 9.605-4.403-1.954 5.63-11.057.724-2.234 6.522 11.392-1.004-1.117 3.623 5.696 3.679 1.452-4.793L36.13 68l.949-7.692-7.818-5.462 3.462-7.469 6.087 9.085 2.066-12.596 4.58 6.298-6.646 11.259 4.468 3.623 5.416-10.089 1.731 2.007 6.087-2.954-2.736-3.177 10.107-1.56-2.624-5.63z" fill="#fff"/></svg>