<svg width="42" height="39" fill="none" xmlns="http://www.w3.org/2000/svg"><path d="M8.878 28.474l-6.663-.425 7.266 8.293 3.225-7.974 3.473-4.36-7.3 4.466zM37.231 19.614l4.182-4.005-8.364-1.453-2.41 1.524 3.615 1.488-3.473 4.005 6.45-1.56zM22.169 27.659l-.497 8.967L18.59 39l11.2-1.17-5.388-3.366-2.232-6.805zM8.453 22.945l3.508-4.182-6.45 1.666-4.146 3.934h10.81l-3.722-1.418zM28.619 24.753l.354 4.89-4.536-1.452.957 3.083 2.055 1.701 5.777 2.02-.638-6.875-3.97-3.367zM36.735 23.796l-9.038-2.587 9.357 6.308-.815 4.395 2.87-1.382 2.871-9.286-5.245 2.552zM15.647 18.16l-8.151-5.918L4.98 7.599.479 19.011l5.103-2.729 10.065 1.879zM20.255 29.183l-4.111 2.623-.745-3.048-1.56 2.8.887 5.776 3.97-2.162 1.559-5.99z" fill="#fff"/><path d="M25.535 16.14l-.567-4.11-3.933 2.48-5.069-1.417.461 5.458-3.154 3.331 4.855.248.036 5.954 4.359-4.642 4.111 2.728-.46-5.068 3.614-3.296-4.253-1.666z" fill="#fff"/><path d="M13.84 14.97l-.496-4.784 4.607 1.276-1.063-2.977-2.02-1.736L8.7 4.906l1.028 6.698 4.11 3.367zM27.378 14.935l7.16-3.65 6.344.744-8.967-8.895.213 6.663-4.75 5.138zM20.29 11.781l.32-7.832L23.16.05 12.033 1.858l5.636 3.331 2.622 6.592zM22.027 9.974l3.721-2.481.992 3.012.887-9.852-5.565 5.6-.035 3.72z" fill="#fff"/></svg>