<svg width="79" height="77" fill="none" xmlns="http://www.w3.org/2000/svg"><g opacity=".5" fill="#fff"><path d="M23.415 16.574l-5.514-.452-1.75 5.417 5.902.387 1.362-5.352zM55.261 54.88h5.578l1.168-5.546-5.968.13-.778 5.416zM52.861 22.055l5.578 1.226 1.038-5.16-5.643-1.612-.973 5.546zM60.19 36.372l4.346 3.676 4.735-3.676-4.086-3.418-4.995 3.418zM20.431 37.275l-3.892-3.418-3.762 3.418 3.633 3.676 4.021-3.676zM39.954 16.251l3.243-3.353-3.308-3.74-4.93 5.223 4.995 1.87zM20.431 53.075l-1.686 4.772 7.134.71-.908-5.031-4.54-.451z"/><path d="M66.806 46.432L54.872 36.63l13.426-8.642 3.762 8.32L79 25.15l-12.129-9.158.39 9.158-17.578 1.547.714-13.8 8.626.645-8.172-12.511-8.886 5.804 3.697 4.643L39.5 23.087l-9.924-11.35 6.681-4.708L24.128 0l-5.902 13.478 6.55.968 3.373 11.801-11.675-.58-2.983-7.997L0 21.668l7.848 13.608 6.097-5.16 11.675 6.127-12.129 9.48-3.567-5.675-7.913 9.609L15.242 61.07l.065-11.22 13.037 1.224 1.103 14.833-11.87 1.16L27.501 77l11.48-7.545-7.459-2.644 9.08-13.672 11.87 9.415-7.33 6.127 13.103 1.935 2.4-13.027-5.514 4.192-2.594-14.64 11.545 1.42 2.465 9.221 11.09-4.965-5.447-12.834-5.384 6.45zm3.632-24.248l3.762 2.773-1.946 4.514-2.594-2.579.778-4.708zM9.6 28.827L4.93 23.28l7.005-1.677 1.427 4.901L9.6 28.827zm1.233 23.603l-4.216-2.773 2.53-4.063 4.15 1.87-2.464 4.966zm39.5-47.335l3.437 5.804-5.253.451-2.53-2.322 4.346-3.933zm-23.415 5.804l-3.956-.839 2.4-5.417 5.707 2.193-4.15 4.063zm5.773 59.265l-4.476 3.096-4.28-4.58 5.837-1.03 2.919 2.514zm20.885-5.804l3.891-1.096-1.102 4.836-6.032-1.096 3.243-2.644zm2.205-20.056l-9.6-1.612 4.606 10.77-2.854 1.225-7.135-9.351-6.486 10.254-2.465-.387 2.465-11.48L21.47 47.4l-.195-3.16 11.675-7.481-10.896-6.062.778-2.193 12.129 3.483-4.41-9.996 2.334-2.322 7.46 10.64 4.215-9.608 2.919-.322-1.297 11.156 12.777-2.966-.194 2.902-12.519 5.61 10.119 4.192-.584 3.031zM68.817 54.3L67 49.205l2.854-2.902 3.956 4.192-4.994 3.805z"/><path d="M41.251 57.911l-2.854 3.547 3.633 3.418 4.41-5.546-5.189-1.419z"/></g></svg>