<svg width="229" height="230" fill="none" xmlns="http://www.w3.org/2000/svg"><g opacity=".3" fill="#fff"><path d="M219.937 119.584L229 107.028l-33.635-15.347 14.501-6.577-1.41-14.55-17.321 8.371 14.099-33.483-14.3 3.787-11.077 35.078-11.682 5.58 10.473-30.693-16.515 1.595-4.028 29.298-30.211-18.536.402-1.594 41.49-18.735-6.646-10.563-32.024 19.133 4.028-15.745 41.49-10.962-11.883-12.556-26.988 13.353 3.222-11.958-12.084-8.172-4.029 17.34L110.17 0 98.488 9.367l23.162 34.68-3.223 14.15-23.766-33.084-5.639 15.745 26.989 28.5-.403 1.994-39.476 7.773L86 38.865l-13.696-.2-3.222 34.082-12.286-11.76 5.64-40.259-12.085.797-1.209 32.089-12.688-12.158-2.417 9.168 13.696 13.952-40.685 5.979 5.64 11.759 41.69-10.962 10.676 10.962-41.49 3.388 8.862 12.955 36.656-8.172-6.445 47.037-35.045-31.491-3.021 16.343 32.83 19.732-.605 2.192-14.703 7.175L4.23 127.158 0 141.707l34.44 13.553-22.96 11.161 7.855 5.381 14.703-6.577-6.042 31.092 12.285-5.381 2.417-29.697 11.078-4.982-6.244 23.916 8.258-2.591 6.646-25.312 1.611-.797 25.78 21.525-36.655 11.56 10.473 10.763 26.585-14.35-3.424 14.748-34.239 12.357 3.827 13.155 28.197-15.546-4.632 19.731 9.063-2.591 4.834-18.735L115.205 230l8.862-8.371-28.197-26.508 3.424-13.353 21.953 29.497 4.028-16.542-19.133-18.934 39.073-7.773-10.272 34.878 15.508-.996 2.618-30.295 10.272 10.563-10.272 34.48 12.689 5.182 3.827-33.284 15.508 19.134 8.661-14.35-14.703-14.151 31.218-1.196-6.445-14.151-32.829 7.574-9.064-8.77 30.614-6.178-6.243-14.948-30.614 13.353 8.056-47.036 37.663 24.913 2.014-15.745-32.023-14.549 15.105-6.976 33.434 24.116zm-78.146 43.848l-47.935 3.986-24.572-28.9 14.501-55.606 48.137-4.584 26.585 30.693-16.716 54.411z"/><path d="M83.987 97.66l-2.618 45.044 29.405 17.339 31.621-16.542 6.042-38.466-29.607-18.337L83.987 97.66zm57.804 20.33l-16.113 27.504-24.572-.997-12.89-23.318 7.251-22.721 34.642-.2 11.682 19.732z"/></g></svg>